{"glyphs":{"0":{"ha":747,"x_min":72,"x_max":675,"o":"m 155 283 q 160 258 155 271 q 173 232 165 245 q 188 209 180 220 q 203 189 197 197 q 207 184 204 188 q 213 177 210 181 q 219 170 216 173 q 224 165 222 166 q 231 161 224 164 q 244 153 237 157 q 257 145 251 149 q 266 141 264 142 q 293 120 281 132 q 321 100 306 109 q 327 96 323 98 q 332 94 330 94 q 340 97 333 94 q 349 100 348 100 q 371 99 361 100 q 391 98 382 98 q 410 100 401 98 q 430 108 419 102 q 438 114 432 109 q 451 124 444 119 q 465 135 458 130 q 472 141 471 140 q 475 142 473 141 q 481 145 478 144 q 487 149 484 147 q 491 151 490 151 q 512 165 503 158 q 528 181 521 173 q 541 199 535 189 q 552 222 547 209 q 555 227 553 223 q 558 230 556 230 q 562 235 558 231 q 566 241 566 239 q 568 248 567 244 q 570 254 569 251 q 571 259 570 257 q 574 272 572 262 q 576 283 576 281 l 576 284 l 576 288 q 566 323 572 304 q 553 362 561 343 q 534 399 545 382 q 509 428 524 416 q 505 431 509 429 q 500 433 502 433 q 486 455 492 442 q 468 475 479 468 q 462 478 467 476 q 453 483 458 480 q 444 487 448 485 q 438 489 440 489 l 378 489 q 369 491 375 489 q 359 494 363 494 q 353 493 357 494 q 343 491 349 492 q 333 488 338 490 q 326 486 328 486 q 316 483 324 484 q 307 481 309 481 q 301 471 306 478 q 294 463 297 464 q 281 459 291 460 q 271 458 272 458 q 262 455 267 456 q 255 452 256 453 q 252 448 255 451 q 247 442 250 446 q 240 436 243 439 q 237 433 237 433 l 210 433 l 200 433 q 188 427 191 433 q 180 415 184 420 q 176 411 179 414 q 170 405 173 408 q 164 398 167 401 q 161 392 161 395 q 164 381 161 389 q 166 372 166 374 l 166 360 q 165 331 166 346 q 161 302 164 317 q 159 297 161 300 q 157 292 157 293 q 156 288 156 290 q 155 285 155 287 q 155 283 155 283 m 72 341 l 72 342 q 74 357 73 347 q 76 379 75 368 q 79 400 78 390 q 81 415 80 411 q 90 429 84 422 q 100 442 96 435 q 103 447 102 444 q 104 452 104 450 q 107 459 106 453 q 110 466 109 465 l 115 471 q 156 507 136 489 q 200 541 176 526 q 203 543 201 541 q 209 548 205 545 q 214 553 212 551 q 218 556 217 555 q 249 570 232 566 q 283 580 267 575 q 296 583 288 581 q 314 587 305 585 q 331 591 323 589 q 341 593 339 593 l 349 593 q 390 590 370 593 q 430 583 409 586 l 462 583 q 484 573 474 582 q 505 559 494 564 q 575 520 544 544 q 629 467 607 497 q 663 400 651 437 q 675 321 675 363 l 675 302 q 674 297 675 300 q 671 290 673 294 q 667 282 669 286 q 665 278 665 279 l 665 233 l 665 217 q 653 168 662 194 q 632 123 644 142 q 597 86 616 104 q 556 52 578 67 q 511 25 534 36 q 462 11 487 14 q 451 9 460 9 q 432 7 442 8 q 413 6 422 7 q 402 5 404 5 q 397 3 401 5 q 390 0 394 2 q 382 -3 386 -2 q 378 -5 379 -5 l 368 -5 l 359 -5 q 354 -3 358 -5 q 347 0 351 -2 q 340 3 343 2 q 336 5 336 5 q 329 6 333 6 q 322 6 326 6 q 311 5 316 6 q 300 5 305 5 q 288 6 294 5 q 274 11 281 7 q 264 16 273 11 q 250 24 255 20 q 240 31 247 26 q 227 40 234 35 q 215 48 220 44 q 208 53 210 52 q 204 57 208 54 q 197 64 201 60 q 190 71 193 68 q 185 76 186 75 q 178 78 184 76 q 171 81 172 79 q 133 120 149 97 q 104 165 117 142 q 93 185 98 177 q 86 206 88 193 q 84 225 86 209 q 80 263 82 242 q 75 306 77 284 q 72 339 73 327 l 72 341 z "},"1":{"ha":510,"x_min":78,"x_max":444,"o":"m 272 6 q 243 3 258 6 q 214 0 228 0 q 155 6 184 0 q 97 14 126 12 q 91 29 91 21 q 92 32 91 31 q 92 34 92 33 q 105 46 96 40 q 120 58 114 53 q 125 59 121 58 q 130 61 128 61 q 148 68 138 64 q 167 77 158 72 q 182 90 176 82 q 191 108 189 97 q 195 141 194 127 q 195 172 195 154 q 193 203 195 188 q 191 233 191 218 l 191 245 q 192 250 191 246 q 195 259 193 254 q 199 267 197 263 q 200 272 200 271 q 196 293 201 283 q 191 312 191 302 q 196 365 191 340 q 201 418 201 390 q 201 428 201 421 q 201 440 201 434 q 200 451 201 446 q 200 456 200 456 q 199 469 200 461 q 198 484 199 477 q 197 497 197 491 q 195 503 196 503 l 191 507 q 179 510 187 508 q 160 515 170 513 q 141 519 150 517 q 130 522 132 521 q 115 526 124 524 q 98 532 106 528 q 84 541 90 536 q 78 553 78 545 q 87 579 78 565 q 110 597 96 594 q 135 601 119 600 q 171 602 151 602 q 214 601 191 602 q 259 600 237 600 q 300 598 281 599 q 332 597 319 597 q 342 598 334 597 q 361 599 351 599 q 381 600 372 600 q 393 601 390 601 l 397 601 q 425 588 413 601 q 436 562 436 576 q 432 551 436 556 q 424 542 429 546 q 412 535 418 538 q 402 530 406 532 q 388 531 399 530 q 368 532 377 532 q 360 532 363 532 q 355 530 356 532 q 342 526 349 529 q 329 517 335 522 q 317 505 322 512 q 313 492 313 498 l 313 488 q 315 484 313 486 l 317 480 q 319 474 318 479 q 320 463 319 469 q 321 451 321 457 q 323 441 322 445 l 323 440 q 320 421 323 431 q 317 401 317 412 q 320 374 317 387 q 323 347 323 361 l 323 334 q 320 324 322 332 q 315 306 317 315 q 311 287 313 296 q 308 277 309 279 l 308 245 q 307 232 308 241 q 306 212 307 222 q 304 194 304 202 q 303 183 303 186 q 301 177 303 182 q 300 170 300 172 q 298 165 298 169 q 298 159 298 162 q 298 155 298 159 q 300 151 298 151 q 301 139 300 148 q 303 120 302 130 q 306 101 304 110 q 308 89 307 92 q 326 69 316 75 q 347 59 336 62 q 371 54 359 56 q 397 47 384 52 q 404 42 399 47 q 411 37 410 37 q 421 36 416 36 q 432 36 427 37 q 441 33 437 35 q 444 22 444 30 q 440 12 444 16 q 431 3 437 7 q 420 -4 426 -1 q 411 -9 414 -7 l 382 -9 q 340 -6 360 -9 q 300 0 320 -3 q 289 3 297 1 q 280 6 281 5 l 272 6 z "},"2":{"ha":682,"x_min":67,"x_max":670,"o":"m 67 24 q 74 45 67 37 q 92 60 81 54 q 115 70 102 66 q 137 76 127 74 q 144 76 139 76 q 156 77 150 77 q 168 79 163 78 q 175 81 174 80 q 180 84 176 81 q 189 89 184 86 q 198 95 194 92 q 203 100 202 98 q 208 102 205 100 l 212 104 q 242 115 229 110 q 267 126 255 120 q 289 142 278 133 q 312 165 300 152 q 313 169 313 167 q 315 172 314 170 q 315 175 315 174 q 334 194 324 184 q 353 215 345 204 q 369 237 362 225 q 378 264 376 250 l 378 283 q 386 299 379 292 q 392 315 392 307 q 392 317 392 316 q 391 318 391 317 q 391 319 391 319 q 388 327 391 321 q 386 334 386 333 q 386 340 386 335 q 385 351 385 345 q 384 361 384 356 q 382 368 383 366 q 379 372 382 369 q 374 379 377 375 q 370 387 372 383 q 368 392 368 391 q 364 402 368 393 q 359 415 360 411 q 340 447 352 433 q 312 471 328 461 q 304 475 309 472 q 295 480 300 477 q 284 486 290 483 l 212 486 q 188 477 201 481 q 165 466 175 473 l 163 464 q 161 463 161 463 q 150 448 155 455 q 139 435 145 441 q 126 425 134 429 q 109 419 119 421 q 90 425 101 417 q 75 439 79 433 l 75 458 q 85 496 75 481 q 107 525 94 511 q 132 552 119 538 q 151 583 144 565 q 156 583 154 583 q 161 582 158 582 q 191 587 176 582 q 218 598 207 592 q 242 601 230 600 q 265 602 254 602 q 288 601 277 602 q 312 598 300 600 q 320 596 313 598 q 331 593 328 595 q 334 591 331 593 q 339 588 338 589 q 348 585 341 587 q 363 581 355 583 q 378 577 371 579 q 386 575 385 575 q 396 566 388 574 q 410 556 405 559 l 429 536 q 456 508 444 520 q 477 482 468 495 q 490 454 486 469 q 495 415 495 438 q 492 371 495 389 q 483 336 489 352 q 466 305 476 321 q 444 269 456 289 q 439 260 441 264 q 436 251 438 255 q 432 242 435 246 q 425 236 429 239 q 419 233 423 235 q 410 229 414 231 q 401 224 405 227 q 397 222 397 222 q 392 214 395 220 q 386 206 388 208 q 377 203 385 206 q 368 198 370 199 q 360 189 366 196 q 349 174 355 182 q 340 159 344 166 q 336 151 336 153 q 346 127 336 139 q 363 108 355 115 q 417 102 389 106 q 471 98 445 98 q 474 99 473 98 q 476 100 475 99 q 481 102 477 100 q 486 104 485 104 q 515 107 500 106 q 545 109 530 109 q 555 109 550 109 q 566 108 560 109 q 588 130 578 119 q 605 152 597 140 q 620 176 612 164 q 636 202 627 189 q 641 203 637 202 q 646 204 645 204 q 651 203 647 204 q 654 202 653 202 q 663 194 658 201 q 670 183 668 186 l 670 177 q 667 156 670 166 q 659 135 663 145 q 649 115 654 125 q 642 94 644 104 q 632 55 635 74 q 627 14 630 36 q 625 12 627 14 l 623 11 q 606 4 617 7 q 593 0 595 0 l 480 0 q 468 5 475 3 q 453 6 460 6 l 444 6 q 418 3 429 6 q 394 0 408 0 q 378 3 385 0 q 361 6 370 6 q 329 3 345 6 q 297 0 314 0 q 270 2 283 0 q 243 5 257 5 q 214 4 231 5 q 184 -5 198 3 l 95 -5 q 76 5 84 -5 q 67 24 67 14 z "},"3":{"ha":518,"x_min":74,"x_max":455,"o":"m 87 -238 q 87 -237 87 -237 l 87 -235 l 87 -233 q 111 -205 97 -218 q 144 -191 124 -193 l 205 -191 q 231 -178 216 -185 q 257 -168 246 -171 q 262 -166 258 -167 q 271 -164 267 -165 q 279 -163 275 -163 q 285 -163 283 -163 q 290 -161 286 -163 q 296 -159 294 -159 q 297 -156 296 -157 q 299 -153 299 -154 q 303 -152 300 -153 q 309 -149 306 -151 q 315 -146 312 -148 q 319 -144 318 -145 q 321 -134 320 -142 q 322 -124 322 -126 q 325 -120 323 -123 q 328 -113 326 -117 q 331 -106 330 -109 q 332 -101 332 -102 q 333 -93 333 -101 q 333 -82 333 -85 q 330 -53 333 -66 q 321 -26 326 -39 q 309 -1 315 -14 q 296 26 302 12 q 292 32 294 26 q 291 40 291 38 q 271 57 281 52 q 250 63 261 62 q 227 64 239 64 q 201 67 214 64 q 196 70 200 68 q 191 73 192 72 q 161 77 180 77 q 122 79 141 77 q 88 87 102 81 q 74 113 74 94 q 79 127 74 121 q 92 139 84 134 q 107 147 99 144 q 121 153 115 151 q 128 155 123 153 q 140 157 134 156 q 151 160 146 159 q 158 163 157 162 q 162 164 159 163 q 171 168 166 166 q 180 172 176 170 q 186 176 184 174 q 189 178 187 176 q 194 181 191 179 q 198 184 196 182 q 201 186 201 186 q 204 187 202 186 q 210 188 207 187 q 216 189 213 189 q 219 190 218 190 q 228 196 221 191 q 241 207 234 201 q 254 217 248 212 q 262 223 260 222 q 276 232 268 227 q 285 246 283 237 l 285 254 l 285 270 q 293 286 287 279 q 304 299 298 292 q 316 312 311 305 q 322 328 321 319 q 320 334 322 328 q 319 340 319 339 l 319 351 q 320 367 319 360 q 327 382 321 373 q 325 391 327 385 q 321 404 323 397 q 317 417 319 411 q 314 425 315 422 q 312 431 314 426 q 309 442 311 436 q 306 453 307 448 q 304 458 304 458 q 301 463 303 460 q 295 470 298 467 q 290 477 292 473 q 285 482 287 480 q 275 488 282 485 q 267 492 269 492 q 246 498 256 496 q 225 500 236 500 q 202 497 214 500 q 178 492 190 495 q 171 485 176 490 q 159 474 165 479 q 147 465 153 469 q 140 458 142 460 q 119 450 133 454 q 97 445 105 445 q 85 450 89 445 q 78 463 81 456 q 75 478 76 471 q 74 492 75 486 l 74 494 l 74 495 q 75 499 74 496 q 78 506 77 503 q 81 511 80 509 q 82 515 82 514 q 99 543 90 530 q 125 562 109 555 q 144 570 132 565 q 166 578 155 574 q 186 586 178 583 q 196 589 195 589 q 203 590 197 589 q 216 592 209 591 q 231 593 224 593 q 243 595 239 594 l 275 595 l 309 595 q 340 572 326 584 q 370 548 354 559 q 394 529 382 539 q 417 508 407 519 q 433 484 427 497 q 439 454 439 471 l 439 435 q 438 421 439 431 q 436 398 437 410 q 433 375 435 386 q 431 359 432 363 q 411 308 427 330 q 374 265 394 286 q 360 250 370 261 q 337 227 349 239 q 314 204 325 215 q 299 190 303 194 q 297 186 298 189 q 296 180 296 182 l 297 175 q 298 171 298 173 q 299 167 298 168 q 315 142 305 153 q 336 122 325 131 q 360 105 348 113 q 385 87 373 96 q 398 72 391 81 q 411 53 405 63 q 422 34 416 43 q 431 16 427 24 q 434 8 432 13 q 439 0 437 4 q 443 -8 441 -5 q 444 -12 444 -12 q 446 -22 445 -14 q 447 -40 446 -31 q 449 -59 448 -50 q 450 -69 450 -67 q 453 -80 450 -71 q 455 -93 455 -90 l 455 -100 q 451 -126 455 -113 q 441 -150 447 -138 q 427 -173 435 -161 q 413 -195 420 -184 q 407 -205 411 -197 q 404 -215 404 -213 q 388 -233 397 -226 q 369 -245 379 -240 q 349 -255 359 -251 q 327 -265 338 -260 q 323 -271 326 -267 q 319 -276 320 -275 q 310 -279 317 -276 q 295 -284 303 -281 q 280 -291 287 -288 q 272 -294 273 -294 q 265 -297 267 -296 q 262 -298 263 -298 q 259 -299 261 -299 q 252 -299 257 -299 q 240 -296 245 -299 q 229 -294 236 -294 q 228 -294 228 -294 q 227 -294 227 -294 l 225 -294 q 220 -296 224 -294 q 212 -299 216 -297 q 205 -302 208 -301 q 201 -304 202 -304 q 191 -301 199 -304 q 182 -299 183 -299 q 153 -291 166 -295 q 125 -276 140 -288 q 118 -269 123 -274 q 106 -257 112 -263 q 95 -245 100 -251 q 87 -238 90 -240 z "},"4":{"ha":800,"x_min":26,"x_max":822,"o":"m 190 163 q 195 145 190 151 q 208 135 200 138 q 225 129 216 131 q 243 125 235 127 q 250 123 244 125 q 263 118 256 121 q 277 114 271 116 q 285 113 283 113 q 292 112 288 112 q 298 111 295 111 q 302 111 300 111 q 316 112 307 111 q 327 113 326 113 l 348 113 q 368 114 357 113 q 386 118 378 115 q 400 128 394 121 q 407 146 406 134 q 408 157 407 148 q 410 176 409 165 q 411 195 410 186 q 412 206 412 204 q 413 213 412 208 q 416 225 414 219 q 419 238 418 232 q 421 245 420 243 l 421 267 l 421 285 q 419 315 421 299 q 412 339 418 330 q 406 342 410 342 q 397 342 402 342 l 386 342 l 374 342 q 370 340 373 342 q 364 336 367 338 q 358 331 361 333 q 355 328 355 329 q 330 307 341 319 q 310 283 319 296 q 293 257 301 271 q 274 230 284 243 q 252 210 267 220 q 227 193 238 199 q 216 187 222 189 q 204 182 210 185 q 194 175 198 180 q 190 163 190 171 m 412 -321 l 412 -311 q 412 -300 412 -309 q 414 -281 413 -291 q 415 -262 414 -271 q 417 -251 416 -253 q 417 -239 417 -248 q 416 -220 416 -230 q 416 -213 416 -216 q 417 -209 416 -210 q 418 -204 417 -208 q 421 -198 420 -201 q 424 -193 422 -195 q 425 -189 425 -190 l 425 -169 l 425 -146 q 425 -145 425 -146 q 423 -142 423 -144 q 421 -138 422 -140 l 421 -132 l 421 -128 q 422 -125 421 -127 q 423 -119 422 -122 q 425 -113 424 -116 q 425 -109 425 -110 l 425 -81 l 425 -53 q 418 -43 424 -51 q 412 -34 413 -36 q 408 -24 412 -33 q 402 -15 404 -16 q 398 -12 401 -14 q 394 -11 395 -11 q 347 -3 371 -4 q 300 -1 323 -1 l 262 -1 q 243 -1 253 -1 q 224 0 233 -1 q 209 1 220 0 q 183 2 197 1 q 158 4 170 3 q 143 5 146 5 l 136 5 l 130 5 q 99 -2 114 1 q 68 -6 85 -6 l 63 -6 q 37 17 47 5 q 26 48 26 30 q 30 65 26 57 q 39 79 34 73 q 74 119 56 100 q 110 159 92 138 q 115 166 112 161 q 119 172 118 172 q 122 176 120 174 q 128 182 125 179 q 134 189 131 186 q 138 193 136 191 q 149 202 140 195 q 167 219 157 210 q 185 236 176 228 q 195 245 193 243 q 202 252 197 246 q 208 258 208 257 q 213 262 210 259 q 219 270 216 266 q 224 277 222 274 q 227 281 227 281 q 239 292 231 284 q 257 310 248 300 q 274 327 266 319 q 285 339 281 336 q 303 349 298 344 q 311 359 309 354 q 316 370 314 364 q 327 381 319 375 q 372 417 349 398 q 417 456 395 436 q 440 479 427 465 q 470 508 454 494 q 502 531 486 522 q 531 541 517 541 q 541 538 536 541 q 549 532 545 536 q 547 520 547 529 q 547 503 547 512 q 547 486 547 494 q 549 475 547 478 q 550 467 549 472 q 553 460 552 463 q 554 454 553 458 q 554 443 554 449 q 554 432 554 437 q 555 425 555 427 q 554 416 555 421 q 554 405 554 410 q 554 395 554 399 q 553 389 553 390 q 550 379 553 387 q 544 362 547 371 q 538 345 541 353 q 534 334 535 336 q 534 330 534 333 q 534 323 534 327 q 534 306 534 315 q 534 296 534 297 q 534 285 534 292 q 532 269 533 277 q 530 254 531 261 q 530 245 530 248 q 517 189 526 216 q 509 134 509 162 q 510 120 509 130 q 511 106 511 110 q 521 95 515 98 q 535 90 528 92 q 551 88 543 89 q 566 83 559 87 q 644 93 608 87 q 718 106 679 99 q 725 110 719 108 q 732 113 730 111 q 738 113 733 113 q 748 115 743 114 q 758 116 753 115 q 764 117 763 117 q 769 119 765 117 q 779 121 774 120 q 788 124 784 123 q 794 125 793 125 l 795 127 q 799 128 797 128 q 808 125 804 128 q 815 117 812 121 q 820 106 819 112 q 822 96 822 100 q 821 86 822 89 q 817 75 821 84 q 811 60 815 71 q 803 37 807 49 q 794 15 798 25 q 788 0 790 4 q 762 -17 776 -9 q 732 -24 747 -24 q 728 -24 728 -24 q 719 -23 725 -24 q 708 -22 713 -23 q 699 -21 703 -22 q 694 -19 694 -20 q 691 -18 694 -19 q 685 -15 688 -16 q 679 -12 682 -14 q 675 -11 676 -11 l 666 -11 l 642 -11 q 638 -10 642 -11 q 631 -8 635 -9 q 623 -7 627 -7 q 619 -6 620 -6 q 613 -5 618 -6 q 605 -5 608 -5 q 568 -9 585 -5 q 534 -24 550 -13 q 530 -56 531 -39 q 529 -90 529 -73 l 529 -127 q 529 -139 529 -130 q 529 -157 529 -147 q 530 -177 530 -168 q 530 -189 530 -186 q 534 -197 533 -193 q 534 -205 534 -201 q 534 -217 534 -213 q 530 -228 533 -220 q 536 -291 536 -262 q 530 -350 536 -321 q 527 -356 530 -351 q 524 -363 525 -362 q 521 -368 524 -365 q 516 -376 519 -372 q 510 -383 513 -380 q 507 -387 507 -387 q 498 -391 503 -391 q 489 -392 494 -392 l 478 -392 l 465 -392 q 457 -389 463 -391 q 446 -384 452 -387 q 434 -377 439 -380 q 425 -373 428 -374 q 413 -354 413 -366 q 412 -330 412 -343 l 412 -321 z "},"5":{"ha":690,"x_min":1,"x_max":661,"o":"m 1 -177 q 6 -166 1 -172 q 18 -156 12 -161 q 33 -148 25 -151 q 45 -144 40 -144 q 61 -147 54 -144 q 77 -150 68 -150 l 82 -150 q 87 -146 83 -149 q 98 -140 92 -143 q 108 -134 104 -137 q 114 -130 113 -131 q 129 -123 119 -127 q 147 -113 138 -118 q 163 -105 156 -109 q 172 -101 170 -102 q 178 -101 172 -101 q 192 -100 184 -100 q 205 -98 199 -99 q 214 -98 212 -98 q 225 -90 220 -96 q 234 -76 230 -83 q 240 -62 237 -69 q 246 -50 243 -55 q 252 -40 247 -48 q 264 -22 258 -31 q 276 -4 271 -12 q 284 6 282 4 q 287 11 285 7 q 289 16 289 15 l 289 43 q 290 47 289 44 q 291 53 290 50 q 292 59 292 56 q 293 63 293 62 l 293 102 l 293 143 q 291 148 293 145 q 289 153 290 151 q 286 156 288 153 q 281 162 284 159 q 276 168 279 165 q 273 172 274 170 q 272 180 273 173 q 269 195 271 186 q 267 210 268 203 q 265 218 266 216 q 264 223 264 220 q 262 229 263 226 q 260 237 261 233 q 256 242 260 238 q 248 249 252 245 q 241 256 244 253 q 237 260 237 260 q 212 293 223 275 q 184 323 200 311 q 161 336 173 332 q 140 347 150 340 q 125 363 131 353 q 119 393 119 374 q 122 407 119 402 q 130 416 125 412 q 140 422 134 419 q 153 431 146 425 q 162 439 155 433 q 176 454 168 446 q 190 468 183 461 q 199 477 196 475 q 222 488 212 481 q 240 504 232 495 q 255 523 248 513 q 270 545 262 534 q 289 563 278 554 q 313 579 300 572 q 340 591 326 587 q 366 595 353 595 l 379 595 q 386 594 382 595 q 393 591 389 594 q 397 587 393 590 q 404 581 400 585 q 411 575 408 578 q 416 572 415 572 q 425 566 418 570 q 437 557 431 562 q 450 549 444 553 q 458 545 456 545 q 468 539 460 543 q 476 534 475 535 q 484 527 478 532 q 490 521 489 521 q 496 518 492 519 q 501 515 499 516 q 507 513 505 513 q 511 511 509 512 q 514 511 513 511 q 523 507 516 510 q 538 501 530 505 q 553 495 546 498 q 561 492 559 492 l 567 492 q 583 495 576 492 q 596 504 589 499 q 610 512 603 509 q 628 516 618 516 q 642 516 637 516 q 650 513 647 515 q 656 506 654 511 q 661 492 659 501 l 661 489 l 661 487 q 659 480 660 485 q 656 471 658 476 q 653 461 655 466 q 651 454 652 456 q 645 448 649 450 q 636 445 641 446 q 627 444 631 444 q 618 440 622 443 q 602 422 609 432 q 586 405 594 413 q 569 392 578 397 q 545 387 559 387 q 518 391 530 387 q 490 397 506 395 q 484 399 490 398 q 473 400 479 399 q 461 401 467 401 q 453 401 455 401 q 446 407 452 403 q 440 412 441 410 q 434 414 439 412 q 425 418 430 416 q 416 422 420 420 q 412 425 412 425 q 391 438 401 431 q 372 451 382 446 q 352 461 363 457 q 328 465 341 465 q 304 454 315 465 q 293 431 293 444 q 299 398 293 415 q 312 370 304 382 q 315 365 313 368 q 321 359 318 362 q 328 354 325 356 q 331 351 330 351 q 341 329 336 343 q 350 307 345 315 q 365 293 353 300 q 382 280 377 287 q 389 262 389 273 q 393 241 390 251 q 395 237 393 241 q 400 228 397 233 q 404 219 402 223 q 406 214 406 215 q 414 184 411 200 q 420 152 418 168 q 424 119 422 135 q 425 89 425 102 l 425 75 q 424 57 425 66 q 420 40 423 47 q 418 35 420 39 q 413 26 416 31 q 408 17 410 21 q 406 12 406 12 q 406 6 406 10 q 404 -1 405 3 q 402 -8 403 -5 q 401 -12 401 -12 q 384 -50 397 -32 q 359 -83 372 -68 q 294 -155 330 -123 q 214 -205 258 -186 q 152 -221 183 -219 q 88 -224 120 -224 l 48 -224 q 33 -217 41 -221 q 18 -208 24 -213 q 6 -194 11 -202 q 1 -177 1 -186 z "},"6":{"ha":723,"x_min":93,"x_max":762,"o":"m 393 548 q 386 550 393 549 q 372 553 379 552 q 351 557 362 555 q 338 553 345 554 q 325 553 330 553 l 318 553 q 313 552 317 553 q 304 549 309 551 q 296 546 300 547 q 291 545 292 545 q 288 542 289 545 q 286 540 287 541 q 260 496 273 517 q 239 451 248 474 q 224 404 230 428 q 218 353 218 380 q 223 312 218 332 q 229 272 229 292 q 226 258 229 265 q 224 241 224 251 l 224 235 q 224 230 224 232 q 229 223 225 229 q 234 214 230 221 q 244 200 239 208 q 253 185 249 192 q 257 176 256 178 q 260 172 258 176 q 264 163 262 168 q 269 154 267 158 q 271 148 271 149 q 278 136 273 144 q 286 124 283 127 q 293 118 288 121 q 304 114 298 116 q 314 110 309 112 q 323 106 319 108 q 330 102 325 105 q 340 94 334 98 q 350 86 345 90 q 357 82 355 83 q 363 81 357 81 q 375 79 368 80 q 387 78 381 79 q 393 77 392 77 q 398 77 395 77 q 406 75 401 76 q 413 73 410 74 q 416 73 416 73 l 427 73 q 443 74 437 73 q 458 82 450 75 q 464 88 460 82 q 469 96 468 94 q 487 126 478 111 q 504 156 496 140 q 516 187 511 171 q 521 222 521 203 q 516 244 521 233 q 511 265 511 254 q 514 285 511 277 q 516 307 516 292 q 513 343 516 326 q 504 376 509 360 q 491 408 498 392 q 474 440 483 423 q 471 444 473 441 q 467 450 469 447 q 461 456 464 453 q 458 458 459 458 q 449 480 453 468 q 435 501 444 492 q 432 506 435 503 q 425 513 429 509 q 417 520 420 517 q 412 524 413 524 q 406 534 411 526 q 399 545 400 543 q 396 546 398 545 q 393 548 394 548 m 93 337 q 97 386 93 362 q 107 431 100 409 q 122 476 114 454 q 140 521 130 498 q 142 526 140 522 q 144 534 143 530 q 148 543 146 539 q 150 548 149 547 q 154 553 151 549 q 161 562 157 557 q 169 571 165 567 q 174 576 172 575 q 176 582 174 577 q 180 591 178 586 q 184 600 182 596 q 186 604 186 604 q 200 624 193 615 q 215 641 208 633 q 231 657 222 649 q 248 675 239 666 q 254 685 252 680 q 259 695 256 690 q 264 705 261 701 q 271 712 267 709 q 277 715 273 714 q 281 718 281 717 q 285 722 281 719 q 292 730 288 726 q 300 737 296 734 q 304 741 303 741 q 312 745 306 742 q 323 751 317 748 q 335 756 330 754 q 341 759 340 759 q 347 764 342 760 q 356 772 351 768 q 365 779 361 776 q 370 783 369 782 q 377 786 371 784 q 385 789 383 787 q 410 807 399 795 q 435 826 421 819 q 450 832 439 828 q 471 839 460 836 q 492 846 482 843 q 506 850 503 848 q 526 865 514 857 q 551 879 538 872 q 578 892 565 886 q 602 902 591 898 q 606 903 602 902 q 613 904 609 903 q 620 905 616 905 q 625 906 624 906 q 631 908 627 907 q 640 910 635 909 q 650 912 645 911 q 657 915 655 913 q 660 917 658 916 q 664 920 662 918 q 669 923 667 922 q 672 926 671 925 q 695 929 682 928 q 720 929 709 929 q 736 927 731 929 q 744 920 742 924 q 747 910 747 916 q 751 897 748 904 q 756 889 752 895 q 762 882 760 884 l 762 873 q 754 852 762 861 q 738 836 747 843 q 727 827 734 833 q 720 821 720 821 q 711 820 718 821 q 696 819 704 819 q 681 818 688 819 q 672 817 673 817 q 667 814 671 816 q 658 809 663 812 q 649 805 653 807 q 644 802 645 803 q 639 802 643 802 q 631 800 635 801 q 624 799 627 800 q 619 798 620 798 l 610 793 q 606 791 609 793 q 599 786 603 789 q 591 781 595 783 q 587 779 588 779 q 576 778 585 779 q 563 774 566 776 q 527 757 545 767 q 493 736 510 747 q 455 718 475 725 q 416 699 434 711 q 408 686 411 694 q 399 675 404 679 q 383 668 392 671 q 366 660 374 665 q 352 649 357 655 q 346 632 346 642 q 349 608 346 620 q 353 583 351 595 q 359 580 359 581 q 365 580 359 580 q 394 578 378 580 q 415 576 410 576 l 427 576 q 434 574 428 576 q 441 572 440 572 q 448 570 443 571 q 458 567 452 569 q 468 565 463 566 q 474 563 473 564 l 488 548 q 518 527 503 536 q 549 506 534 518 q 557 498 552 504 q 569 487 563 493 q 579 475 574 481 q 587 468 585 470 q 589 463 587 467 q 593 454 591 459 q 598 445 596 449 q 602 440 601 441 q 606 435 602 439 q 613 428 609 432 q 620 420 616 424 q 625 416 624 417 q 627 410 625 415 q 629 401 629 405 q 631 390 629 399 q 634 369 633 380 q 637 349 636 358 q 638 337 638 339 q 641 332 638 336 q 644 328 643 328 q 652 259 652 294 q 652 236 652 249 q 649 214 652 222 q 643 209 647 212 q 638 205 640 205 q 636 198 637 203 q 632 185 634 192 q 628 174 629 179 q 625 167 626 168 q 617 151 622 161 q 607 131 612 141 q 598 112 602 120 q 591 101 593 103 q 555 56 574 75 q 511 20 536 37 q 485 6 500 12 q 453 -3 469 1 q 419 -9 436 -7 q 389 -12 403 -12 q 366 -11 377 -12 q 341 -7 355 -10 q 333 -2 340 -6 q 323 2 326 1 l 307 2 l 299 2 q 291 3 296 2 q 279 6 286 5 q 269 10 273 8 q 263 12 264 12 q 255 16 261 12 q 243 23 250 19 q 232 30 237 26 q 224 35 226 33 q 213 44 220 38 q 198 59 206 51 q 183 73 190 66 q 174 82 176 79 q 168 88 172 83 q 158 100 163 93 q 148 113 153 106 q 140 124 142 120 q 132 136 135 131 q 128 146 130 141 q 124 157 126 151 q 121 172 123 163 q 110 213 115 194 q 101 252 105 233 q 95 292 98 271 q 93 337 93 313 z "},"7":{"ha":732,"x_min":48,"x_max":652,"o":"m 345 -241 q 348 -230 345 -235 q 353 -220 350 -224 q 360 -210 357 -215 q 365 -199 363 -205 q 366 -195 366 -199 q 368 -186 367 -191 q 369 -177 368 -181 q 369 -172 369 -173 q 371 -166 370 -170 q 374 -157 373 -162 q 377 -149 376 -153 q 379 -144 378 -145 q 383 -135 380 -142 q 391 -120 387 -128 q 398 -105 395 -112 q 403 -98 401 -99 q 404 -92 403 -96 q 405 -82 404 -87 q 406 -73 406 -77 q 408 -68 407 -69 q 411 -61 408 -66 q 417 -49 414 -56 q 423 -37 420 -43 q 426 -31 426 -32 q 428 -23 427 -29 q 430 -11 429 -18 q 433 1 432 -5 q 435 7 435 6 q 462 89 449 47 q 486 172 475 131 q 489 181 488 174 q 492 190 490 189 q 493 201 492 192 q 496 221 494 210 q 499 241 498 232 q 501 252 500 250 q 503 256 501 253 q 506 261 504 258 q 509 267 507 264 q 512 271 511 270 q 523 312 518 292 q 538 351 527 331 q 543 358 540 353 q 547 366 545 362 q 553 374 550 370 l 553 454 q 549 470 553 464 q 540 478 545 475 q 527 481 534 481 q 513 482 519 482 l 501 482 q 485 483 498 482 q 458 485 473 484 q 432 486 444 486 q 416 487 419 487 l 414 487 q 362 485 388 487 q 310 482 336 482 l 275 482 q 264 492 269 490 q 254 493 260 493 q 214 489 232 493 q 178 474 195 486 q 170 467 174 472 q 162 458 165 462 l 157 450 q 151 441 156 448 q 139 426 145 434 q 127 412 133 418 q 120 404 122 405 q 111 389 115 397 q 102 374 107 381 q 90 363 96 368 q 73 360 83 359 q 53 373 57 362 q 48 397 48 385 q 49 412 48 406 q 50 425 50 419 l 50 446 q 50 471 50 459 q 54 498 51 484 q 56 501 55 498 q 59 508 58 505 q 62 516 60 512 q 64 521 63 519 q 73 564 71 541 q 81 606 74 586 q 86 615 83 609 q 93 627 90 622 q 101 642 96 634 q 114 650 103 644 q 130 657 124 656 l 138 657 q 156 651 150 657 q 172 642 163 645 q 176 641 172 642 q 183 640 179 641 q 191 639 187 640 q 195 638 194 639 q 204 634 197 637 q 221 628 212 631 q 238 622 230 625 q 248 618 245 619 l 295 618 q 302 617 296 618 q 309 615 308 615 l 369 615 q 377 611 373 612 q 385 610 380 610 q 398 613 393 610 q 410 615 404 615 l 412 615 q 462 606 437 608 q 514 604 488 604 q 542 607 528 604 q 570 610 555 610 l 572 610 q 604 602 589 607 q 629 588 618 597 q 646 567 640 580 q 652 534 652 553 q 646 511 652 524 q 637 487 640 498 q 637 481 637 486 q 636 473 637 477 q 634 464 635 469 q 633 458 633 460 q 630 453 632 458 q 626 443 628 448 q 621 433 623 437 q 618 427 619 428 q 614 394 615 410 q 611 363 613 378 q 605 334 610 349 q 591 307 601 320 q 589 293 591 304 q 587 271 588 283 q 584 249 585 260 q 582 233 583 238 q 579 224 581 231 q 574 208 576 216 q 570 191 572 199 q 567 182 568 184 l 567 170 q 568 152 567 159 q 576 135 569 144 q 572 129 575 133 q 565 120 568 125 q 557 112 561 116 q 553 106 554 108 q 543 78 544 94 q 538 50 542 62 q 536 41 538 48 q 532 26 534 34 q 527 11 529 18 q 525 2 525 4 l 525 -12 q 506 -87 519 -50 q 501 -99 504 -90 q 496 -111 498 -107 q 494 -115 496 -111 q 492 -121 492 -119 q 490 -124 491 -121 q 489 -132 490 -127 q 488 -139 488 -136 q 486 -144 487 -143 q 484 -151 486 -145 q 480 -162 482 -156 q 475 -174 477 -168 q 473 -180 473 -179 q 471 -188 472 -183 q 468 -197 469 -193 q 465 -206 466 -202 q 463 -210 463 -210 q 463 -215 463 -211 q 464 -223 464 -220 q 463 -228 464 -228 q 457 -257 461 -243 q 446 -283 454 -271 q 428 -301 439 -294 q 400 -309 416 -309 l 384 -309 q 381 -307 382 -309 q 379 -304 380 -305 q 369 -290 375 -298 q 358 -275 363 -283 q 349 -258 353 -267 q 345 -241 345 -250 z "},"8":{"ha":695,"x_min":66,"x_max":636,"o":"m 197 664 q 200 655 197 663 q 202 645 202 647 q 203 634 202 643 q 205 616 204 626 q 206 599 205 607 q 207 589 207 591 q 209 585 207 588 q 212 580 211 581 q 248 538 227 553 q 300 524 269 524 q 349 524 326 524 q 400 528 371 525 q 407 532 401 529 q 414 536 412 535 q 418 539 415 537 q 424 544 420 542 q 430 549 427 547 q 434 551 433 551 q 449 553 439 553 q 461 559 458 553 q 477 593 469 576 q 494 627 485 610 q 498 634 496 629 q 503 644 500 639 q 506 652 505 648 q 508 656 508 655 l 508 675 q 504 714 508 696 q 492 749 500 732 q 474 782 485 766 q 452 815 464 798 q 448 818 452 817 q 442 820 444 820 q 424 827 435 823 q 402 834 413 831 q 382 841 391 838 q 372 844 373 844 q 364 844 371 844 q 353 845 357 845 q 340 844 349 845 q 330 844 331 844 q 324 841 328 844 q 320 839 322 840 q 315 838 319 839 q 306 837 311 838 q 297 836 301 836 q 291 834 292 835 q 282 827 290 833 q 272 820 275 821 q 269 817 272 819 q 261 813 265 815 q 254 809 258 811 q 249 806 250 807 q 247 802 248 805 q 243 793 245 798 q 239 784 241 789 q 236 777 237 779 q 234 772 235 776 q 231 764 233 768 q 227 755 229 759 q 225 749 226 751 q 224 737 225 747 q 220 726 222 728 q 217 722 220 725 q 211 716 214 720 q 205 710 208 713 q 202 706 202 707 q 201 700 201 705 q 199 688 200 694 q 198 674 199 681 q 197 664 197 667 m 197 201 q 201 172 197 184 q 211 148 204 159 q 225 126 217 136 q 244 104 234 116 l 259 89 q 262 79 262 85 q 268 71 262 74 q 296 58 281 65 q 326 52 311 52 q 383 57 360 52 q 423 75 406 62 q 452 109 439 88 q 476 159 464 129 q 486 198 483 178 q 489 237 489 217 q 488 270 489 253 q 485 302 488 288 l 484 306 q 481 311 482 309 q 474 319 479 313 q 466 331 470 325 q 457 342 461 337 q 452 349 453 347 q 444 358 448 353 q 433 369 439 363 q 422 377 428 374 q 411 381 416 381 l 391 381 q 379 384 389 381 q 358 387 370 386 q 317 380 338 387 q 278 368 295 373 q 267 360 269 365 q 259 349 264 356 q 256 344 258 347 q 254 339 254 340 q 251 336 254 338 q 245 332 248 334 q 239 328 242 330 q 236 325 237 326 q 230 320 233 323 q 225 315 227 317 q 204 260 212 290 q 197 201 197 230 m 260 -14 q 252 -12 258 -14 q 238 -6 245 -9 q 222 0 230 -3 q 212 5 215 3 q 207 7 210 5 q 200 11 203 9 q 193 16 196 14 q 189 19 190 18 q 185 22 188 19 q 179 28 182 25 q 173 34 176 31 q 170 37 171 37 q 164 41 169 38 q 155 47 160 44 q 146 53 150 50 q 141 58 142 56 q 135 63 139 59 q 126 71 131 66 q 117 79 121 75 q 113 85 113 83 q 93 121 99 102 q 80 159 86 140 q 77 164 79 161 q 74 170 76 168 q 71 178 74 172 q 66 189 67 184 q 68 193 66 191 q 71 198 71 197 q 75 212 72 203 q 80 222 79 220 q 81 229 80 223 q 84 243 83 235 q 87 258 86 250 q 90 269 89 265 q 90 275 90 270 q 92 287 91 281 q 93 299 92 294 q 94 307 94 304 q 102 319 96 314 q 113 330 109 324 q 124 344 117 336 q 140 360 132 352 q 156 376 148 368 q 170 387 163 383 q 178 391 172 388 q 193 398 185 394 q 208 406 201 402 q 217 410 215 409 q 221 413 218 411 q 228 417 224 415 q 235 421 232 419 q 241 424 239 423 l 243 426 q 244 428 243 427 l 244 434 q 240 440 243 435 q 236 447 237 446 q 196 472 216 459 q 158 499 176 485 q 123 531 139 514 q 98 570 108 549 q 86 612 90 589 q 74 656 81 635 q 71 667 74 657 q 66 680 67 676 l 66 680 q 69 693 66 686 q 76 708 72 701 q 84 723 80 716 q 90 734 87 730 q 90 740 90 736 q 92 750 91 745 q 93 759 92 755 q 94 764 94 763 q 124 819 104 796 q 170 859 144 842 q 225 889 196 876 q 284 914 255 902 q 290 913 286 914 q 297 912 293 913 q 303 910 300 911 q 307 909 306 909 q 313 912 307 909 q 320 914 319 914 q 349 918 338 917 q 376 920 361 920 q 415 918 394 920 q 452 914 437 917 q 525 880 493 907 q 583 823 557 854 q 588 821 585 823 q 594 815 591 819 q 599 810 597 812 q 602 806 602 807 q 619 772 616 791 q 625 734 623 753 q 628 719 627 728 q 632 699 630 709 q 635 682 633 689 q 636 675 636 675 q 635 667 636 673 q 632 655 633 662 q 628 642 630 648 q 625 632 627 635 q 590 564 614 591 q 532 513 566 536 q 517 504 527 510 q 496 492 507 498 q 478 480 486 486 q 471 474 471 475 l 471 471 q 502 459 490 469 q 524 434 514 450 q 527 424 524 431 q 532 415 530 416 q 539 410 533 414 q 547 405 546 406 q 562 389 555 397 q 573 371 568 380 q 583 353 578 362 q 593 334 587 343 q 601 328 595 333 q 608 321 606 323 q 609 309 608 319 q 612 296 611 298 q 614 292 612 295 q 617 285 615 289 q 621 277 619 281 q 622 272 622 273 l 622 245 q 620 208 622 229 q 614 167 618 188 q 604 127 610 146 q 589 94 597 108 q 551 53 571 74 q 508 16 530 33 q 460 -13 486 -1 q 405 -24 434 -24 l 400 -24 q 393 -21 399 -24 q 385 -19 388 -19 l 260 -14 z "},"9":{"ha":693,"x_min":-58,"x_max":607,"o":"m 188 339 l 191 216 q 198 192 192 205 q 212 166 204 179 q 229 141 220 153 q 244 122 237 130 q 248 114 244 120 q 254 106 252 108 q 259 101 254 106 q 268 90 263 96 q 278 79 273 84 q 286 71 283 73 q 294 62 288 68 q 300 55 299 57 q 331 43 313 45 q 364 41 349 41 q 389 47 378 41 q 407 62 399 53 q 422 82 416 71 q 437 102 429 92 q 443 110 438 104 q 454 124 448 117 q 464 137 459 131 q 471 146 469 144 q 475 157 472 150 q 479 169 477 164 q 494 234 490 203 q 498 300 498 265 l 498 328 q 497 335 498 330 q 494 346 496 340 q 491 356 492 351 q 490 363 490 361 q 488 370 489 364 q 487 384 488 376 q 485 397 486 391 q 484 405 484 403 q 482 415 484 408 q 479 424 481 422 q 474 430 478 424 q 465 443 470 435 q 455 458 460 450 q 447 471 450 466 q 437 477 443 475 q 429 484 431 479 q 408 508 417 498 q 388 524 398 517 q 365 534 377 530 q 334 541 352 538 l 324 541 q 311 538 318 541 q 296 531 303 535 q 282 522 288 527 q 273 513 276 517 q 268 506 271 511 q 260 496 264 501 q 253 486 256 490 q 249 480 250 481 q 238 467 244 474 q 227 453 232 460 q 217 439 221 446 q 212 424 213 432 q 201 380 205 400 q 188 339 197 361 m -58 -233 q -53 -216 -58 -224 q -40 -199 -47 -207 q -25 -186 -33 -192 q -10 -180 -17 -181 q 0 -179 -8 -180 q 16 -178 7 -178 q 32 -176 24 -177 q 41 -175 39 -176 q 48 -172 43 -174 q 61 -166 54 -169 q 73 -160 67 -163 q 79 -156 78 -157 q 85 -154 80 -156 q 94 -151 91 -153 q 98 -151 94 -151 q 105 -149 101 -150 q 112 -147 109 -148 q 117 -146 116 -146 q 124 -142 119 -146 q 130 -138 130 -138 q 140 -135 132 -137 q 149 -132 148 -134 q 160 -126 155 -130 q 170 -117 165 -121 q 180 -109 175 -113 q 191 -104 186 -105 q 198 -104 193 -104 q 209 -102 203 -103 q 219 -100 214 -101 q 225 -100 224 -100 q 232 -95 227 -98 q 238 -89 237 -91 q 246 -86 240 -89 q 258 -81 252 -84 q 270 -75 264 -78 q 277 -72 276 -73 q 282 -67 278 -71 q 286 -62 286 -63 q 289 -54 287 -60 q 291 -47 290 -48 q 295 -43 292 -46 q 301 -36 298 -40 q 306 -28 304 -32 q 309 -24 309 -25 q 311 -18 311 -24 q 311 -9 311 -12 q 311 -1 311 -7 q 309 5 311 5 q 300 11 309 6 q 286 18 292 16 q 279 20 284 18 q 269 23 275 21 q 259 26 264 24 q 254 28 254 27 q 239 37 248 31 q 222 51 231 43 q 205 67 213 59 q 191 79 197 75 q 185 85 191 80 q 174 95 180 90 q 162 105 168 100 q 155 113 157 111 q 149 118 153 115 q 141 125 145 121 q 134 132 137 129 q 130 136 131 135 q 129 139 130 136 q 126 145 128 142 q 123 151 125 148 q 121 155 121 154 q 112 162 118 161 q 102 169 106 163 q 100 173 102 170 q 98 181 99 177 q 95 188 96 184 q 94 193 94 191 q 91 197 92 193 q 90 202 90 201 q 76 235 79 218 q 73 270 73 252 q 73 290 73 279 q 74 311 74 300 l 74 371 q 76 379 74 374 q 79 386 79 385 q 92 423 87 404 q 102 460 96 441 q 105 466 103 463 q 107 471 107 469 q 114 475 108 471 q 121 480 120 478 q 124 483 121 480 q 129 489 126 486 q 134 495 132 492 q 136 498 136 498 q 209 555 169 536 q 296 588 248 574 q 301 590 297 588 q 310 593 305 591 q 319 596 315 595 q 324 597 323 597 q 329 598 324 598 q 336 598 333 598 q 353 595 345 598 q 370 588 361 592 q 387 580 378 584 q 405 574 395 576 l 431 574 l 441 574 q 446 572 442 574 q 452 569 449 570 l 455 564 q 466 556 458 561 q 475 550 473 551 q 485 548 477 550 q 494 545 493 547 q 500 541 495 545 q 507 536 506 538 q 530 515 519 525 q 548 495 540 505 q 564 473 557 485 q 578 447 572 461 q 580 443 578 446 q 583 434 581 439 q 586 425 585 429 q 588 418 587 420 q 588 414 588 417 q 589 407 589 411 q 591 399 590 403 q 593 394 591 395 q 595 391 593 394 q 600 386 597 389 q 604 380 602 382 q 607 376 606 377 l 607 368 q 604 347 607 357 q 601 328 601 337 q 604 310 601 317 q 607 293 607 303 l 607 281 q 605 275 607 280 q 602 269 602 270 l 602 249 l 602 202 q 600 191 602 200 q 596 178 598 182 q 594 171 596 177 q 593 164 593 165 q 590 156 591 162 q 587 143 589 150 q 585 130 586 136 q 583 122 584 123 q 574 112 582 119 q 564 102 566 105 q 548 78 554 90 q 535 53 541 65 q 522 29 529 41 q 503 5 514 17 q 457 -40 480 -20 q 408 -81 433 -60 q 404 -85 408 -81 q 397 -93 401 -88 q 390 -100 393 -97 q 385 -104 387 -104 q 379 -108 384 -105 q 367 -114 374 -111 q 355 -120 361 -117 q 347 -123 349 -123 q 345 -126 347 -123 q 339 -133 342 -130 q 333 -139 336 -136 q 329 -142 330 -142 q 324 -144 328 -143 q 317 -145 321 -144 q 309 -146 313 -145 q 305 -146 306 -146 q 297 -151 300 -149 q 291 -157 294 -154 q 285 -164 288 -160 q 277 -170 282 -168 q 268 -176 276 -172 q 258 -180 260 -180 q 252 -183 257 -180 q 242 -190 248 -186 q 232 -195 237 -193 q 225 -198 227 -198 q 195 -214 212 -206 q 164 -228 178 -222 q 154 -229 163 -228 q 144 -233 146 -231 q 137 -234 143 -233 q 130 -236 132 -236 q 124 -241 130 -236 q 117 -245 119 -245 q 111 -246 116 -245 q 100 -248 106 -247 q 88 -250 94 -249 q 79 -251 82 -250 l 52 -251 l 41 -251 q 32 -255 39 -251 q 24 -259 25 -259 l 8 -259 q -10 -257 1 -259 q -32 -253 -21 -256 q -50 -244 -42 -250 q -58 -233 -58 -239 z "}," ":{"ha":298,"x_min":0,"x_max":0,"o":""},"!":{"ha":402,"x_min":108,"x_max":300,"o":"m 136 463 l 136 463 q 140 473 137 465 q 145 482 143 481 l 145 511 q 141 555 145 534 q 136 600 137 576 l 136 664 q 134 674 136 666 q 131 693 133 683 q 127 711 129 703 q 126 722 126 720 l 126 728 q 129 742 126 735 q 131 755 131 748 l 131 758 q 130 773 130 764 q 128 791 129 782 q 127 806 127 800 q 126 814 126 813 q 125 818 126 815 q 124 824 125 821 q 122 830 123 827 q 121 833 121 833 l 121 836 l 121 838 q 122 843 121 838 q 124 852 123 847 q 125 860 125 857 q 126 865 126 864 l 126 974 q 135 1003 127 987 q 153 1034 142 1019 q 177 1058 163 1048 q 206 1067 191 1067 q 247 1053 230 1067 q 277 1021 263 1039 q 281 1010 277 1017 q 285 1002 285 1003 l 285 994 l 285 974 q 287 966 285 972 q 290 958 290 960 l 290 955 q 290 952 290 954 q 290 950 290 951 q 290 945 290 949 q 290 940 290 941 q 288 920 290 936 q 286 886 287 905 q 282 852 284 868 q 280 833 281 837 l 280 797 q 276 786 280 793 q 272 777 272 779 q 271 771 271 776 q 269 762 270 767 q 267 752 268 757 q 266 744 267 747 q 263 700 264 722 q 261 654 261 677 q 264 626 261 640 q 267 597 267 612 q 267 584 267 594 q 266 570 267 574 q 253 548 258 562 q 248 524 248 534 q 249 519 248 524 q 251 510 250 515 q 252 501 252 505 q 253 495 253 496 q 252 491 253 494 q 251 484 252 488 q 250 475 250 479 q 248 468 249 471 q 245 461 247 467 q 243 454 243 456 q 238 430 240 443 q 232 407 236 418 q 219 390 227 397 q 197 382 211 382 q 176 391 186 382 q 156 412 165 399 q 141 438 147 424 q 136 463 136 452 m 155 5 q 151 8 153 5 q 145 13 148 10 q 139 19 142 16 q 136 24 136 22 q 133 31 136 24 q 131 37 131 37 q 125 46 129 43 q 117 53 121 50 q 111 58 113 56 q 108 64 108 61 l 108 71 q 109 84 108 75 q 110 102 109 93 q 111 118 111 111 q 112 125 112 125 q 118 142 113 134 q 131 156 123 149 q 145 168 138 162 q 159 177 153 173 q 164 178 161 178 q 172 178 168 178 q 179 178 176 178 q 185 178 183 178 q 217 176 200 178 q 250 167 234 173 q 278 151 265 161 q 300 125 292 140 l 300 102 q 300 91 300 98 q 299 76 300 83 q 298 62 298 68 q 295 52 297 55 q 291 48 295 52 q 283 39 288 44 q 274 28 279 34 q 266 19 269 22 q 251 4 260 13 q 232 -5 241 -5 l 229 -5 q 220 -2 228 -5 q 210 0 212 0 q 198 1 206 1 q 182 3 191 2 q 165 4 174 3 q 155 5 157 5 z "},"\"":{"ha":690,"x_min":52,"x_max":644,"o":"m 64 598 q 68 624 64 615 q 79 638 73 633 q 95 647 86 643 q 113 659 103 651 q 122 669 116 663 q 136 683 129 676 q 148 695 142 690 q 154 703 153 701 q 174 733 165 716 q 183 768 183 751 q 183 778 183 772 q 181 789 182 783 q 177 799 180 794 q 169 805 174 803 q 163 806 168 806 q 153 808 158 807 q 142 810 147 809 q 136 810 138 810 q 120 816 127 812 q 106 824 113 819 q 95 834 100 829 q 83 847 90 840 q 74 858 79 853 q 66 866 70 862 q 58 874 62 870 q 52 886 54 879 l 52 909 q 54 938 52 926 q 62 959 56 949 q 78 975 68 968 q 103 988 88 981 q 115 993 108 990 q 130 999 123 996 q 143 1004 137 1002 q 150 1008 149 1007 l 162 1008 q 189 1002 172 1008 q 224 988 206 996 q 257 969 242 979 q 276 951 271 960 q 278 947 276 951 q 281 939 279 943 q 284 932 283 935 q 286 928 286 928 q 292 913 288 922 q 300 896 296 905 q 307 878 304 886 q 310 863 310 869 q 307 845 310 853 q 304 828 304 838 q 307 809 304 819 q 310 791 310 800 q 309 767 310 777 q 305 745 309 758 q 302 742 304 744 q 299 741 300 741 q 276 694 288 718 q 248 651 264 669 q 231 634 241 644 q 220 612 220 625 q 207 608 217 611 q 193 604 196 606 q 187 604 191 604 q 178 602 183 603 q 170 600 174 601 q 164 600 165 600 q 160 597 163 599 q 154 594 157 596 q 149 591 151 593 q 146 589 146 589 q 137 587 143 589 q 125 584 132 586 q 114 582 119 583 q 106 581 109 581 l 92 581 l 75 581 q 66 588 67 583 q 64 598 64 593 m 399 598 q 403 624 399 615 q 414 638 407 633 q 429 647 420 643 q 447 659 437 651 q 457 669 450 663 q 470 683 463 676 q 482 695 477 690 q 488 703 487 701 q 509 733 500 716 q 517 768 517 751 q 517 778 517 772 q 515 789 517 783 q 511 799 514 794 q 503 805 509 803 q 497 806 502 806 q 487 808 492 807 q 477 810 481 809 q 471 810 472 810 q 454 816 461 812 q 441 824 447 819 q 429 834 435 829 q 418 847 424 840 q 409 858 413 853 q 400 866 404 862 q 392 874 396 870 q 386 886 389 879 l 386 909 q 388 938 386 926 q 397 959 391 949 q 413 975 403 968 q 437 988 422 981 q 450 993 442 990 q 464 999 457 996 q 477 1004 471 1002 q 484 1008 483 1007 l 496 1008 q 523 1002 506 1008 q 558 988 541 996 q 591 969 576 979 q 610 951 606 960 q 612 947 610 951 q 615 939 614 943 q 618 932 617 935 q 621 928 620 928 q 627 913 623 922 q 635 896 631 905 q 642 878 639 886 q 644 863 644 869 q 641 845 644 853 q 638 828 638 838 q 641 809 638 819 q 644 791 644 800 q 644 767 644 777 q 640 745 643 758 q 636 742 638 744 q 633 741 635 741 q 611 694 623 718 q 582 651 599 669 q 565 634 576 644 q 555 612 555 625 q 541 608 551 611 q 527 604 530 606 q 522 604 526 604 q 513 602 517 603 q 504 600 508 601 q 498 600 500 600 q 495 597 498 599 q 489 594 492 596 q 483 591 486 593 q 480 589 480 589 q 472 587 477 589 q 460 584 466 586 q 448 582 454 583 q 441 581 443 581 l 426 581 l 410 581 q 400 588 401 583 q 399 598 399 593 z "},"#":{"ha":1115,"x_min":51,"x_max":1073,"o":"m 520 111 q 524 131 520 121 q 533 148 528 140 q 543 166 538 157 q 549 185 547 175 q 550 202 549 196 q 553 212 551 208 q 556 219 554 216 q 559 227 557 222 q 563 234 561 229 q 568 245 566 238 q 570 255 569 252 q 572 262 570 259 q 576 270 573 266 q 586 283 579 275 q 585 291 585 288 q 585 298 585 294 q 585 307 585 302 q 586 319 585 312 q 588 326 586 322 q 591 332 591 329 l 589 332 q 588 333 589 332 q 585 333 587 333 q 553 331 575 333 q 497 323 530 328 l 433 332 q 416 326 416 332 l 372 326 q 363 309 372 314 q 357 303 360 307 q 351 299 354 299 q 351 290 351 294 q 351 283 351 286 q 349 262 351 269 q 342 254 347 256 q 341 217 342 232 q 337 193 340 201 q 329 185 336 191 q 319 178 321 180 q 312 163 313 170 q 311 148 311 157 q 311 136 311 138 q 306 123 309 127 q 300 117 302 119 q 295 111 297 114 q 290 98 292 107 l 254 85 q 244 92 250 85 q 232 106 238 98 q 222 122 226 115 q 218 130 218 129 q 220 150 218 141 q 227 166 223 158 q 234 182 231 174 q 240 201 238 191 q 242 211 241 203 q 246 222 243 218 q 252 240 247 231 q 260 260 257 248 q 260 266 260 262 q 261 276 260 271 q 262 285 262 281 q 263 291 263 290 q 273 301 264 294 q 282 313 281 309 q 282 320 282 316 q 279 325 281 325 q 257 316 267 319 q 246 313 247 313 q 240 315 243 315 q 235 315 238 315 q 222 313 228 315 q 211 309 216 311 q 200 306 205 307 q 187 304 194 304 l 142 310 q 124 306 129 307 q 117 305 120 305 q 97 307 108 305 q 75 312 85 308 q 58 322 65 315 q 51 340 51 329 q 54 354 51 346 q 63 370 58 362 q 74 384 68 378 q 84 393 79 391 q 139 400 117 398 q 181 401 161 401 q 211 401 197 401 q 241 400 226 401 q 263 394 258 395 q 271 393 269 393 q 314 417 301 402 q 332 451 327 432 q 340 493 337 471 q 355 540 343 515 q 360 548 357 545 q 367 552 364 550 q 373 558 370 555 q 375 568 375 561 q 374 570 374 568 q 374 572 374 571 q 367 573 369 572 q 362 574 364 573 q 356 576 359 575 q 347 578 353 577 q 339 576 342 577 q 330 576 336 576 l 304 581 q 292 578 298 581 q 280 571 286 575 q 268 565 274 568 q 254 562 261 562 l 212 572 q 194 567 198 569 q 186 566 189 566 q 166 567 177 566 q 145 573 155 569 q 128 584 135 577 q 121 603 121 591 q 124 616 121 608 q 132 632 127 624 q 142 647 136 640 q 153 656 148 653 l 172 656 l 311 663 l 337 654 q 357 660 347 654 q 380 667 368 665 q 390 665 383 667 q 398 663 397 663 q 400 664 399 663 q 402 667 402 666 q 430 726 418 693 q 448 789 441 758 l 448 806 q 451 813 448 809 q 456 821 454 818 q 464 831 462 827 q 467 844 467 836 q 472 872 467 859 q 486 897 477 885 q 507 918 495 908 q 531 935 518 928 q 547 929 541 935 q 557 915 553 923 q 562 898 561 906 q 564 886 564 890 q 558 873 564 877 q 552 865 552 869 q 556 850 555 859 q 559 838 558 841 q 557 827 559 831 q 552 819 555 823 q 545 813 549 816 q 539 806 542 810 q 536 798 538 804 q 532 782 534 791 q 528 766 530 774 q 526 754 526 758 q 523 726 526 737 q 513 706 519 715 q 503 688 508 696 q 494 667 497 680 l 586 663 l 637 663 q 661 663 648 663 q 685 665 673 663 q 707 670 697 667 q 724 678 718 673 q 729 691 724 679 q 738 718 733 703 q 748 746 743 732 q 751 762 752 759 l 751 783 q 756 790 753 787 q 764 797 760 793 q 772 804 768 800 q 775 813 775 808 q 779 843 775 829 q 788 869 783 857 q 801 893 794 882 q 812 915 807 904 q 821 917 817 916 q 829 918 825 918 q 845 916 838 918 q 851 911 851 913 q 863 893 857 900 q 872 882 869 886 q 870 873 872 879 q 865 861 868 867 q 861 849 863 854 q 859 844 859 844 q 859 830 859 836 q 859 821 859 825 q 858 810 859 814 q 856 804 857 807 q 851 799 854 802 q 844 791 848 796 q 840 783 841 787 q 838 773 839 779 q 835 762 837 768 q 829 746 833 755 l 833 724 q 832 711 833 718 q 829 698 831 705 q 824 686 827 691 q 816 678 821 680 l 862 682 q 875 676 869 682 q 890 671 880 671 q 906 676 897 671 q 925 682 914 682 l 994 678 l 1046 682 q 1064 670 1059 682 q 1073 649 1070 659 q 1033 615 1055 627 q 984 603 1011 603 q 974 603 976 603 q 972 604 972 603 q 946 599 958 602 q 931 595 934 596 q 923 591 928 593 q 911 589 918 589 q 897 595 903 589 q 883 593 886 593 q 876 593 879 593 q 852 593 859 593 q 844 595 846 593 q 822 584 830 587 q 803 581 814 581 q 785 584 791 584 q 777 585 780 585 q 760 563 766 574 q 751 541 754 552 q 747 517 748 529 q 743 490 746 505 q 734 474 741 484 q 721 455 728 465 q 710 438 715 446 q 705 427 705 430 q 708 418 706 422 q 711 412 709 413 q 728 415 718 414 q 751 418 739 417 q 774 419 763 419 q 793 420 785 420 l 820 412 q 836 416 827 412 q 856 420 845 420 l 925 415 l 977 420 q 996 409 989 420 q 1005 389 1002 398 q 915 340 971 340 q 907 342 911 340 q 902 344 903 344 q 893 340 901 344 q 883 337 886 337 q 872 335 878 337 q 861 332 866 334 q 844 328 851 328 q 833 330 838 329 q 825 332 829 331 q 820 332 821 332 q 813 331 817 331 q 806 331 810 331 q 781 331 785 331 q 775 332 776 331 q 754 320 763 321 q 735 318 745 318 l 682 328 q 677 318 677 325 q 676 305 676 311 l 654 254 q 652 245 653 251 q 650 235 650 240 q 649 224 649 229 q 648 217 648 219 q 646 195 648 203 q 640 180 644 187 q 630 166 636 174 q 616 148 625 159 q 613 137 613 140 q 614 126 613 130 q 614 119 614 123 q 614 115 614 117 q 613 111 613 113 q 607 102 612 109 q 599 95 602 96 q 596 85 598 92 q 594 76 594 79 q 577 68 585 71 q 558 66 568 66 q 548 72 554 66 q 535 85 541 77 q 525 100 529 92 q 520 111 520 107 m 503 595 q 473 592 484 595 q 456 582 462 589 q 448 563 450 574 q 444 535 446 552 q 436 508 443 517 q 429 498 429 498 q 428 494 429 497 q 427 486 427 490 q 426 479 426 482 q 425 475 425 475 q 415 463 420 467 q 407 456 410 458 q 400 450 403 454 q 398 439 398 447 q 396 420 396 437 l 396 400 l 511 407 q 528 406 515 407 q 573 400 541 405 q 603 401 589 400 q 629 407 618 401 q 634 421 630 407 q 643 454 638 435 q 653 489 648 472 q 660 513 658 507 q 663 518 662 517 q 666 519 665 519 q 670 520 668 519 q 674 524 672 521 q 686 583 686 548 q 668 598 675 595 q 650 601 660 601 l 566 585 l 503 595 z "},"$":{"ha":758,"x_min":82,"x_max":675,"o":"m 322 606 q 323 603 322 604 q 326 601 325 602 q 334 657 328 627 q 330 667 333 660 q 326 680 327 675 l 334 709 q 330 725 334 716 q 326 744 326 733 l 330 810 l 327 874 l 322 874 q 282 844 301 861 q 246 808 263 827 l 246 799 q 244 779 246 787 q 241 758 241 770 l 241 751 q 244 742 241 749 q 246 733 246 734 q 247 713 247 722 q 248 696 247 704 q 252 680 249 688 q 260 662 254 671 q 264 659 262 661 l 271 652 q 280 644 273 650 q 296 629 288 637 q 312 614 304 621 q 322 606 320 608 m 401 397 l 399 397 q 399 399 399 397 l 399 392 q 404 357 399 375 q 408 321 408 339 l 406 299 q 405 273 406 282 q 405 258 405 263 q 405 252 405 254 q 404 249 404 250 q 410 232 406 245 q 416 201 413 218 q 422 170 420 184 q 425 150 425 155 l 415 116 q 417 101 415 106 q 418 89 418 96 l 417 83 q 441 92 430 86 q 463 101 452 98 q 473 104 465 102 q 482 106 481 106 q 489 112 483 106 q 497 119 494 117 q 502 125 498 121 q 508 133 505 130 q 513 140 511 137 q 516 143 515 142 q 516 148 516 144 q 517 155 517 151 q 519 163 518 159 q 521 167 519 166 q 522 171 521 168 q 525 177 524 174 q 528 183 526 180 q 529 186 529 186 q 530 192 530 188 q 532 200 531 196 q 533 209 532 205 q 534 214 534 212 q 531 224 534 216 q 529 233 529 232 q 528 245 528 236 q 526 264 527 254 q 525 282 526 274 q 524 294 524 291 q 519 303 524 298 q 510 316 515 309 q 500 328 505 322 q 491 337 494 334 q 473 356 484 347 q 450 370 462 365 q 442 373 448 371 q 435 374 436 374 q 431 378 434 375 q 424 384 427 381 q 416 390 420 387 q 412 393 413 393 q 407 396 410 394 q 401 397 404 397 m 347 -45 l 347 -11 q 293 -7 321 -9 q 241 2 266 -4 q 229 8 235 4 q 218 16 224 12 q 207 24 212 20 q 195 31 201 28 q 179 36 190 33 q 157 44 168 40 q 136 52 146 48 q 124 58 127 56 q 117 67 122 61 q 105 80 111 73 q 94 93 99 87 q 87 101 89 99 q 83 116 83 110 q 82 132 82 122 q 85 159 82 146 q 91 186 87 173 q 99 211 95 199 q 105 237 102 224 q 112 269 109 253 q 129 294 115 285 q 136 296 131 295 q 148 297 142 296 q 159 298 154 298 q 166 299 164 299 q 174 296 169 299 q 180 290 179 292 q 197 254 191 270 q 213 214 203 237 l 218 177 q 223 163 220 169 q 232 153 227 157 q 242 144 237 149 q 252 135 247 140 q 261 121 257 128 q 269 108 264 114 q 281 97 274 102 q 299 93 288 93 q 316 90 303 92 q 343 87 328 88 q 341 132 343 110 q 337 170 340 151 q 334 211 334 189 l 345 237 q 339 253 345 245 q 334 272 334 260 q 338 322 337 300 q 339 365 339 344 q 338 397 339 380 q 335 431 337 414 l 335 439 q 325 445 331 441 q 317 450 319 449 q 278 475 297 461 q 241 504 260 490 q 204 533 223 519 q 166 558 186 547 q 157 571 163 562 q 145 591 151 581 q 132 611 138 602 q 124 624 126 621 q 121 629 123 625 q 116 638 119 633 q 112 646 114 642 q 110 652 111 650 l 110 688 q 112 739 110 713 q 119 789 113 765 q 139 830 125 808 q 171 872 153 852 q 209 909 189 893 q 246 932 229 925 q 251 932 247 932 q 260 933 255 932 q 270 934 265 933 q 275 935 274 935 q 283 937 277 935 q 296 940 290 938 q 309 943 303 942 q 317 945 315 945 l 323 945 l 321 1008 q 323 1021 321 1013 q 334 1031 325 1029 q 349 1033 343 1032 q 360 1034 355 1034 q 378 1031 372 1034 q 391 1027 385 1028 q 393 1015 391 1024 q 394 1000 394 1005 q 399 970 399 1000 l 404 945 l 416 945 q 429 941 422 942 q 443 939 436 940 q 455 937 449 938 q 468 932 462 935 q 473 926 469 930 q 477 921 476 922 q 507 893 491 904 q 547 882 524 882 q 571 887 563 882 q 585 897 579 891 q 595 907 590 903 q 612 911 601 911 q 621 910 618 911 q 629 902 624 909 q 633 895 630 900 q 638 883 635 889 q 644 872 642 877 q 648 865 646 867 l 648 855 q 646 851 647 854 q 644 844 645 848 q 642 836 643 840 q 642 832 642 833 l 642 776 q 630 752 633 763 q 623 728 628 741 q 619 719 623 726 q 614 710 616 711 q 609 695 611 701 q 603 684 606 688 q 592 677 599 680 q 574 675 586 675 q 549 682 559 675 q 532 697 538 688 q 523 719 526 707 q 515 744 519 731 q 508 768 512 756 q 497 789 504 780 q 491 795 496 790 q 481 807 487 801 q 471 819 476 813 q 463 827 466 825 q 452 838 460 831 q 437 852 445 845 q 420 864 429 859 q 407 869 412 869 l 391 869 l 391 863 l 399 793 l 394 767 q 398 753 397 758 q 400 746 399 749 q 401 742 401 743 q 401 741 401 741 q 399 728 401 731 q 394 718 398 724 q 401 699 398 713 q 407 667 405 684 q 411 634 410 650 q 412 612 412 618 l 402 556 q 432 542 416 548 q 463 535 448 535 q 532 490 496 513 q 600 440 569 466 q 605 435 602 439 q 610 431 608 432 q 612 426 610 429 q 616 417 614 422 q 620 408 618 412 q 623 404 622 404 q 646 371 634 386 q 665 337 659 357 q 666 331 665 336 q 668 320 667 326 q 669 310 669 315 q 671 304 670 304 q 673 296 671 302 q 675 280 675 290 q 671 261 675 269 q 665 241 667 254 q 665 228 665 239 q 666 205 666 216 q 665 190 666 193 q 663 186 665 189 q 659 179 661 182 q 654 172 656 175 q 652 167 652 168 q 646 155 650 165 q 635 134 641 145 q 625 113 629 123 q 618 101 620 103 q 613 95 618 100 q 603 84 609 90 q 591 72 597 78 q 582 63 585 66 q 537 29 560 43 q 487 7 514 14 q 474 4 484 6 q 453 0 465 2 q 429 -5 441 -3 q 408 -9 417 -7 q 412 -28 410 -19 q 415 -50 414 -38 q 411 -56 414 -55 q 409 -63 409 -58 q 408 -75 409 -68 q 404 -87 408 -81 q 394 -96 401 -92 q 374 -100 387 -100 q 358 -97 364 -100 q 347 -81 353 -94 l 347 -45 z "},"%":{"ha":1057,"x_min":67,"x_max":981,"o":"m 331 20 q 321 8 328 14 q 309 -4 315 2 q 292 -18 301 -12 l 283 -18 q 269 -17 276 -18 q 257 -13 262 -16 q 246 -6 251 -11 q 238 7 241 -1 q 234 18 235 13 q 232 25 232 24 q 233 34 232 31 q 235 42 233 38 q 240 50 237 45 q 248 62 243 55 l 246 60 q 249 65 248 62 q 252 70 251 67 l 293 122 q 320 151 307 138 q 343 182 334 163 q 385 237 368 216 q 416 275 401 258 q 445 311 430 292 q 482 359 460 330 q 515 402 500 383 q 541 436 529 421 q 562 464 553 452 q 581 486 572 475 l 580 485 q 607 523 592 504 q 633 558 622 542 l 649 575 q 653 581 650 577 q 658 589 656 585 l 658 588 q 694 638 673 614 q 738 689 716 663 l 798 758 q 804 760 802 759 q 808 762 806 761 q 813 764 810 763 q 820 766 815 765 q 843 754 834 765 q 852 730 852 744 q 851 723 851 726 q 851 715 851 720 q 846 698 850 707 q 837 681 842 689 q 826 665 832 673 q 815 650 820 657 q 800 637 810 648 q 780 606 789 625 q 738 547 755 570 q 704 506 720 525 q 671 466 688 486 q 633 415 654 446 l 635 422 q 631 415 634 420 q 623 404 627 409 l 624 405 q 600 376 609 387 q 583 354 590 366 q 575 342 579 349 q 562 326 570 336 l 538 298 q 522 275 533 290 q 499 247 511 261 q 478 220 487 232 q 469 203 469 208 q 457 188 461 193 q 449 176 452 182 q 439 162 445 170 q 424 141 434 155 q 415 132 418 134 q 410 127 412 129 q 404 115 407 122 q 398 104 401 108 q 387 91 392 98 q 376 77 381 84 l 376 78 q 367 65 370 69 q 360 56 364 61 q 350 43 356 51 q 330 18 343 35 l 331 20 m 770 275 q 774 277 776 277 q 770 275 773 276 l 770 275 m 769 74 q 771 75 769 75 l 773 74 q 775 73 774 73 q 777 71 775 72 q 779 70 777 71 l 769 74 m 681 170 q 690 145 681 159 q 707 123 699 132 q 725 107 715 115 q 744 93 734 99 q 760 81 753 86 q 770 75 768 77 q 775 76 774 75 l 780 77 q 786 77 783 77 q 793 77 789 77 l 804 77 q 824 83 812 77 q 845 101 836 89 q 848 102 846 101 q 850 103 850 102 q 872 120 865 111 q 887 147 880 130 q 891 150 890 146 q 894 156 893 153 q 895 164 895 160 q 897 170 895 168 q 892 188 895 178 q 885 209 889 199 q 874 229 880 220 q 859 246 867 239 q 848 259 852 250 q 840 269 842 268 q 833 273 838 270 q 828 275 829 275 l 797 275 q 790 276 794 275 q 785 277 786 277 q 778 276 783 277 q 769 274 772 275 q 750 260 755 264 q 734 256 745 256 q 732 254 734 256 q 726 249 729 252 q 720 245 723 247 q 718 243 718 243 l 694 243 q 695 239 696 241 q 692 236 693 237 l 690 234 q 688 231 689 233 q 686 230 687 230 q 687 225 686 229 q 688 220 688 222 l 688 214 q 687 196 688 205 q 685 178 686 186 q 683 173 684 177 q 681 170 682 171 m 608 203 q 611 233 608 220 q 617 254 614 245 q 625 267 621 262 q 628 271 628 271 q 629 275 628 273 q 629 278 629 277 q 629 279 629 279 l 636 287 q 662 310 650 298 q 690 331 673 321 q 712 343 698 341 q 741 353 726 346 q 748 355 743 354 q 757 357 752 356 q 767 359 762 358 q 773 361 771 360 l 780 361 q 804 359 793 361 q 826 355 814 357 l 846 355 q 861 349 855 353 q 874 340 867 344 q 917 316 897 331 q 951 282 937 301 q 973 239 965 262 q 981 191 981 216 l 981 180 q 979 173 981 178 q 974 163 977 168 l 974 130 q 961 87 972 109 q 932 47 949 65 q 893 16 916 28 q 848 1 871 3 q 822 -4 836 -4 q 802 -7 809 -5 l 797 -9 l 785 -9 l 768 -3 l 764 -3 q 760 -3 762 -3 q 757 -3 758 -3 l 751 -3 q 734 0 743 -3 q 717 7 725 3 q 702 18 709 12 q 690 28 694 24 l 678 39 q 672 42 675 41 q 668 43 669 43 q 649 62 658 52 q 633 84 640 73 q 622 105 626 95 q 615 123 617 115 q 614 136 615 126 q 612 159 613 146 q 609 183 610 171 q 608 203 608 195 m 230 668 q 234 670 235 671 q 230 668 233 669 l 230 668 m 229 467 q 231 468 229 468 l 233 467 q 234 466 234 467 q 236 465 235 465 q 238 463 237 464 l 229 467 m 140 563 q 150 539 140 552 q 166 517 159 526 q 184 500 174 509 q 203 486 194 492 q 220 475 212 479 q 229 469 227 470 q 235 469 233 469 l 239 471 q 246 470 243 471 q 252 470 249 470 l 263 470 q 283 476 271 470 q 304 494 295 482 q 308 495 305 494 q 310 496 310 496 q 332 514 324 505 q 347 541 339 523 q 351 543 349 540 q 353 550 353 546 q 354 557 354 553 q 356 563 355 562 q 351 582 354 571 q 344 603 349 592 q 333 623 340 613 q 318 640 327 632 q 307 652 312 644 q 299 662 302 661 q 292 667 297 663 q 288 669 289 668 l 256 669 q 250 670 254 669 q 244 671 245 671 q 237 670 243 671 q 229 667 232 669 q 210 654 215 658 q 194 650 205 650 q 191 647 194 649 q 185 643 189 645 q 180 638 182 640 q 178 636 177 636 l 154 636 q 154 633 156 635 q 151 629 153 631 l 150 627 q 148 625 149 626 q 145 623 146 623 q 146 619 145 622 q 147 614 147 616 l 147 608 q 146 589 147 598 q 144 572 146 580 q 142 566 144 570 q 140 563 142 564 m 67 597 q 70 626 67 614 q 77 647 73 639 q 84 660 81 656 q 87 665 87 665 q 88 669 87 667 q 89 671 88 670 q 89 673 89 672 l 96 680 q 121 703 109 692 q 150 724 133 714 q 171 737 157 734 q 201 747 185 739 q 207 748 203 747 q 217 750 212 749 q 226 752 222 751 q 233 754 231 753 l 239 754 q 263 752 253 754 q 286 748 273 751 l 305 748 q 320 742 315 747 q 334 734 326 737 q 376 709 357 724 q 410 675 396 694 q 432 633 425 656 q 440 585 440 610 l 440 574 q 438 567 440 572 q 433 557 436 562 l 433 524 q 420 480 431 502 q 392 440 409 458 q 353 409 375 422 q 307 394 331 397 q 282 389 295 389 q 262 386 269 389 l 256 385 l 245 385 l 228 391 l 224 391 q 220 390 222 391 q 216 390 218 390 l 211 390 q 194 393 203 390 q 176 401 184 396 q 161 411 168 406 q 149 422 154 417 l 138 433 q 132 435 135 434 q 127 437 129 436 q 109 455 117 445 q 93 477 100 466 q 81 498 85 488 q 75 516 77 509 q 74 530 75 519 q 71 552 73 540 q 69 576 70 564 q 67 597 68 589 z "},"&":{"ha":1069,"x_min":60,"x_max":1026,"o":"m 341 820 q 346 782 341 800 q 355 746 350 765 q 358 738 357 743 q 361 732 360 732 q 365 727 361 731 q 373 720 369 724 q 380 713 376 716 q 385 709 383 709 q 395 696 390 703 q 405 683 399 689 q 417 674 410 677 q 434 670 425 670 q 446 672 441 670 q 453 679 450 675 q 459 687 456 682 q 465 698 461 692 q 485 727 476 716 q 498 749 493 739 q 506 773 503 760 q 508 808 508 787 q 501 848 508 829 q 482 882 494 867 q 452 906 470 897 q 412 915 435 915 q 401 914 406 915 q 389 910 397 913 q 363 892 373 901 q 349 874 354 884 q 342 851 344 864 q 341 820 341 838 m 195 296 l 195 289 q 198 282 195 288 q 200 275 200 276 l 200 262 l 200 228 q 202 212 201 220 q 211 199 203 204 q 215 197 212 199 q 222 192 218 195 q 230 188 226 190 q 235 184 233 185 q 258 160 248 175 q 281 134 268 144 q 302 124 289 126 q 323 119 315 122 q 331 116 325 119 q 338 114 336 114 l 389 114 q 397 113 391 114 q 409 112 402 113 q 420 111 415 112 q 428 111 426 111 l 448 111 q 471 114 460 111 q 494 124 483 118 q 515 136 505 130 q 536 146 526 142 q 556 158 546 153 q 574 172 566 164 q 587 189 582 179 q 592 212 592 199 q 584 248 592 229 q 565 284 576 267 q 541 318 553 302 q 517 345 528 334 q 510 352 515 347 q 497 363 504 357 q 485 375 491 370 q 478 382 479 380 q 476 388 478 384 q 471 397 474 393 q 467 406 469 402 q 465 410 465 410 q 440 451 455 429 q 408 487 426 473 q 404 489 407 488 q 396 491 400 490 q 389 493 392 492 q 385 495 385 494 q 372 507 376 501 q 362 518 367 513 q 351 526 357 523 q 332 529 344 529 q 298 525 309 529 q 283 512 288 520 q 274 492 278 504 q 261 463 271 479 q 258 459 261 463 q 253 453 254 456 q 250 450 252 452 q 243 446 247 448 q 237 442 240 444 q 235 440 235 440 q 223 423 227 432 q 218 405 220 414 q 217 385 217 395 q 214 363 216 374 q 213 361 214 363 q 210 355 212 358 q 208 349 209 352 q 206 345 206 346 q 204 337 205 343 q 201 325 203 332 q 197 313 199 319 q 195 304 196 307 l 195 296 m 60 228 l 60 241 q 60 245 60 242 q 62 251 61 248 q 64 257 63 254 q 64 260 64 260 q 66 315 66 290 q 68 370 66 340 q 71 375 69 370 q 73 382 73 381 q 82 404 77 393 q 91 427 86 416 q 103 449 96 439 q 117 468 109 460 q 129 481 121 473 q 146 498 137 490 q 162 515 155 507 q 172 524 170 522 q 179 529 174 526 q 191 536 184 532 q 203 544 197 541 q 211 548 209 547 q 226 559 218 554 q 243 566 233 564 q 248 567 243 567 q 257 566 253 567 q 261 566 260 566 q 288 578 277 568 q 300 604 300 589 q 296 621 300 614 q 287 635 292 629 q 274 648 281 642 q 261 662 267 654 q 259 668 261 663 q 258 675 258 673 q 255 680 257 677 q 252 685 254 682 q 250 691 251 688 q 248 693 248 693 q 241 704 248 696 q 235 712 235 711 q 217 758 224 734 q 211 805 211 782 q 214 829 211 818 q 220 850 216 840 q 226 872 223 861 q 230 897 229 883 q 237 905 232 899 q 248 918 242 911 q 259 930 254 924 q 266 939 264 937 q 271 946 267 940 q 277 953 275 951 q 281 958 277 958 q 296 963 286 960 q 319 970 307 966 q 341 977 331 974 q 355 981 352 980 q 368 984 358 982 q 381 985 378 985 q 402 994 392 989 q 425 1000 412 1000 l 431 1000 q 441 999 435 1000 q 455 998 448 998 q 467 997 462 998 q 475 996 473 996 l 483 991 q 491 988 486 990 q 498 985 496 987 q 502 985 498 985 q 509 983 505 984 q 516 982 513 983 q 522 981 520 981 q 526 979 522 981 q 533 975 529 977 q 540 971 536 973 q 545 968 543 968 q 548 965 546 968 q 554 959 551 962 q 560 952 557 956 q 564 949 563 949 q 588 928 576 939 q 606 902 600 918 q 622 863 614 882 q 630 823 630 843 q 615 751 630 786 q 583 685 600 716 q 574 675 579 680 q 564 667 570 671 q 554 660 559 663 q 545 651 549 656 q 538 642 543 650 q 530 632 533 634 q 526 629 530 631 q 517 623 522 626 q 508 617 512 620 q 502 615 503 615 q 494 606 500 612 q 488 600 489 601 l 488 595 q 500 552 488 572 q 526 515 512 532 q 539 497 530 509 q 558 473 549 486 q 576 450 568 460 q 587 435 585 439 q 600 424 590 431 q 621 409 609 416 q 643 397 632 402 q 658 392 653 392 q 667 393 663 392 q 677 397 672 393 q 705 437 694 414 q 728 482 717 461 q 733 489 730 484 q 739 495 737 494 q 741 506 739 499 q 744 518 743 512 q 747 529 746 524 q 747 534 747 533 l 743 542 q 708 549 725 542 q 677 566 690 557 q 676 571 677 567 q 675 576 675 575 q 683 598 675 589 q 700 615 691 607 q 708 615 702 615 q 720 616 713 616 q 731 617 726 616 q 739 618 736 618 q 742 620 739 618 q 749 623 745 621 q 757 627 753 625 q 762 628 761 628 l 768 628 q 784 626 777 628 q 800 623 791 623 l 809 623 q 814 625 810 623 q 823 627 818 626 q 831 630 827 629 q 836 632 835 631 l 950 632 q 955 630 951 632 q 964 625 959 628 q 974 619 969 622 q 983 615 979 616 q 987 610 986 612 q 987 604 987 609 l 987 600 q 969 572 981 585 q 941 553 956 558 q 936 551 940 552 q 927 548 932 549 q 917 544 922 546 q 912 542 913 543 q 902 536 909 541 q 887 526 895 532 q 871 514 879 519 q 860 506 864 509 q 854 500 859 505 q 846 491 850 496 q 838 482 842 486 q 833 476 833 477 q 828 473 831 476 q 821 468 825 471 q 813 462 817 465 q 809 458 810 459 q 787 435 797 448 q 766 410 778 421 q 757 394 763 406 q 744 369 751 382 q 732 344 738 356 q 724 328 726 332 q 722 319 723 326 q 719 305 720 313 q 716 292 718 298 q 715 284 715 286 q 712 279 714 283 q 709 272 711 276 q 706 265 707 269 q 705 260 705 261 q 706 256 705 260 q 709 247 707 252 q 712 238 711 242 q 715 231 714 233 q 723 222 718 226 q 734 216 728 219 q 747 210 741 213 q 758 204 753 208 q 764 196 759 203 q 770 189 769 190 q 791 179 779 182 q 812 172 804 176 q 820 171 814 171 q 830 170 825 170 q 840 170 835 170 q 847 170 845 170 q 858 170 853 170 q 868 169 863 169 q 880 170 874 169 q 894 176 886 172 q 918 191 907 182 q 941 206 929 199 q 965 218 952 213 q 994 223 977 223 l 1003 223 q 1006 220 1004 222 q 1011 215 1008 218 q 1017 209 1015 212 q 1021 204 1020 205 q 1025 190 1025 199 q 1026 172 1026 180 l 1026 159 q 1008 97 1026 125 q 963 49 991 69 q 903 17 936 28 q 838 6 869 6 q 791 10 814 6 q 747 24 768 14 q 746 26 747 25 q 744 28 745 28 q 743 29 743 28 q 735 40 741 31 q 721 60 728 50 q 708 79 714 71 q 700 90 702 88 q 694 98 699 92 q 682 110 688 103 q 670 121 675 116 q 663 129 664 127 q 657 135 659 132 q 653 141 655 138 q 648 146 651 144 q 639 148 645 148 q 633 148 636 148 q 630 146 630 148 q 627 143 629 146 q 622 136 625 140 q 618 128 620 132 q 616 123 616 124 q 570 68 595 94 q 513 24 545 41 q 507 23 511 24 q 498 20 503 22 q 489 17 493 18 q 483 14 484 15 q 470 5 477 12 q 455 -3 463 -2 q 445 -5 453 -4 q 429 -6 437 -5 q 413 -8 420 -7 q 404 -9 406 -9 q 398 -11 403 -9 q 389 -14 394 -12 q 380 -16 385 -15 q 375 -18 376 -18 l 347 -18 q 304 -15 325 -18 q 261 -3 283 -12 q 255 0 260 -3 q 243 6 250 3 q 232 11 237 9 q 224 14 226 14 q 219 17 223 15 q 211 20 216 18 q 201 23 205 22 q 195 24 197 24 q 161 48 177 34 q 130 76 145 62 q 113 96 123 83 q 93 123 102 109 q 75 152 83 138 q 64 176 67 166 q 60 202 61 189 q 60 228 60 215 z "},"'":{"ha":355,"x_min":52,"x_max":310,"o":"m 64 598 q 68 624 64 615 q 79 638 73 633 q 95 647 86 643 q 113 659 103 651 q 122 669 116 663 q 136 683 129 676 q 148 695 142 690 q 154 703 153 701 q 174 733 165 716 q 183 768 183 751 q 183 778 183 772 q 181 789 182 783 q 177 799 180 794 q 169 805 174 803 q 163 806 168 806 q 153 808 158 807 q 142 810 147 809 q 136 810 138 810 q 120 816 127 812 q 106 824 113 819 q 95 834 100 829 q 83 847 90 840 q 74 858 79 853 q 66 866 70 862 q 58 874 62 870 q 52 886 54 879 l 52 909 q 54 938 52 926 q 62 959 56 949 q 78 975 68 968 q 103 988 88 981 q 115 993 108 990 q 130 999 123 996 q 143 1004 137 1002 q 150 1008 149 1007 l 162 1008 q 189 1002 172 1008 q 224 988 206 996 q 257 969 242 979 q 276 951 271 960 q 278 947 276 951 q 281 939 279 943 q 284 932 283 935 q 286 928 286 928 q 292 913 288 922 q 300 896 296 905 q 307 878 304 886 q 310 863 310 869 q 307 845 310 853 q 304 828 304 838 q 307 809 304 819 q 310 791 310 800 q 309 767 310 777 q 305 745 309 758 q 302 742 304 744 q 299 741 300 741 q 276 694 288 718 q 248 651 264 669 q 231 634 241 644 q 220 612 220 625 q 207 608 217 611 q 193 604 196 606 q 187 604 191 604 q 178 602 183 603 q 170 600 174 601 q 164 600 165 600 q 160 597 163 599 q 154 594 157 596 q 149 591 151 593 q 146 589 146 589 q 137 587 143 589 q 125 584 132 586 q 114 582 119 583 q 106 581 109 581 l 92 581 l 75 581 q 66 588 67 583 q 64 598 64 593 z "},"(":{"ha":453,"x_min":72,"x_max":476,"o":"m 453 939 l 453 935 q 451 931 452 933 q 448 927 448 927 q 446 922 448 926 q 441 914 444 918 q 437 907 439 910 q 434 903 435 904 q 432 898 433 902 q 429 890 431 895 q 426 883 427 886 q 425 880 425 880 q 420 875 424 879 q 414 869 417 871 q 395 852 404 861 q 378 833 387 842 q 373 827 377 831 q 364 818 369 823 q 354 809 359 813 q 349 804 350 804 q 342 797 347 802 q 333 786 338 791 q 325 777 329 781 q 320 771 321 772 q 316 762 319 770 q 312 752 313 753 q 309 750 311 751 q 305 746 307 748 q 300 741 302 743 q 297 738 298 739 q 291 722 292 732 q 289 705 290 713 q 286 698 288 703 q 279 686 283 692 q 273 674 276 680 q 270 667 271 669 q 267 661 268 666 q 265 654 265 655 q 255 637 262 644 q 246 621 248 630 q 244 615 245 619 q 243 606 243 611 q 242 597 242 602 q 241 593 241 593 q 239 587 241 591 q 236 583 237 583 q 223 544 228 564 q 218 503 218 524 q 222 463 218 483 q 227 422 227 444 l 227 418 q 220 397 224 409 q 212 373 216 385 q 205 349 208 361 q 203 330 203 338 l 203 319 q 204 308 203 317 q 208 289 205 299 q 211 270 210 279 q 212 258 212 261 q 209 243 211 251 q 206 231 208 237 q 203 222 204 225 q 201 214 203 220 q 199 206 199 208 l 199 205 l 199 202 q 200 192 200 199 q 201 180 201 186 q 202 169 202 174 q 203 164 203 165 q 206 159 203 163 q 211 152 208 156 q 216 145 214 149 q 218 141 218 142 q 220 130 219 139 q 222 111 221 121 q 225 91 224 100 q 227 79 226 81 q 230 71 227 77 q 236 56 233 64 q 242 41 239 48 q 246 32 245 34 q 247 29 246 31 q 248 23 247 26 q 249 18 248 20 q 250 14 250 15 q 253 10 251 13 q 258 4 256 7 q 262 -1 260 1 q 265 -5 264 -4 q 276 -33 272 -18 q 285 -61 281 -47 q 294 -90 289 -76 q 307 -117 299 -104 q 313 -125 308 -119 q 323 -137 317 -130 q 334 -149 329 -143 q 340 -156 339 -154 q 351 -171 342 -159 q 368 -198 359 -183 q 386 -225 378 -212 q 395 -241 393 -238 q 403 -249 398 -241 q 411 -258 408 -256 q 413 -261 412 -259 q 414 -264 414 -263 q 419 -267 416 -264 q 427 -271 423 -269 q 434 -275 431 -273 q 437 -277 437 -277 q 450 -291 443 -281 q 462 -313 456 -301 q 472 -336 468 -325 q 476 -355 476 -348 q 473 -369 476 -361 q 461 -376 469 -376 q 433 -375 449 -376 q 405 -363 416 -373 l 401 -363 q 386 -356 395 -361 q 367 -343 376 -350 q 350 -330 358 -336 q 336 -320 341 -323 q 330 -318 334 -320 q 325 -315 326 -315 q 323 -310 325 -314 q 319 -300 321 -305 q 315 -292 317 -296 q 312 -288 313 -288 q 300 -276 308 -281 q 285 -266 293 -271 q 270 -257 277 -262 q 259 -245 263 -252 q 255 -233 259 -242 q 250 -222 252 -223 q 246 -214 250 -220 q 241 -206 241 -208 l 241 -203 l 241 -193 q 237 -188 240 -191 q 230 -182 233 -185 q 222 -178 226 -180 q 218 -175 219 -176 q 202 -160 208 -168 q 192 -142 196 -151 q 186 -123 189 -133 q 180 -104 183 -114 q 178 -99 180 -103 q 176 -94 176 -95 q 172 -89 175 -93 q 166 -80 170 -85 q 160 -71 163 -75 q 156 -66 157 -67 q 143 -36 146 -50 q 133 -5 140 -22 q 126 10 130 3 q 119 23 122 16 q 113 36 115 29 q 109 52 110 43 l 109 79 q 108 84 109 80 q 105 92 106 87 q 102 99 103 96 q 100 104 100 103 q 97 112 100 106 q 95 117 96 115 l 95 159 q 90 200 94 181 q 82 238 86 219 q 75 276 78 257 q 72 318 72 296 l 72 319 q 73 328 72 321 q 76 343 75 335 q 80 358 78 351 q 82 366 81 365 q 81 382 82 369 q 81 407 81 395 q 81 417 81 413 q 82 424 81 422 q 83 427 82 424 q 84 435 83 431 q 85 443 84 439 q 85 447 85 446 q 86 456 85 449 q 88 470 87 463 q 90 484 89 477 q 90 494 90 491 q 104 513 100 500 q 111 542 109 526 q 115 573 113 557 q 119 597 116 588 q 124 614 121 603 q 132 636 128 625 q 139 656 136 648 q 142 667 142 665 q 145 674 142 669 q 151 686 148 680 q 157 698 155 692 q 161 705 160 703 q 162 708 161 705 q 163 714 163 711 q 165 721 164 718 q 165 724 165 724 q 169 729 167 726 q 172 733 170 732 q 173 737 172 734 q 177 743 175 740 q 182 749 180 746 q 184 752 184 751 q 187 760 185 753 q 189 767 189 766 q 192 772 190 768 q 196 781 194 777 q 200 789 198 785 q 203 794 202 793 q 221 815 208 800 q 248 846 234 829 q 275 877 262 863 q 294 897 288 892 q 297 904 294 899 q 302 911 300 910 q 318 934 309 922 q 338 956 327 946 q 361 972 349 966 q 389 979 374 979 q 406 976 395 979 q 428 967 417 972 q 446 954 438 962 q 453 939 453 947 z "},")":{"ha":472,"x_min":-4,"x_max":401,"o":"m 19 -338 l 19 -334 q 20 -331 20 -333 q 24 -326 22 -328 q 26 -321 24 -325 q 31 -313 28 -317 q 35 -306 33 -309 q 38 -302 37 -303 q 40 -297 39 -301 q 42 -290 41 -294 q 45 -283 43 -286 q 47 -279 46 -279 q 52 -274 49 -277 q 57 -269 55 -270 q 77 -252 68 -261 q 94 -233 85 -242 q 99 -227 95 -231 q 109 -217 104 -222 q 118 -208 113 -212 q 123 -203 122 -204 q 130 -196 125 -201 q 139 -186 134 -191 q 146 -176 143 -180 q 151 -170 150 -172 q 156 -161 153 -169 q 160 -151 159 -153 q 167 -144 161 -150 q 174 -136 173 -139 q 180 -121 180 -131 q 184 -104 180 -111 q 187 -97 184 -102 q 193 -85 190 -92 q 199 -73 196 -79 q 202 -66 202 -68 q 205 -59 203 -64 q 207 -53 207 -54 q 217 -37 210 -44 q 226 -19 224 -29 q 227 -14 227 -18 q 229 -5 228 -9 q 230 3 229 -1 q 231 8 231 7 q 234 14 232 10 q 236 18 235 18 q 249 57 244 37 q 254 98 254 77 q 249 138 254 118 q 245 178 245 158 l 245 183 q 251 203 247 192 q 258 227 254 215 q 265 251 262 239 q 268 271 268 263 l 268 281 q 267 293 268 283 q 264 312 265 302 q 261 331 262 322 q 260 342 260 340 q 263 357 261 350 q 266 370 264 363 q 268 380 267 376 q 270 387 268 381 q 273 394 273 393 l 273 395 l 273 399 q 271 409 272 403 q 270 421 271 415 q 269 432 269 427 q 268 437 268 436 q 265 441 267 438 q 261 449 263 445 q 256 456 258 452 q 254 460 254 459 q 252 471 254 462 q 250 491 251 480 q 247 510 248 501 q 245 522 245 519 q 241 531 244 524 q 235 545 239 537 q 229 560 232 553 q 226 569 227 567 q 224 578 226 570 q 221 587 222 585 q 218 590 220 587 q 214 596 216 593 q 210 602 212 600 q 207 606 208 605 q 196 633 200 618 q 187 663 191 648 q 178 692 182 677 q 165 718 173 706 q 159 726 163 720 q 149 738 155 731 q 138 749 143 744 q 132 757 134 755 q 122 772 130 760 q 103 798 113 784 q 86 825 94 812 q 77 841 78 838 q 69 850 74 843 q 62 859 64 857 q 59 862 60 861 q 57 865 57 863 q 52 867 56 865 q 45 871 49 869 q 38 876 41 873 q 33 879 34 878 q 22 892 28 882 q 10 914 16 902 q 0 937 4 926 q -4 956 -4 949 q -1 970 -4 962 q 10 979 3 979 q 17 976 16 979 q 18 970 18 974 l 18 961 q 26 961 20 961 q 40 962 33 962 q 54 963 47 962 q 66 963 62 963 l 71 963 q 87 957 78 962 q 105 944 96 951 q 122 930 114 937 q 136 921 131 924 q 142 919 138 921 q 147 916 146 916 q 150 911 148 916 q 154 902 151 907 q 158 893 156 897 q 160 888 159 889 q 172 876 164 881 q 187 867 179 871 q 202 858 195 863 q 213 846 209 852 q 214 841 213 845 q 216 833 215 838 q 219 826 218 829 q 221 823 220 823 q 226 815 221 821 q 231 808 231 810 l 231 804 l 231 794 q 235 789 231 791 q 242 784 238 786 q 249 779 245 781 q 254 776 252 777 q 279 744 273 762 q 292 705 286 726 q 294 700 292 704 q 296 694 296 696 q 299 690 296 694 q 306 681 302 686 q 312 672 309 677 q 315 667 315 668 q 323 651 320 659 q 328 636 326 644 q 333 622 330 629 q 338 606 335 614 q 346 592 342 598 q 353 579 350 585 q 359 566 357 573 q 362 550 361 559 l 362 522 q 363 517 362 521 q 367 509 365 513 q 370 502 368 505 q 372 498 372 498 q 374 489 372 493 q 377 484 376 486 l 377 441 q 382 400 378 419 q 390 363 386 382 q 397 325 394 344 q 401 283 401 305 l 401 281 q 399 273 400 279 q 395 258 397 266 q 392 243 393 250 q 390 235 391 237 l 390 193 l 390 177 q 389 173 390 176 q 388 166 389 170 q 386 159 387 162 q 385 154 385 155 q 385 145 385 152 q 384 131 384 138 q 382 116 383 123 q 382 106 382 109 q 368 88 372 101 q 361 60 363 75 q 357 29 359 44 q 353 5 356 14 q 348 -13 351 -1 q 340 -35 344 -24 q 334 -56 336 -47 q 330 -66 331 -64 q 327 -73 330 -68 q 321 -85 324 -79 q 315 -97 317 -92 q 311 -104 312 -102 q 308 -114 310 -106 q 307 -123 307 -122 q 304 -127 306 -124 q 301 -132 302 -131 q 299 -136 301 -134 q 295 -142 297 -139 q 290 -148 292 -145 q 288 -151 288 -151 q 285 -158 286 -153 q 283 -165 283 -164 q 280 -171 282 -168 q 275 -179 277 -175 q 271 -188 273 -184 q 268 -193 269 -192 q 250 -214 263 -199 q 223 -245 237 -229 q 196 -276 209 -262 q 179 -297 184 -291 q 175 -303 179 -298 q 171 -311 172 -309 q 154 -334 163 -322 q 134 -355 144 -345 q 111 -370 123 -364 q 84 -376 98 -376 q 66 -373 77 -376 q 45 -365 56 -370 q 27 -353 35 -359 q 19 -338 19 -346 z "},"*":{"ha":537,"x_min":58,"x_max":500,"o":"m 279 881 q 291 910 288 895 q 300 940 294 926 q 315 962 305 953 q 346 970 326 970 l 363 970 q 376 955 373 963 q 379 934 379 946 q 376 895 379 917 q 364 854 372 873 q 341 823 355 836 q 304 810 326 810 q 298 811 302 810 q 290 814 294 812 q 282 818 286 816 q 279 823 279 821 l 279 881 m 85 893 l 85 909 q 95 919 89 915 q 109 924 102 924 q 116 923 111 924 q 126 921 121 922 q 136 919 132 920 q 142 918 140 918 q 151 912 144 918 q 162 905 159 907 q 173 893 165 901 q 190 877 181 886 q 207 859 199 867 q 217 847 214 850 q 228 826 222 838 q 233 804 233 813 q 230 797 233 800 q 223 794 227 795 q 216 792 220 793 q 209 792 212 792 q 183 797 195 792 q 161 808 172 801 q 139 823 150 814 q 119 839 129 831 q 103 851 109 846 q 93 861 97 856 q 87 874 89 867 q 85 893 85 881 m 353 730 l 353 734 q 357 741 355 736 q 363 750 360 745 q 369 758 366 754 q 373 764 372 762 q 383 771 376 766 q 392 777 391 777 l 439 777 q 449 770 444 772 q 460 767 454 768 q 471 764 465 766 q 481 758 476 762 q 485 755 482 758 q 491 750 488 753 q 497 744 494 747 q 500 739 499 741 q 498 733 500 738 q 496 726 496 728 q 491 720 494 724 q 485 710 488 715 q 479 702 482 706 q 476 698 477 699 q 463 689 470 691 q 446 688 455 688 l 433 688 l 411 688 q 407 689 410 688 q 399 693 404 691 q 390 698 395 696 q 382 703 385 701 q 362 713 372 708 q 353 730 353 718 m 58 669 l 58 675 q 59 681 58 677 q 60 688 60 684 q 62 695 61 692 q 62 698 62 698 q 75 708 65 703 q 97 715 85 712 q 121 722 109 719 q 138 726 133 724 q 141 728 139 726 q 147 730 144 729 q 153 733 150 732 q 156 734 155 734 l 159 734 q 166 732 159 734 q 181 728 173 730 q 197 721 190 725 q 204 715 204 718 l 204 711 q 200 707 203 711 q 194 703 197 704 q 170 681 182 693 q 142 657 157 668 q 113 638 128 646 q 82 630 98 630 q 61 642 65 630 q 58 669 58 653 m 275 692 q 302 680 292 690 q 320 656 313 670 q 332 627 328 643 q 340 598 336 612 l 340 593 q 339 572 340 584 q 333 551 338 561 q 320 534 328 541 q 299 528 312 528 q 277 536 286 528 q 264 556 269 545 q 260 563 262 559 q 256 572 258 568 q 252 581 254 577 q 251 585 251 585 l 251 659 q 259 679 251 670 q 275 692 267 688 z "},"+":{"ha":789,"x_min":79,"x_max":705,"o":"m 84 474 q 106 485 92 481 q 140 489 121 489 q 159 488 154 489 q 167 486 163 488 l 269 486 q 309 488 292 486 q 332 496 325 490 q 343 545 343 508 l 330 704 q 333 736 330 722 q 343 759 336 751 q 377 768 354 768 q 407 764 393 768 q 429 752 421 760 l 448 711 q 449 709 448 711 q 451 703 450 708 q 453 689 452 699 q 456 662 454 679 q 445 654 450 660 q 437 640 439 647 q 435 624 435 633 q 437 590 435 608 q 443 557 439 571 q 445 545 444 548 q 445 540 445 543 q 444 518 445 529 q 443 500 443 507 q 444 498 443 498 q 444 498 444 498 q 450 493 448 493 q 498 499 473 493 q 545 505 524 505 q 564 503 555 505 q 579 498 572 500 l 684 498 q 692 496 686 498 q 699 493 697 494 q 705 473 705 486 l 705 421 l 692 408 q 631 386 670 386 q 601 388 616 386 q 570 393 585 391 q 541 398 555 396 q 513 401 526 401 l 498 395 l 456 392 q 450 374 452 386 q 445 347 447 362 q 441 316 443 332 q 440 284 440 299 q 442 256 440 269 q 446 233 444 244 q 449 222 448 227 q 450 214 450 216 q 448 202 450 211 q 446 191 446 193 l 449 159 q 447 146 449 151 q 443 138 446 141 q 412 132 433 132 q 379 136 395 132 q 358 143 363 140 q 346 179 349 159 q 341 220 342 199 q 338 263 340 241 q 332 307 336 286 l 345 359 q 345 366 345 362 q 340 373 344 370 q 327 382 334 379 q 310 386 319 386 q 287 383 298 386 q 262 380 276 380 q 249 380 253 380 q 242 381 245 380 q 226 386 239 386 l 210 385 q 188 381 199 382 q 165 380 176 380 q 142 381 153 380 q 120 385 132 382 q 102 387 109 385 q 87 399 95 389 q 81 417 83 407 q 79 440 79 427 q 82 467 81 461 q 84 474 84 473 z "},",":{"ha":374,"x_min":63,"x_max":321,"o":"m 76 -229 q 80 -203 76 -212 q 91 -189 84 -194 q 106 -180 97 -184 q 124 -168 115 -176 q 134 -158 127 -164 q 147 -144 140 -151 q 159 -132 153 -138 q 165 -124 164 -126 q 185 -94 176 -111 q 194 -59 194 -77 q 194 -50 194 -55 q 192 -39 193 -44 q 188 -29 191 -33 q 180 -22 185 -24 q 174 -21 179 -22 q 163 -19 169 -20 q 153 -18 158 -18 q 147 -16 149 -17 q 131 -11 138 -14 q 117 -3 123 -7 q 106 7 111 1 q 94 20 100 13 q 77 39 85 33 q 63 58 69 45 l 63 82 q 65 110 63 98 q 74 131 68 122 q 90 147 80 140 q 115 161 100 154 q 126 165 119 163 q 141 171 134 168 q 154 177 149 174 q 161 180 160 180 l 173 180 q 200 175 182 180 q 235 160 218 169 q 268 142 253 152 q 287 124 283 132 q 289 120 288 123 q 292 113 290 117 q 296 105 294 109 q 298 101 297 102 q 303 86 300 95 q 311 69 307 78 q 318 51 315 60 q 321 35 321 42 q 318 18 321 26 q 315 1 315 10 q 318 -18 315 -8 q 321 -37 321 -27 q 320 -60 321 -50 q 316 -82 319 -70 q 313 -85 315 -83 q 311 -87 311 -87 q 288 -133 300 -109 q 258 -176 275 -157 q 242 -193 252 -184 q 232 -215 232 -202 q 226 -216 230 -215 q 218 -219 222 -218 q 209 -221 213 -220 q 203 -223 205 -222 q 198 -224 202 -223 q 190 -225 194 -224 q 181 -227 185 -227 q 176 -228 177 -228 q 166 -233 174 -229 q 157 -238 158 -237 q 149 -240 154 -239 q 137 -243 143 -241 q 125 -245 131 -244 q 118 -246 120 -246 l 102 -246 l 86 -246 q 77 -239 79 -245 q 76 -229 76 -234 z "},"-":{"ha":564,"x_min":108,"x_max":465,"o":"m 108 307 q 115 327 108 319 q 131 339 121 334 q 153 345 141 343 q 174 347 164 347 q 184 348 176 348 q 202 348 193 348 q 220 348 212 348 q 230 347 228 347 q 252 349 234 348 q 289 350 269 349 q 326 352 309 351 q 348 353 344 353 l 376 353 l 404 353 q 436 329 423 344 q 460 296 448 313 q 461 294 461 295 q 463 291 462 292 q 465 288 464 289 q 459 259 465 274 q 447 235 453 244 q 429 220 439 225 q 408 206 418 214 q 394 205 404 206 q 373 204 384 205 q 352 203 361 203 q 338 202 342 202 l 330 202 l 325 202 q 312 203 322 202 q 289 204 301 203 q 266 205 277 205 q 253 206 256 206 l 212 206 q 202 207 209 206 q 188 209 195 208 q 173 210 180 210 q 163 211 166 211 q 132 222 142 214 q 116 241 121 230 q 110 268 111 253 q 108 300 109 283 l 108 307 z "},".":{"ha":329,"x_min":66,"x_max":268,"o":"m 71 55 q 66 83 67 71 q 66 111 66 96 l 66 132 q 68 137 66 133 q 73 146 70 141 q 78 155 75 151 q 80 159 80 159 q 82 167 80 161 q 85 175 83 173 q 113 206 93 195 q 155 217 134 217 q 169 215 163 217 q 178 211 174 214 q 186 204 182 208 q 197 198 191 201 q 205 195 199 197 q 212 193 210 193 q 222 187 218 191 q 229 180 227 184 q 234 171 231 176 q 241 159 237 165 q 248 151 243 155 q 257 142 252 147 q 264 133 261 138 q 268 122 267 127 l 268 96 q 267 75 268 82 q 263 63 266 67 q 255 54 260 58 q 241 42 250 50 q 235 37 239 41 q 225 28 231 33 q 216 19 220 23 q 212 14 212 15 q 207 11 210 13 q 201 6 204 9 q 194 0 197 3 l 141 0 q 134 5 140 1 q 127 8 129 8 q 123 11 126 9 q 117 14 120 12 q 111 17 114 16 q 109 19 109 18 q 101 26 106 21 q 90 37 96 31 q 78 48 83 43 q 71 55 73 53 z "},"/":{"ha":378,"x_min":20,"x_max":474,"o":"m 20 -76 q 23 -57 20 -65 q 28 -40 25 -48 q 36 -24 32 -32 q 43 -6 39 -16 l 48 15 q 54 33 50 25 q 60 50 58 40 l 66 83 q 68 87 66 85 q 74 93 71 90 q 80 98 77 96 q 83 101 83 100 l 83 132 q 87 146 84 140 q 95 159 91 153 q 104 171 100 165 q 111 184 109 177 q 115 195 112 188 q 120 211 117 203 q 126 225 123 218 q 128 233 128 231 q 132 251 128 236 q 141 284 136 267 q 154 317 147 302 q 167 334 161 332 q 189 392 181 360 q 203 450 197 424 l 231 515 q 242 565 237 547 q 249 592 246 583 q 254 605 252 602 q 258 609 256 608 l 268 635 q 272 653 269 646 q 278 667 275 661 q 286 681 281 674 q 294 698 290 688 q 317 764 308 730 q 336 831 326 798 q 346 857 339 845 q 359 882 352 868 q 364 896 361 886 q 371 918 367 905 q 378 942 374 930 q 382 962 381 954 q 387 983 385 973 q 394 999 389 992 q 409 1010 399 1006 q 435 1014 418 1014 q 455 1010 444 1014 q 474 1000 467 1007 l 474 962 q 469 954 473 961 q 465 945 465 947 q 463 918 462 932 q 459 890 464 905 q 450 875 456 880 q 437 863 444 871 q 434 854 434 859 q 433 838 433 850 q 427 819 431 829 q 416 800 422 809 q 404 781 410 790 q 392 765 397 772 q 384 750 385 754 q 382 743 382 745 l 382 722 q 371 686 378 703 q 355 657 363 669 q 355 646 355 651 q 356 638 356 642 q 355 620 356 627 q 351 609 353 613 q 346 602 349 605 q 340 596 343 600 q 336 586 338 593 q 332 572 334 580 q 328 557 330 564 q 326 545 326 550 q 322 515 326 528 q 314 495 319 503 q 305 481 309 486 q 300 473 300 476 q 297 465 300 470 q 294 458 294 460 q 289 435 292 445 q 279 415 285 425 q 267 396 274 406 q 254 376 260 387 q 248 361 250 369 q 247 346 247 353 q 247 316 247 324 q 243 304 246 309 q 230 279 234 292 q 226 267 227 267 q 222 262 225 265 q 215 255 219 258 q 208 248 212 251 q 203 244 205 245 q 198 227 200 239 q 195 201 197 214 q 192 175 193 187 q 186 157 190 163 q 183 153 185 155 q 178 147 180 150 q 173 142 175 144 q 170 138 170 140 q 174 128 174 132 q 175 119 175 124 q 167 94 175 104 q 154 81 159 84 q 151 57 151 65 q 144 45 151 49 q 144 37 144 43 q 144 24 144 31 q 144 5 144 13 q 140 -8 143 -2 q 133 -20 138 -14 q 121 -32 129 -26 q 114 -43 115 -38 q 112 -55 112 -49 l 112 -63 q 112 -67 112 -65 q 111 -72 112 -70 q 105 -84 108 -81 q 101 -90 103 -87 q 96 -96 98 -92 q 93 -108 94 -99 l 54 -122 q 44 -115 50 -122 q 33 -100 39 -109 q 24 -85 28 -92 q 20 -76 20 -77 z "},":":{"ha":362,"x_min":77,"x_max":283,"o":"m 91 530 q 103 552 96 543 q 117 569 109 562 q 134 582 125 576 q 155 595 144 588 q 165 600 163 600 q 173 601 167 601 q 186 597 176 601 q 210 588 197 593 q 232 578 222 583 q 246 572 243 574 q 266 548 263 560 q 269 516 269 535 l 269 511 q 260 472 265 489 q 245 442 255 454 q 220 424 236 430 q 179 418 204 418 q 172 418 174 418 q 161 422 170 419 q 152 427 158 425 q 140 431 146 429 q 129 434 134 433 q 124 437 124 436 q 116 444 119 439 q 109 456 112 450 q 103 468 106 463 q 100 477 101 474 q 98 489 100 481 q 95 505 97 496 q 92 520 94 513 q 91 530 91 527 m 77 81 q 91 141 77 115 q 132 188 106 168 q 152 181 143 183 q 171 179 161 180 q 190 179 180 179 q 213 178 200 179 q 219 176 214 177 q 226 172 224 174 q 234 168 228 172 q 248 159 240 164 q 262 149 255 154 q 273 141 269 144 q 276 139 275 141 q 279 136 277 136 q 279 129 279 134 q 281 117 280 123 q 282 106 281 111 q 283 98 283 100 l 283 90 q 271 51 283 68 q 241 19 258 33 q 234 14 239 17 q 225 7 229 10 q 217 2 220 4 q 213 0 214 0 l 152 0 q 148 2 151 0 q 139 6 144 3 q 131 11 135 8 q 124 14 126 13 q 121 18 123 15 q 115 23 118 20 q 109 29 112 26 q 105 32 106 31 q 85 52 93 43 q 77 81 77 61 z "},";":{"ha":410,"x_min":78,"x_max":342,"o":"m 92 493 q 100 529 92 511 q 121 559 109 546 q 127 567 123 562 q 135 576 131 572 q 143 584 140 581 q 149 588 147 587 q 154 591 149 589 q 163 594 158 593 q 174 597 169 595 q 182 598 179 598 q 189 599 183 598 q 203 601 195 600 q 218 602 210 602 q 230 603 225 603 l 237 603 l 243 603 l 300 547 l 309 528 q 309 523 309 526 q 311 515 310 519 q 312 507 311 511 q 312 501 312 503 q 312 493 312 498 q 311 483 311 488 q 309 474 310 478 q 309 471 309 471 q 305 464 309 469 q 297 452 302 459 q 288 439 293 446 q 280 428 283 432 q 266 416 275 421 q 246 407 256 411 q 225 402 236 404 q 206 400 215 400 l 195 400 q 188 402 194 401 q 176 404 182 403 q 162 407 169 406 q 153 410 156 408 q 149 412 152 410 q 144 415 145 414 q 121 431 131 424 q 105 446 111 438 q 95 465 98 454 q 92 493 92 476 m 87 -217 l 87 -211 q 92 -203 87 -206 q 97 -199 93 -202 q 106 -194 102 -197 q 115 -188 111 -191 q 121 -183 119 -184 q 125 -179 122 -182 q 133 -172 129 -176 q 140 -164 136 -168 q 144 -159 143 -161 q 151 -157 145 -159 q 159 -156 157 -156 q 183 -137 172 -151 q 202 -108 195 -124 q 215 -75 210 -92 q 219 -45 219 -58 q 216 -36 219 -41 q 210 -28 213 -30 q 199 -24 206 -26 q 186 -18 193 -21 q 174 -13 180 -15 q 168 -9 169 -10 l 150 -9 l 144 -9 q 138 -6 143 -9 q 130 0 133 -3 q 109 17 118 9 q 92 36 99 26 q 82 57 85 45 q 78 85 78 68 q 86 111 78 98 q 106 137 94 125 q 133 156 119 149 q 159 165 147 164 l 185 165 l 210 165 q 219 160 212 164 q 230 155 227 157 q 237 153 231 155 q 251 148 243 151 q 264 144 258 146 q 272 141 270 142 q 292 123 286 136 q 304 100 298 111 q 306 97 304 98 q 309 94 309 95 q 319 87 311 93 q 327 81 326 82 q 331 75 328 79 q 335 67 333 71 q 340 58 338 62 q 342 52 342 54 l 342 11 q 341 -24 342 -9 q 335 -54 339 -40 q 326 -82 332 -68 q 314 -113 321 -96 q 303 -137 308 -126 q 290 -159 299 -148 q 277 -176 283 -167 q 263 -194 271 -185 q 247 -210 256 -203 q 230 -222 239 -218 q 214 -228 225 -224 q 189 -236 202 -231 q 165 -244 176 -240 q 149 -250 153 -248 l 127 -250 l 116 -250 q 105 -249 111 -250 q 97 -245 100 -249 q 89 -231 91 -236 q 87 -217 87 -226 z "},"<":{"ha":612,"x_min":58,"x_max":558,"o":"m 279 196 l 264 212 q 233 232 240 227 q 224 237 225 237 q 213 241 218 237 q 204 253 208 246 q 198 266 201 259 q 193 275 195 272 q 183 279 187 277 q 175 283 178 281 q 168 289 171 286 q 159 299 164 292 l 124 336 q 104 343 115 338 q 82 357 92 349 q 65 376 72 366 q 58 397 58 386 q 67 418 58 409 q 87 434 75 427 q 112 448 99 441 q 132 460 124 454 q 138 465 135 460 q 144 474 141 469 q 150 482 147 478 q 157 486 153 486 q 169 496 163 492 q 177 503 174 500 q 185 509 181 506 q 194 517 189 512 q 198 523 197 520 q 199 528 199 526 q 208 541 199 533 l 242 551 l 279 588 q 292 589 286 588 q 298 591 295 590 q 302 597 301 593 q 309 603 304 602 q 328 617 321 612 q 338 625 335 622 q 345 629 342 627 q 359 637 352 629 q 373 655 366 646 q 387 673 380 665 q 399 683 393 681 q 413 690 408 686 q 420 698 417 694 q 426 706 423 702 q 435 715 429 710 q 470 732 452 726 q 504 749 489 738 q 518 736 511 745 q 524 715 524 726 q 519 695 524 702 q 507 682 514 688 q 490 671 499 677 q 473 656 481 666 q 459 650 468 656 q 440 637 450 644 q 421 622 430 629 q 409 612 413 615 q 403 608 407 612 q 394 601 399 605 q 385 593 389 597 q 380 588 381 589 l 345 563 q 335 553 340 559 q 325 542 330 547 q 313 532 319 536 q 300 528 307 528 l 296 528 q 292 517 295 525 q 286 508 289 510 q 282 506 284 507 q 277 505 278 505 q 260 494 265 501 q 246 481 255 486 q 223 465 233 471 q 204 453 213 458 q 187 441 196 448 q 165 425 178 435 q 171 408 165 416 q 184 400 178 400 q 225 370 207 385 q 264 339 243 355 q 270 335 264 338 q 277 332 275 333 q 284 328 278 332 q 299 317 291 323 q 314 306 307 311 q 324 300 321 301 q 334 287 330 290 q 340 284 337 284 q 347 282 343 283 q 359 275 351 281 q 368 263 361 271 q 383 247 374 255 q 399 232 391 238 q 412 225 408 225 q 438 208 425 216 q 462 189 451 199 q 478 173 473 180 q 496 161 484 167 q 514 150 504 156 q 535 137 525 144 q 551 121 545 130 q 558 100 558 112 q 554 82 558 92 q 542 62 549 71 q 524 45 534 52 q 502 39 513 39 q 484 46 492 39 q 467 60 475 54 q 452 64 461 63 q 435 71 444 65 l 409 104 l 396 111 q 385 120 390 114 q 374 134 380 127 q 362 149 369 142 q 345 161 355 156 q 331 169 339 163 q 316 181 323 175 q 304 193 309 188 q 298 198 298 198 l 279 196 z "},"=":{"ha":633,"x_min":82,"x_max":551,"o":"m 94 210 q 90 223 90 211 l 90 237 q 91 260 90 246 q 94 287 91 273 q 104 310 97 300 q 123 323 111 320 l 156 323 q 169 325 163 323 q 181 329 175 327 q 194 333 187 331 q 208 334 200 334 l 246 326 q 262 328 257 326 q 274 330 267 330 q 298 328 286 330 q 322 323 310 326 q 341 316 332 318 q 360 315 351 315 q 397 320 378 315 q 434 326 415 326 l 460 323 q 470 325 466 323 q 479 329 475 326 q 487 333 483 331 q 497 334 492 334 q 527 328 513 334 q 551 307 542 321 l 551 290 q 550 271 551 279 q 548 254 549 262 q 546 237 547 246 q 545 215 545 228 q 533 199 541 205 q 517 189 526 193 q 499 184 508 185 q 482 183 490 183 l 412 188 q 318 187 365 188 q 224 184 271 186 q 183 178 204 183 q 142 172 163 172 q 126 176 134 172 q 112 184 119 179 q 100 196 105 189 q 94 210 95 203 m 82 450 l 82 477 q 82 500 82 487 q 86 527 83 514 q 96 549 89 540 q 115 559 102 558 l 146 559 q 160 563 153 560 q 172 568 166 565 q 185 573 178 570 q 200 575 192 575 q 219 569 211 575 q 239 563 227 563 l 266 568 q 289 566 277 568 q 311 561 300 564 q 332 556 322 558 q 351 555 342 555 l 426 563 l 452 559 q 462 562 458 559 q 470 567 466 564 q 478 573 474 570 q 489 575 483 575 q 518 567 504 575 q 542 545 532 558 l 542 532 l 537 461 l 537 444 q 508 425 526 430 q 473 420 490 420 l 402 427 q 308 426 355 427 q 216 421 262 425 q 174 416 196 420 q 132 413 153 413 q 119 416 127 413 q 103 424 111 419 q 90 436 96 429 q 82 450 84 442 z "},">":{"ha":610,"x_min":54,"x_max":551,"o":"m 333 201 l 314 201 q 307 196 313 201 q 294 184 301 191 q 277 171 286 178 q 261 163 269 165 q 248 151 254 158 q 237 137 242 144 q 227 123 232 130 q 214 113 221 117 l 203 109 l 176 73 q 158 68 168 69 q 142 63 149 68 q 126 50 135 56 q 109 43 117 43 q 86 50 96 43 q 69 65 77 56 q 58 85 62 75 q 54 103 54 95 q 60 124 54 115 q 76 140 66 133 q 96 152 85 146 q 115 163 106 157 q 132 177 127 170 q 149 193 137 184 q 173 211 160 201 q 198 228 186 220 q 212 234 203 228 q 228 249 220 241 q 242 266 236 257 q 252 278 249 274 q 263 286 259 285 q 271 287 268 287 q 278 290 275 288 q 287 302 281 292 q 295 310 288 304 q 311 321 302 316 q 327 331 320 327 q 335 336 334 336 q 341 339 338 336 q 346 344 345 342 q 385 374 366 359 q 428 404 404 389 q 440 411 433 404 q 446 428 446 418 q 424 446 433 439 q 406 457 415 452 q 388 468 397 463 q 363 484 378 474 q 350 497 355 490 q 334 509 345 505 q 329 510 331 509 q 324 511 327 510 q 318 523 320 516 q 309 530 315 530 q 296 535 302 530 q 285 545 290 539 q 275 557 279 551 q 267 566 270 563 l 231 593 q 225 596 229 593 q 217 603 221 600 q 208 610 212 607 q 203 615 204 614 q 189 625 198 618 q 171 640 180 632 q 151 653 161 647 q 136 659 142 659 q 120 675 128 669 q 104 685 111 680 q 91 697 96 690 q 86 718 86 705 q 93 739 86 730 q 107 753 100 748 q 123 743 114 747 q 141 735 132 739 q 159 727 150 731 q 176 717 168 723 q 184 709 181 713 q 191 701 188 705 q 199 693 194 696 q 212 686 203 689 q 223 676 216 684 q 237 659 229 668 q 252 641 244 649 q 267 631 260 633 q 269 631 268 631 q 272 629 272 629 q 292 613 285 619 q 303 603 299 607 q 309 597 307 599 q 314 593 311 595 l 333 593 q 349 575 340 587 q 368 556 358 564 q 393 543 385 548 q 407 533 402 537 q 412 526 411 529 q 416 519 414 522 q 425 513 420 515 q 434 508 429 510 q 443 501 438 505 q 454 490 448 497 q 460 487 456 490 q 466 478 463 483 q 473 468 469 473 q 478 463 476 464 q 499 451 486 457 q 523 438 511 446 q 543 420 534 430 q 551 399 551 411 q 544 378 551 389 q 528 360 537 368 q 507 346 518 352 q 488 338 496 340 q 478 331 484 337 q 468 319 473 326 q 459 308 463 313 q 452 302 454 302 q 436 286 443 289 q 418 278 429 283 q 413 269 416 275 q 406 256 410 262 q 396 244 401 250 q 385 239 391 239 q 382 238 385 239 q 378 237 380 237 q 362 232 370 235 q 348 220 355 228 l 333 201 z "},"?":{"ha":509,"x_min":74,"x_max":455,"o":"m 111 265 q 112 274 111 267 q 114 289 113 281 q 115 303 115 296 q 116 312 116 310 l 116 534 q 136 557 123 547 q 163 568 148 568 q 177 566 172 568 q 191 557 183 564 q 222 550 208 550 q 256 557 238 550 q 267 561 260 558 q 275 566 274 564 q 289 573 283 570 q 297 579 294 576 q 305 587 301 583 q 314 600 309 592 q 318 605 315 601 q 322 609 321 609 q 330 611 324 610 q 338 612 336 612 q 342 618 339 614 q 346 623 345 622 q 364 657 355 637 q 374 697 374 677 l 374 698 q 372 703 374 699 q 370 709 371 707 q 351 745 358 725 q 336 784 344 764 q 318 822 328 804 q 291 853 308 840 q 280 859 288 856 q 272 863 273 863 q 244 859 258 859 q 216 858 231 858 q 188 859 201 858 q 158 863 174 859 q 139 871 149 864 q 122 889 130 879 q 110 911 115 900 q 105 932 105 923 q 114 977 105 959 q 140 1005 123 994 q 178 1019 156 1015 q 225 1023 200 1023 q 255 1023 237 1023 q 285 1017 273 1022 q 294 1014 287 1017 q 309 1006 301 1010 q 323 999 317 1002 q 332 994 330 995 q 350 987 340 989 q 366 975 359 985 q 367 971 366 975 q 370 964 368 968 q 372 957 371 960 q 374 951 374 953 q 398 918 385 934 q 416 881 412 903 q 418 876 417 880 q 420 865 419 871 q 421 855 420 860 q 421 850 421 850 q 428 834 423 842 q 438 819 433 826 q 447 804 443 811 q 450 787 450 796 q 447 761 450 774 q 444 733 444 747 q 445 710 444 720 q 450 683 446 700 q 453 676 450 682 q 455 670 455 671 l 455 665 l 455 659 q 452 644 454 654 q 449 625 450 635 q 446 608 448 616 q 444 600 445 601 q 443 595 444 599 q 438 587 441 591 q 434 580 436 583 q 431 576 432 576 q 428 571 430 574 q 427 566 427 567 q 424 557 426 564 q 421 547 422 549 q 417 540 421 545 q 413 534 413 535 q 407 524 411 531 q 404 515 404 517 q 400 507 402 513 q 397 500 399 501 q 380 481 390 490 q 358 463 370 471 q 334 448 347 454 q 309 440 321 442 l 298 440 l 272 440 q 267 438 271 439 q 259 435 263 437 q 252 431 255 433 q 248 429 249 430 l 210 429 q 199 415 201 426 q 195 397 197 405 l 195 363 l 195 328 q 201 301 197 314 q 205 275 205 288 q 200 253 205 264 q 189 233 196 242 q 171 218 181 224 q 151 212 161 212 q 134 217 142 212 q 122 230 127 222 q 114 247 117 237 q 111 265 111 256 m 78 35 q 77 43 78 37 q 76 56 77 50 q 75 68 75 62 q 74 77 74 75 l 74 82 l 74 92 q 75 112 74 101 q 82 129 77 123 q 127 157 102 148 q 179 167 153 167 q 207 158 195 167 q 229 135 220 149 q 243 107 238 122 q 248 79 248 92 q 244 55 248 65 q 232 38 239 45 q 215 24 224 31 q 195 12 205 18 q 191 8 195 12 q 184 2 188 5 q 176 -4 180 -1 q 172 -7 173 -7 l 166 -7 q 143 -3 155 -7 q 119 6 131 1 q 96 20 107 12 q 78 35 85 27 z "},"@":{"ha":1054,"x_min":62,"x_max":1020,"o":"m 399 340 q 402 324 399 331 q 412 313 405 317 q 418 309 415 311 q 425 307 422 307 q 455 314 443 307 q 480 333 468 321 q 504 355 490 341 q 531 381 517 368 q 563 413 547 396 l 619 488 l 648 519 l 680 585 l 694 638 q 694 642 694 640 q 695 645 695 644 q 694 657 695 650 q 688 667 692 664 q 687 670 688 669 q 686 673 686 671 l 684 675 l 681 675 q 677 675 678 675 q 673 675 676 675 q 669 677 669 675 l 659 677 l 656 675 q 649 673 654 675 q 638 668 644 671 q 626 663 632 665 q 618 659 621 660 q 613 657 614 659 q 610 652 611 655 q 602 646 608 651 q 588 634 595 640 q 574 622 581 627 q 566 615 568 616 l 560 608 l 552 608 l 500 553 q 490 532 492 544 q 488 525 488 529 q 485 517 487 521 q 473 503 479 509 q 460 489 466 496 q 457 483 459 487 q 452 475 454 479 q 448 468 450 471 q 446 465 446 465 l 402 387 l 402 381 q 400 361 401 372 q 399 340 399 351 m 563 283 q 566 289 564 285 q 570 298 568 293 q 574 308 572 303 q 578 315 576 313 q 583 334 583 321 q 582 338 582 336 q 581 341 581 339 q 581 344 581 342 q 578 352 581 347 q 570 357 574 357 q 567 356 568 357 q 565 354 566 355 q 562 353 564 354 q 559 352 560 352 q 557 350 557 351 q 555 349 557 349 q 553 347 554 348 q 550 344 553 347 q 544 338 547 341 q 537 332 541 335 q 533 328 534 329 l 493 302 q 488 297 492 300 q 481 290 485 294 q 474 283 477 286 q 469 278 471 279 q 429 251 453 261 q 383 237 405 240 l 363 237 q 343 237 353 237 q 323 241 333 237 q 320 242 322 241 q 317 245 319 243 q 293 267 303 253 q 279 298 283 281 q 276 314 276 307 q 275 331 275 321 l 275 346 q 278 365 275 355 q 286 385 281 375 q 306 430 295 408 q 329 473 317 452 q 337 484 334 478 q 345 495 341 490 q 346 500 345 496 q 348 503 347 501 q 356 512 351 506 q 366 525 361 519 q 376 537 372 532 q 383 545 381 543 q 392 553 386 551 q 402 559 399 555 l 459 608 q 460 610 459 608 q 462 612 461 611 q 469 620 463 614 q 480 632 474 625 q 492 646 486 640 q 499 654 497 652 q 503 657 500 656 q 507 661 505 659 l 507 662 l 511 662 q 515 663 513 662 q 524 667 520 664 q 531 675 528 670 q 584 708 557 696 q 645 726 610 720 q 666 729 655 729 q 689 730 677 730 l 695 730 q 707 725 703 728 q 716 720 711 722 q 724 718 720 718 l 740 718 l 741 719 q 751 728 747 724 q 758 739 754 733 q 777 756 768 748 q 800 764 786 764 l 808 764 q 821 742 817 754 q 825 718 825 730 q 818 680 825 696 q 801 645 810 663 q 798 634 799 639 q 796 623 798 629 q 793 616 796 618 l 719 463 q 718 457 718 459 q 718 453 718 456 q 718 448 718 450 q 716 442 718 446 q 705 418 711 431 q 694 394 700 406 l 694 392 q 691 383 692 387 q 689 377 690 380 q 687 373 688 374 q 683 367 686 370 q 681 358 681 363 q 682 346 681 352 q 692 339 684 339 q 705 343 699 339 q 718 352 711 347 l 793 395 q 798 398 795 397 q 803 401 800 400 q 843 436 823 418 q 880 474 863 454 q 908 516 897 494 q 923 564 920 538 q 927 589 926 576 q 928 615 928 602 q 925 635 928 624 q 922 657 923 646 q 894 725 906 695 q 867 777 882 755 l 865 777 l 817 842 q 780 862 795 850 q 745 884 764 874 q 704 908 722 899 q 667 921 686 918 q 652 919 657 920 q 644 918 647 918 l 632 918 q 623 918 627 918 q 614 916 620 918 l 589 928 q 549 925 570 928 q 513 906 528 922 q 442 893 471 902 q 391 870 413 885 q 351 834 369 856 q 311 783 332 813 l 293 764 l 267 725 q 260 713 262 720 q 258 699 258 705 l 224 615 q 219 597 221 608 q 215 577 216 587 q 212 557 213 567 q 210 540 211 547 q 207 530 209 536 q 201 516 204 524 q 196 500 199 508 q 194 488 194 493 q 211 386 197 431 q 243 302 225 340 q 251 285 249 294 q 256 265 253 275 q 265 245 259 255 q 283 227 271 235 q 301 194 291 211 q 326 167 311 177 q 341 152 334 159 q 355 136 349 144 q 370 118 362 127 q 389 100 378 109 q 408 95 397 98 q 427 89 418 92 q 445 82 437 85 q 457 79 453 79 l 499 66 l 563 67 q 592 71 579 70 q 616 72 606 72 q 648 70 637 72 q 665 68 659 68 q 673 66 669 68 q 687 64 676 64 q 702 66 696 64 q 713 71 708 68 q 724 76 718 73 q 740 80 730 79 q 754 89 741 81 q 783 105 767 97 q 811 121 798 114 q 825 128 824 128 q 855 122 847 128 q 863 108 863 117 q 853 83 863 96 q 836 62 843 70 q 820 40 827 48 q 808 28 813 32 q 798 23 802 24 q 789 22 793 22 q 773 20 780 22 q 758 15 766 18 q 719 1 741 7 q 671 -5 698 -5 l 673 -3 q 661 -5 669 -5 q 646 -5 654 -5 l 553 -5 q 535 -5 544 -5 q 523 -3 527 -5 q 482 0 503 -3 q 440 7 461 3 q 399 17 419 12 q 359 26 378 22 q 354 27 357 26 q 349 31 350 29 q 310 59 330 45 q 267 85 289 73 l 243 89 q 229 99 240 90 q 204 120 217 109 q 180 143 191 132 q 168 159 169 154 l 113 254 q 99 293 108 267 q 82 349 90 319 q 68 404 74 378 q 62 442 62 430 q 64 453 62 450 q 66 465 66 457 l 62 505 q 65 543 62 519 q 74 590 69 566 q 83 636 78 614 q 90 671 87 658 q 95 685 90 675 q 104 698 100 694 q 114 714 111 706 q 120 731 117 722 q 125 747 122 739 q 133 764 127 755 q 141 773 136 770 q 149 779 145 776 q 155 785 153 781 q 158 797 158 789 l 239 879 l 296 908 q 300 912 298 909 q 306 919 302 916 l 340 930 l 431 975 l 610 1010 l 648 1010 l 684 994 l 701 996 l 749 980 q 768 973 755 978 q 795 962 781 968 q 822 950 809 956 q 840 941 834 945 q 856 925 848 932 q 870 914 863 919 q 885 904 877 909 q 902 893 892 899 q 919 876 908 890 q 942 847 930 863 q 962 816 953 831 q 972 797 970 802 q 974 780 974 788 q 975 765 974 772 q 978 752 975 758 q 989 741 981 746 q 1000 693 995 718 q 1010 645 1006 667 q 1017 607 1015 623 q 1020 588 1020 591 q 1017 564 1020 572 q 1010 543 1014 556 q 994 519 1001 528 q 986 502 986 509 q 972 480 977 490 q 963 462 968 471 q 953 445 959 453 q 935 426 947 436 q 894 394 910 406 q 864 372 878 381 q 833 353 849 362 q 793 330 817 343 l 749 292 l 743 288 q 736 281 742 286 q 729 276 731 277 q 716 269 723 271 q 702 264 709 267 q 683 248 692 256 q 663 233 674 239 l 640 227 l 637 227 l 593 233 q 590 235 592 234 q 587 236 589 235 q 585 237 586 237 q 577 243 582 240 q 571 250 572 247 q 565 262 566 256 q 563 276 563 269 l 563 283 z "},"A":{"ha":884,"x_min":4,"x_max":895,"o":"m 320 482 l 320 481 q 322 473 321 478 q 323 466 323 467 q 334 449 328 457 q 346 434 340 440 q 361 423 353 427 q 380 419 370 419 q 404 424 393 419 q 428 429 415 429 q 451 427 440 429 q 475 424 463 424 l 479 424 q 487 427 482 425 q 495 431 491 429 q 504 435 500 433 q 509 437 507 437 q 513 450 512 441 q 513 465 513 460 q 506 499 513 481 q 494 532 498 516 q 475 593 484 562 q 456 654 465 624 q 453 664 455 656 q 447 680 450 671 q 441 698 444 689 q 437 711 439 707 q 434 718 436 713 q 430 730 432 724 q 426 741 428 736 q 423 749 424 747 q 420 758 420 756 q 414 759 419 759 q 403 754 408 759 q 394 742 398 749 q 388 728 391 735 q 385 715 386 720 l 385 702 q 383 696 385 701 q 378 688 380 692 q 373 680 376 684 q 370 675 371 675 q 370 666 370 673 q 369 652 370 660 q 368 639 368 645 q 367 631 367 633 q 355 603 363 617 q 343 575 346 589 q 342 569 343 574 q 341 558 342 564 q 340 548 340 553 q 338 542 339 543 q 336 537 338 541 q 331 528 334 533 q 327 518 329 523 q 323 513 324 514 q 322 502 323 507 q 321 492 321 497 q 320 484 320 488 l 320 482 m 828 -5 l 751 -5 q 743 -4 750 -5 q 727 -2 736 -3 q 711 -1 718 -1 q 701 0 703 0 q 665 1 690 0 q 611 1 640 1 q 556 1 581 1 q 522 0 531 0 q 512 11 516 5 q 507 24 507 16 q 509 32 507 30 q 513 42 510 35 q 516 50 513 44 q 522 56 518 55 q 527 57 523 56 q 536 58 532 58 q 545 60 541 59 q 550 61 549 60 q 556 64 552 62 q 565 71 560 67 q 574 77 570 74 q 579 80 578 79 q 584 82 580 81 q 592 83 587 83 q 601 84 597 84 q 607 85 606 85 q 610 87 608 85 q 611 89 610 87 l 611 113 q 608 149 611 131 q 599 185 604 168 q 589 221 594 203 q 579 254 583 238 q 577 263 578 256 q 574 278 576 270 q 570 293 572 286 q 568 302 569 300 q 567 307 568 303 q 564 314 566 310 q 562 321 563 317 q 560 325 560 324 q 556 338 558 331 q 551 351 554 345 q 544 361 548 357 q 532 367 539 366 q 525 369 530 368 q 514 370 519 370 q 504 371 509 371 q 498 372 500 372 q 494 369 498 372 q 490 367 492 368 q 482 365 487 366 q 475 363 477 363 l 437 363 q 386 362 412 363 q 338 358 360 361 q 333 355 337 358 q 329 353 331 354 q 318 352 326 353 q 301 351 310 351 q 283 349 292 350 q 273 349 275 349 l 268 344 l 250 241 q 236 218 240 230 q 231 193 232 206 q 229 168 229 180 q 226 142 229 155 q 221 132 226 139 q 216 123 216 124 l 221 113 q 225 106 222 111 q 229 100 229 101 q 237 98 231 99 q 249 95 243 96 q 260 91 255 93 q 268 89 266 90 q 294 83 279 86 q 324 73 310 79 q 348 56 338 66 q 357 31 357 46 l 357 19 q 354 15 357 18 q 349 8 352 12 q 343 3 346 5 q 338 0 340 1 q 312 -1 330 0 q 272 -2 293 -1 q 233 -4 252 -3 q 206 -5 214 -5 l 112 -5 l 18 -5 q 16 0 17 -3 q 12 6 14 4 q 7 29 11 16 q 4 55 4 43 q 14 69 4 64 q 33 76 24 73 q 37 76 33 76 q 46 77 41 77 q 56 79 52 78 q 62 80 60 79 q 79 88 68 83 q 100 99 90 94 q 118 108 110 104 q 126 113 125 112 l 133 123 l 133 189 q 145 200 140 190 q 154 222 150 210 q 161 246 158 234 q 168 264 165 258 q 172 267 169 264 q 178 273 175 270 q 184 279 182 276 q 187 283 187 281 q 189 289 188 283 q 190 301 189 294 q 191 313 191 307 q 192 320 192 319 q 196 330 193 323 q 203 340 199 338 l 211 419 q 223 449 220 433 q 229 481 227 465 q 233 488 231 483 q 234 495 234 494 q 239 502 235 496 q 245 508 243 507 q 247 516 245 510 q 249 528 248 522 q 251 542 250 535 q 253 551 252 548 l 253 570 q 257 578 254 572 q 263 589 260 583 q 269 601 266 595 q 273 608 272 606 q 275 613 273 608 q 277 622 276 617 q 280 631 279 627 q 281 636 281 635 q 284 644 282 638 q 289 655 287 649 q 293 667 292 661 q 296 675 295 673 q 308 718 304 694 q 320 764 313 742 q 336 798 326 781 q 347 834 346 814 q 348 841 348 836 q 347 853 348 846 q 347 863 347 861 q 351 869 347 864 q 358 881 354 875 q 364 892 361 887 q 367 900 367 898 l 367 910 l 367 937 q 371 946 368 939 q 376 956 374 954 q 382 960 379 958 q 386 963 384 961 q 390 966 389 964 q 409 979 401 972 q 426 989 418 985 q 445 997 435 994 q 468 1000 454 1000 q 481 999 471 1000 q 494 998 490 998 q 508 986 500 993 q 517 970 515 979 q 527 916 525 943 q 537 863 530 888 q 538 857 537 861 q 541 853 539 854 q 544 845 542 850 q 545 839 545 840 l 545 815 q 555 786 549 800 q 564 758 561 772 q 566 748 564 756 q 569 730 568 740 q 572 712 571 721 q 573 702 573 704 q 575 696 574 701 q 578 688 576 692 q 581 679 580 683 q 584 675 583 675 q 589 652 585 668 q 597 620 593 637 q 606 587 602 602 q 611 566 610 572 q 644 485 634 527 q 663 400 654 444 q 665 394 663 399 q 668 387 667 389 q 689 330 680 358 q 711 273 699 302 q 709 267 710 271 q 708 257 709 262 q 706 247 707 252 q 705 241 705 243 l 705 235 l 705 231 q 708 226 705 230 q 714 217 711 222 q 721 208 718 212 q 724 202 724 203 q 737 173 733 187 q 746 144 741 158 q 758 118 751 131 q 781 95 765 106 q 783 92 781 94 q 785 89 785 90 q 796 84 789 88 q 804 80 803 80 q 815 78 806 79 q 835 75 825 77 q 855 73 846 74 q 867 72 864 72 q 874 68 869 71 q 884 62 879 65 q 891 56 888 59 q 895 48 895 52 q 892 37 895 46 q 886 18 890 28 q 878 -1 882 7 q 871 -9 874 -9 l 856 -9 l 848 -9 q 838 -9 842 -9 q 828 -5 833 -8 z "},"B":{"ha":879,"x_min":45,"x_max":795,"o":"m 340 632 q 347 591 340 609 q 360 551 353 573 q 368 533 365 541 q 377 518 372 524 q 390 508 382 511 q 413 505 399 505 l 416 505 q 422 508 418 505 q 431 512 427 510 q 440 517 436 515 q 445 519 444 519 q 453 521 447 520 q 466 522 459 522 q 479 524 473 523 q 487 524 486 524 q 505 530 494 525 q 527 543 516 536 q 547 558 538 550 q 562 572 557 566 q 572 582 568 577 q 578 592 575 587 q 583 602 581 597 q 591 614 586 607 q 598 621 591 615 q 604 628 604 627 q 610 638 607 631 q 615 648 614 645 q 616 656 615 649 q 619 674 617 664 q 622 693 621 684 q 625 707 623 703 l 625 715 l 625 722 q 624 728 625 724 q 623 736 623 732 q 621 745 622 741 q 620 749 621 749 q 612 762 617 759 q 601 773 606 765 q 596 783 600 774 q 591 792 593 791 q 584 800 589 794 q 573 811 579 805 q 562 823 567 817 q 554 831 556 829 q 529 845 546 837 q 494 860 513 853 q 458 872 475 867 q 433 878 441 878 q 402 877 416 878 q 370 873 389 876 q 361 853 364 863 q 358 832 359 843 q 357 810 357 821 q 356 789 357 800 q 348 761 355 773 q 340 736 340 749 q 343 711 340 723 q 347 686 347 700 q 343 659 347 672 q 340 632 340 646 m 347 76 l 390 50 q 397 47 390 47 q 427 49 411 47 q 454 53 442 51 q 471 55 461 54 q 491 58 481 57 q 508 61 500 60 q 515 62 515 62 q 522 66 517 62 q 532 74 527 70 q 543 82 538 78 q 549 85 547 85 q 582 111 565 96 q 612 142 598 125 q 634 179 625 159 q 643 220 643 199 l 643 228 q 641 236 643 229 q 638 245 638 244 l 638 293 q 634 300 636 297 q 631 307 633 304 q 628 311 629 309 q 626 314 628 313 q 625 317 625 315 q 621 323 623 318 q 615 335 618 329 q 609 347 612 342 q 604 354 606 353 q 602 357 604 355 q 597 364 600 360 q 591 372 594 368 q 586 378 588 376 q 572 390 581 385 q 557 401 564 394 q 555 405 557 402 q 551 411 553 408 q 547 417 549 414 q 545 420 545 420 q 499 441 525 435 q 450 454 473 448 q 443 456 448 454 q 431 458 437 457 q 419 461 425 460 q 413 463 414 463 q 404 463 412 463 q 391 463 395 463 q 380 463 388 463 q 370 463 372 463 q 365 456 369 461 q 360 450 361 450 q 356 442 359 447 q 352 433 354 437 q 348 424 350 428 q 347 420 347 420 q 345 411 346 418 q 344 396 345 404 q 342 382 343 389 q 340 373 341 375 q 336 338 339 355 q 332 302 332 321 l 332 288 q 333 281 332 286 q 335 270 334 276 q 336 258 336 263 q 337 251 337 252 q 338 221 337 242 q 338 177 338 200 q 338 133 338 153 q 337 104 337 113 l 347 76 m 64 -3 q 50 3 56 -2 q 45 16 45 9 q 46 34 45 24 q 53 50 47 45 q 60 51 55 50 q 68 53 65 52 q 78 54 71 53 q 92 55 84 54 q 106 57 100 56 q 115 58 113 58 l 162 58 q 174 59 166 58 q 188 64 181 61 q 201 70 195 66 q 209 76 207 73 q 211 84 210 78 q 213 96 212 90 q 214 107 214 102 q 215 115 215 113 q 212 124 215 116 q 209 132 209 132 q 210 137 209 133 q 212 147 211 142 q 214 156 213 152 q 215 162 215 161 l 215 185 q 210 244 215 216 q 204 302 204 273 l 204 307 q 205 312 204 308 q 207 319 205 315 q 208 326 208 323 q 209 331 209 330 l 209 358 l 209 426 q 211 435 210 428 q 215 451 213 442 q 218 468 217 460 q 220 477 220 475 q 217 486 220 479 q 215 496 215 494 l 215 501 l 215 515 q 210 522 214 516 q 204 528 205 527 l 204 532 l 204 532 q 210 543 205 536 q 215 551 214 550 q 218 581 218 567 q 218 610 218 595 q 219 645 218 628 q 228 680 220 663 q 228 692 228 683 q 229 710 229 701 q 229 729 229 720 q 229 741 229 738 q 229 757 229 747 q 229 777 229 767 q 228 794 229 787 q 228 802 228 802 q 228 809 228 804 q 227 820 227 814 q 225 831 226 825 q 223 839 224 836 q 220 856 222 848 q 209 868 218 864 q 193 869 205 868 q 169 870 182 869 q 145 871 157 871 q 130 873 134 872 q 122 873 127 873 q 111 875 117 874 q 101 876 106 876 q 96 878 97 877 q 91 880 95 878 q 83 884 87 882 q 75 888 79 886 q 68 892 71 890 q 60 899 65 893 q 53 906 55 904 l 53 909 q 59 932 53 922 q 77 948 66 943 l 143 948 q 305 943 225 948 q 467 937 385 937 q 481 938 471 937 q 503 938 492 938 q 524 938 514 938 q 538 939 534 939 q 547 942 542 940 q 554 943 551 943 q 559 941 555 943 q 562 939 561 939 q 570 937 564 938 q 582 934 576 935 q 594 931 589 932 q 601 929 600 930 q 604 928 602 929 q 610 924 607 926 q 616 921 614 922 q 620 920 619 920 q 661 901 642 910 q 701 878 680 892 q 709 870 707 873 q 714 863 712 867 q 718 855 716 859 q 724 844 720 850 q 742 812 734 824 q 753 787 749 800 q 760 760 758 775 q 762 720 762 745 l 762 705 q 759 650 762 680 q 747 598 757 620 q 742 592 746 597 q 735 581 739 587 q 728 569 731 574 q 724 562 724 564 q 719 552 721 557 q 714 543 716 547 q 709 535 712 539 q 701 528 706 531 q 678 516 690 522 q 655 506 667 511 q 634 494 644 500 q 615 477 623 487 q 626 466 619 470 q 639 460 632 463 q 653 456 646 458 q 667 450 661 454 q 685 437 675 442 q 704 426 695 431 q 743 380 728 408 q 771 326 759 352 q 788 281 782 303 q 795 233 795 260 l 795 228 q 777 167 788 199 q 751 109 766 135 q 743 97 747 102 q 734 88 739 92 q 725 79 730 83 q 713 67 720 74 q 708 61 712 66 q 700 50 704 56 q 691 40 695 45 q 686 34 687 35 q 677 30 684 33 q 667 24 670 26 q 653 19 663 22 q 633 13 644 16 q 613 5 623 9 q 601 0 604 2 q 577 0 594 0 q 540 -1 559 -1 q 503 -2 520 -2 q 479 -3 486 -3 q 469 -4 477 -3 q 452 -6 461 -5 q 436 -7 444 -7 q 426 -8 428 -8 l 421 -8 q 414 -7 417 -8 q 408 -3 412 -7 l 395 -3 q 352 -1 372 -3 q 309 2 331 2 q 285 1 296 2 q 262 -3 274 -1 q 256 -6 260 -3 q 252 -8 252 -8 l 250 -8 q 235 -6 242 -8 q 220 -3 227 -3 q 190 -6 204 -3 q 161 -8 176 -8 q 114 -7 136 -8 q 64 -3 91 -6 z "},"C":{"ha":924,"x_min":67,"x_max":840,"o":"m 86 381 l 75 400 q 74 410 75 401 q 72 432 73 420 q 69 458 71 445 q 67 481 68 472 l 67 489 l 67 500 q 70 528 68 509 q 74 566 72 547 q 78 602 76 585 q 81 622 80 618 q 101 679 85 652 q 133 730 116 705 q 143 745 136 734 q 159 768 151 755 q 174 790 167 780 q 184 805 182 801 q 214 825 200 814 q 240 848 227 836 q 266 872 253 860 q 292 894 279 884 q 301 900 295 897 q 308 905 307 903 q 311 905 308 905 q 316 907 313 906 q 322 909 319 908 q 326 909 326 909 q 336 912 328 909 q 354 919 345 916 q 372 925 363 922 q 382 928 380 928 q 432 936 406 935 q 484 937 458 937 l 538 937 l 595 937 q 605 935 597 937 q 621 930 612 932 q 636 926 629 928 q 647 924 644 924 q 689 906 670 914 q 731 890 707 898 l 732 890 q 752 893 743 890 q 771 900 762 897 q 789 907 780 904 q 808 910 798 910 q 817 902 814 910 q 819 884 819 894 q 819 871 819 878 q 818 861 818 865 q 819 852 818 859 q 821 844 821 845 l 821 806 l 821 792 q 824 773 821 782 q 829 754 827 764 q 834 736 832 745 q 837 717 837 727 q 836 691 837 703 q 832 668 836 679 q 822 650 829 658 q 802 636 814 642 q 791 632 798 634 q 783 630 784 630 l 744 650 l 743 654 q 741 659 741 658 q 734 679 739 665 q 724 709 729 693 q 714 739 719 725 q 708 758 709 753 q 702 766 706 760 q 693 777 698 771 q 685 789 689 783 q 678 797 680 795 q 671 803 676 799 q 662 812 667 808 q 652 820 656 817 q 647 823 648 823 q 640 825 646 824 q 628 827 634 826 q 615 828 621 827 q 608 828 610 828 q 602 830 607 828 q 595 834 596 833 l 578 834 l 572 834 q 566 840 569 834 q 561 847 562 846 q 563 856 561 850 q 564 863 564 862 q 554 865 562 863 q 543 867 547 867 l 543 867 q 538 862 541 867 q 533 858 534 858 q 523 851 530 856 q 514 847 515 847 l 477 847 q 469 845 475 847 q 463 844 464 844 l 456 844 q 443 845 449 844 q 430 847 436 847 q 410 843 422 847 q 392 834 398 839 q 383 825 390 832 q 368 810 376 818 q 353 795 360 802 q 344 786 346 788 q 340 784 342 785 q 338 782 339 783 q 336 781 336 782 q 331 778 334 781 q 324 772 328 775 q 317 766 320 769 q 313 762 313 763 q 302 749 309 758 q 288 728 296 739 q 274 707 280 717 q 265 692 267 696 q 263 688 264 692 q 259 677 261 684 q 254 665 256 671 q 250 656 252 659 q 249 650 250 654 q 247 641 248 646 q 243 631 245 635 q 242 627 242 627 q 238 621 241 625 q 234 610 236 616 q 229 600 231 605 q 227 593 227 595 l 227 556 l 227 541 q 225 534 227 539 q 223 525 224 530 q 220 515 222 519 q 218 509 219 511 l 218 405 q 223 389 224 397 q 227 372 223 381 q 229 370 227 370 l 231 368 q 243 324 241 348 q 250 278 245 300 q 253 273 250 277 q 255 269 255 270 q 271 232 263 250 q 288 198 279 214 q 308 165 296 181 q 336 136 319 150 q 353 123 343 131 q 373 113 363 116 q 381 111 375 112 q 395 109 388 110 q 408 106 402 107 q 416 104 414 105 q 421 100 418 103 q 428 93 425 96 q 435 85 432 89 q 439 81 438 82 q 448 79 441 80 q 462 77 454 78 q 476 76 469 77 q 486 76 484 76 q 492 75 488 76 q 500 73 496 74 q 509 71 505 72 q 514 71 513 71 q 556 82 534 72 q 589 108 577 93 q 592 114 591 110 q 595 117 594 117 q 603 123 598 122 q 614 124 608 124 q 622 124 618 124 q 629 123 626 123 l 631 123 q 637 125 633 123 q 642 128 641 126 q 646 133 643 130 q 653 141 650 137 q 661 150 657 146 q 665 155 664 153 q 669 161 666 156 q 674 173 671 167 q 680 183 677 178 q 684 189 683 188 q 702 213 693 202 q 717 241 710 223 q 727 273 722 254 q 736 307 732 292 q 736 310 736 307 q 738 317 737 313 q 740 325 739 321 q 741 330 741 329 q 759 364 745 351 q 793 376 772 376 q 816 371 807 376 q 830 357 825 366 q 838 337 836 349 q 840 315 840 326 q 840 301 840 308 q 834 288 839 295 l 834 183 q 839 177 838 180 q 840 170 840 174 l 840 165 q 838 158 840 163 q 833 145 836 152 q 829 132 831 138 q 825 123 827 126 q 822 117 824 120 q 821 113 821 114 q 795 100 808 104 q 770 95 783 97 q 745 90 758 93 q 721 81 732 87 q 715 76 720 79 q 707 68 711 72 q 699 61 703 64 q 694 58 694 58 q 661 37 678 46 q 627 24 644 28 q 559 5 593 14 q 490 -5 526 -5 q 445 -3 468 -5 q 397 3 421 -1 q 351 12 374 7 q 308 24 328 18 q 296 30 300 26 q 289 39 292 34 q 283 48 286 43 q 273 58 279 54 q 266 62 272 58 q 252 70 260 65 q 238 78 245 74 q 227 85 231 83 q 220 88 222 87 q 217 90 218 89 q 213 93 215 91 q 208 100 211 96 q 205 104 208 100 q 199 113 202 108 q 193 122 196 118 q 189 128 190 127 q 184 132 188 129 q 177 139 181 136 q 170 146 174 143 q 165 151 166 150 q 162 156 165 152 q 157 163 160 159 q 151 172 154 168 q 148 178 149 176 q 120 229 132 205 q 101 276 109 253 q 90 325 94 300 q 86 381 86 351 z "},"D":{"ha":1035,"x_min":46,"x_max":974,"o":"m 342 245 q 343 229 342 241 q 345 205 344 218 q 346 181 345 193 q 347 165 347 170 q 351 138 349 151 q 357 112 353 124 q 369 89 361 99 q 389 71 376 78 l 418 71 l 446 71 q 451 73 447 71 q 460 75 456 74 q 469 78 465 77 q 474 81 473 80 q 481 81 476 81 q 493 83 487 82 q 505 84 499 83 q 511 85 510 85 q 550 97 533 89 q 582 115 567 104 q 612 138 597 125 q 644 165 627 151 q 657 175 651 171 q 669 183 663 179 q 680 191 674 186 q 691 202 686 195 q 694 207 692 203 q 696 212 696 211 q 704 221 697 214 q 719 236 711 228 q 734 250 727 243 q 743 259 741 257 q 746 264 743 260 q 752 271 749 267 q 758 277 755 274 q 762 283 760 281 q 770 307 769 294 q 776 330 771 319 q 779 334 777 331 q 784 342 781 338 q 788 349 786 346 q 791 353 790 352 q 799 379 795 364 q 805 410 803 394 q 809 441 808 426 q 810 468 810 456 q 809 476 810 471 q 809 487 809 481 q 809 495 809 492 q 808 500 808 499 q 806 506 808 501 q 804 513 804 511 l 804 521 q 807 539 804 530 q 810 557 810 548 q 802 590 810 574 q 785 620 795 605 q 766 649 775 634 q 752 680 756 663 q 751 683 751 680 q 750 690 750 686 q 749 697 749 694 q 749 703 749 701 q 743 711 747 705 q 734 724 739 718 q 726 737 730 731 q 720 745 722 743 q 680 766 696 751 q 644 792 663 780 q 638 795 642 793 q 630 799 634 797 q 624 803 627 802 q 621 805 621 805 q 601 823 611 812 q 578 839 590 834 q 570 842 576 840 q 557 846 564 844 q 543 850 549 848 q 535 853 537 852 q 529 855 534 853 q 519 860 525 857 q 509 865 513 863 q 503 867 504 867 l 487 867 l 446 867 q 437 869 445 867 q 427 871 429 871 q 425 871 426 871 q 420 873 422 873 q 398 871 410 873 q 378 865 387 869 q 361 853 368 861 q 352 834 354 846 q 351 826 351 832 q 349 813 350 820 q 348 799 349 806 q 347 787 347 791 q 347 784 347 786 q 346 781 346 783 q 347 779 346 779 q 347 777 347 777 q 349 770 347 776 q 352 764 351 765 l 350 636 l 350 612 l 347 494 q 351 486 351 490 q 352 476 352 481 q 348 446 352 461 q 342 415 343 431 l 342 400 l 342 368 q 341 343 342 356 q 338 321 340 331 q 336 316 338 320 q 333 306 335 311 q 330 297 331 301 q 328 292 328 293 l 328 286 q 333 264 328 275 q 342 245 337 254 m 205 6 q 189 5 196 6 q 174 0 182 5 l 77 0 q 74 1 77 0 q 67 4 71 2 q 60 7 63 5 q 54 11 56 9 q 47 23 48 16 q 46 37 46 31 l 46 43 q 46 51 46 47 q 50 58 47 55 q 60 61 52 58 q 69 66 68 64 q 73 69 70 66 q 78 75 75 72 q 84 81 81 79 q 88 85 87 84 l 98 85 q 111 83 105 85 q 124 81 117 81 q 149 82 137 81 q 174 85 160 83 q 200 100 192 88 q 210 132 208 113 q 211 141 210 133 q 213 161 212 150 q 215 183 214 172 q 216 202 216 195 l 216 208 q 215 215 216 212 q 210 222 214 217 l 210 257 l 210 292 q 212 307 210 295 q 216 332 214 319 q 219 357 218 346 q 220 372 220 369 l 220 463 q 221 466 220 463 q 222 472 222 469 q 224 478 223 475 q 224 481 224 481 l 224 482 l 224 486 q 215 535 220 512 q 210 587 210 559 l 210 622 q 211 626 210 623 q 213 632 212 629 q 215 637 214 635 q 216 641 216 640 l 216 689 l 216 706 q 216 714 216 708 q 218 728 217 721 q 220 742 219 735 q 220 749 220 748 l 220 793 l 220 829 q 218 838 220 831 q 214 850 216 844 q 210 863 212 857 q 205 871 208 869 q 191 873 201 872 q 170 877 181 875 q 149 879 159 878 q 135 881 139 880 q 109 882 122 882 q 84 885 96 882 q 66 897 73 888 q 59 924 59 905 l 59 928 q 60 934 59 931 q 64 937 60 937 q 77 940 68 938 q 95 945 85 943 q 114 949 105 947 q 127 951 123 951 l 146 951 q 152 952 149 951 q 159 953 155 953 q 170 951 165 953 q 177 947 174 950 q 203 945 184 946 q 241 942 221 943 q 280 939 262 941 q 305 937 298 938 l 310 937 q 354 941 333 937 q 399 947 376 944 l 400 947 l 404 947 q 429 945 410 946 q 467 942 447 943 q 506 939 488 941 q 532 937 524 938 q 538 936 532 937 q 545 932 543 934 l 550 932 l 555 932 q 564 935 556 932 q 574 937 571 937 l 575 939 q 576 938 576 939 q 577 938 576 938 q 578 937 578 937 q 586 935 580 937 q 593 932 591 932 q 606 930 595 932 q 630 926 617 928 q 654 922 643 924 q 667 920 665 920 q 674 917 669 918 q 682 914 680 915 q 685 913 682 914 q 691 909 688 911 q 696 906 694 907 q 699 905 699 905 q 710 902 702 903 q 720 900 718 900 q 726 896 720 899 q 733 890 732 892 q 739 886 734 890 q 748 879 743 883 q 756 871 752 875 q 762 867 760 867 q 780 858 770 860 q 799 847 790 856 q 811 836 803 844 q 827 821 819 829 q 842 806 835 812 q 850 797 848 799 q 859 786 852 795 q 872 768 865 778 q 885 751 879 759 q 893 741 892 743 q 898 735 895 739 q 903 730 902 732 q 916 709 911 720 q 922 687 920 698 q 926 664 924 675 q 932 641 928 652 q 933 637 932 640 q 936 632 935 635 q 939 626 937 629 q 940 622 940 623 q 943 615 941 621 q 945 609 945 610 q 956 586 951 595 q 965 569 961 577 q 971 551 969 561 q 974 524 974 541 q 971 507 974 515 q 964 490 968 498 q 958 474 961 482 q 955 456 955 465 q 957 426 955 441 q 960 395 960 411 l 960 376 q 958 374 960 376 q 955 368 957 371 q 951 362 953 365 q 950 358 950 359 l 950 350 l 950 330 q 945 322 949 328 q 940 315 941 317 q 929 285 932 302 q 921 254 926 268 q 903 223 916 237 q 880 193 889 209 q 844 142 865 168 q 799 100 823 117 q 794 96 798 98 q 785 92 790 94 q 777 87 781 90 q 772 85 772 85 q 751 70 760 78 q 728 58 741 62 q 682 39 705 47 q 640 14 658 31 q 618 13 633 14 q 587 10 604 12 q 556 7 571 8 q 535 5 541 5 q 526 2 534 5 q 516 0 519 0 q 498 -1 511 -1 q 468 -3 484 -2 q 438 -4 452 -3 q 418 -5 424 -5 l 357 -5 l 299 -5 q 253 1 276 -3 q 205 6 230 6 z "},"E":{"ha":983,"x_min":46,"x_max":937,"o":"m 346 855 l 346 857 l 346 855 m 46 33 q 55 53 46 42 q 77 64 64 64 q 90 65 82 64 q 106 66 98 66 q 134 65 126 66 q 143 64 142 64 l 151 64 q 169 65 159 64 q 188 68 179 66 q 204 74 197 70 q 214 85 212 78 l 214 119 q 215 177 214 149 q 218 233 216 205 q 221 246 220 239 q 225 262 222 252 q 224 272 224 264 q 225 297 224 287 q 227 326 225 308 q 227 331 227 329 q 229 334 228 333 q 229 361 229 348 q 231 389 230 375 q 229 400 230 392 q 227 414 228 409 q 225 424 226 417 q 224 437 224 431 q 222 450 223 444 q 222 456 222 455 l 222 532 q 219 540 220 533 q 218 555 218 547 q 219 574 219 562 q 220 598 220 586 q 221 619 221 610 q 222 629 222 628 q 222 633 222 630 q 224 640 223 637 q 226 646 225 643 q 227 651 227 650 q 225 663 227 656 q 222 675 224 669 q 218 698 218 686 q 218 718 218 707 q 220 738 218 728 q 221 758 220 747 q 222 778 222 768 q 221 796 222 785 q 220 818 220 806 q 218 838 218 829 q 218 852 218 846 q 206 865 215 860 q 186 872 197 869 q 164 877 175 876 q 146 878 153 878 q 138 877 142 878 q 130 874 134 876 q 122 872 125 873 q 113 871 118 871 q 93 873 104 871 q 71 879 81 875 q 53 890 60 883 q 46 907 46 897 q 47 920 46 915 q 53 926 47 924 q 68 929 58 927 q 88 932 79 932 q 111 931 94 932 q 148 929 128 930 q 184 927 166 928 q 209 927 201 927 q 227 923 218 924 q 254 922 236 922 q 260 924 257 923 l 270 926 q 274 927 273 927 q 278 927 275 927 l 358 927 q 362 927 359 927 q 371 929 366 928 q 378 931 374 930 q 384 932 381 932 l 590 932 q 608 932 593 932 q 638 929 623 931 q 659 927 650 927 q 694 929 677 927 q 712 931 704 930 q 730 932 721 932 q 762 930 748 932 q 777 927 777 928 q 785 926 779 927 q 799 925 791 926 q 812 924 806 924 q 820 922 819 923 q 838 908 831 920 q 846 887 844 896 q 850 861 849 871 q 850 836 850 850 q 850 801 850 815 q 850 778 850 787 q 848 763 849 769 q 847 752 848 758 q 844 730 846 741 q 842 718 842 720 l 842 699 q 841 687 842 693 q 836 675 840 681 q 828 675 833 675 q 821 675 823 675 q 795 688 809 675 q 768 718 781 701 q 745 752 755 735 q 730 779 734 770 q 725 791 728 783 q 717 808 722 799 q 709 826 713 817 q 703 838 705 836 q 691 851 699 843 q 673 859 682 859 l 556 859 q 513 867 536 866 q 466 869 490 868 q 441 870 454 869 q 418 871 429 871 q 406 873 412 871 q 395 876 401 875 q 384 880 390 878 q 371 882 377 882 q 360 876 366 882 q 351 863 354 869 q 347 858 347 860 q 349 833 349 850 q 349 799 349 817 q 349 764 349 781 q 347 741 349 747 q 344 718 347 727 q 341 706 342 712 q 339 690 339 699 q 342 677 340 684 q 345 664 343 670 q 351 639 349 652 q 353 610 353 626 q 353 594 353 602 q 351 576 352 585 l 347 541 l 347 517 l 351 511 q 361 510 351 511 q 378 509 372 509 q 391 508 381 508 q 413 508 401 508 q 435 508 425 508 q 450 509 445 508 q 451 509 450 509 q 453 508 452 508 q 463 504 458 505 q 474 503 468 503 q 485 504 479 503 q 495 506 490 505 q 505 508 500 507 q 519 509 509 509 q 526 508 522 509 q 532 507 529 507 q 537 506 535 506 q 546 504 542 505 q 555 503 551 503 q 569 508 563 503 q 580 520 576 513 q 587 535 585 527 q 591 551 590 544 q 592 562 591 554 q 593 578 592 570 q 594 594 593 587 q 596 603 595 602 q 602 617 600 612 q 604 621 604 623 l 604 627 q 607 641 606 633 q 617 652 609 650 q 621 654 618 653 q 628 657 624 656 q 636 660 632 659 q 642 661 640 661 q 664 652 655 661 q 675 636 672 643 l 675 475 q 675 467 675 473 q 676 452 675 460 q 677 437 677 444 q 678 428 678 430 q 676 410 678 424 q 671 381 674 397 q 667 354 668 366 q 665 339 665 342 q 663 323 663 332 q 661 303 662 313 q 656 285 659 293 q 646 272 652 277 q 627 267 639 267 q 609 272 616 267 q 599 287 602 278 q 594 305 595 295 q 593 325 593 315 q 592 330 593 327 q 591 334 591 333 q 585 363 589 347 q 575 392 582 378 q 559 416 569 406 q 534 428 549 426 l 508 431 q 483 432 496 432 q 463 434 470 433 q 442 433 452 434 q 425 433 433 433 q 412 433 417 433 q 406 434 408 433 q 399 435 401 434 q 389 437 391 437 l 378 437 q 366 435 370 437 q 359 431 362 433 q 356 428 357 429 q 352 426 354 427 q 347 424 349 425 l 328 424 q 328 414 328 419 q 328 405 328 409 q 328 400 328 401 q 326 395 328 398 q 322 386 325 391 q 320 378 320 380 q 321 372 320 376 q 323 363 321 368 q 324 357 324 360 q 326 350 325 355 q 327 339 326 345 q 328 328 327 333 q 328 319 328 322 q 330 316 330 318 q 330 313 330 315 l 330 312 q 334 309 334 309 q 340 289 338 299 q 344 267 342 278 q 345 248 345 262 q 346 217 345 233 q 347 185 347 200 q 347 163 347 170 l 347 93 q 356 72 349 79 q 375 61 364 65 q 399 57 387 58 q 422 56 412 56 l 446 56 q 464 59 449 58 q 511 60 478 60 q 517 60 513 60 q 524 61 520 61 q 549 63 536 62 q 566 66 562 64 q 568 66 567 66 q 571 67 570 67 q 574 69 572 68 q 580 72 579 71 q 585 74 581 73 q 596 70 588 74 q 606 64 605 66 q 616 63 610 64 q 629 63 623 63 q 641 63 635 63 q 649 63 646 63 q 660 63 653 63 q 673 63 666 63 q 685 63 680 63 q 690 64 690 64 q 691 65 690 64 q 692 65 692 65 q 694 66 693 66 q 714 68 707 66 q 728 75 721 71 q 735 80 734 79 q 737 81 736 81 l 736 81 q 750 86 745 85 q 760 88 755 87 q 774 92 768 90 q 783 96 780 94 q 785 98 784 98 q 789 101 787 99 q 796 107 792 104 q 804 115 800 111 q 811 121 808 118 q 815 124 814 123 q 817 126 817 125 q 819 132 817 127 q 824 142 823 140 q 836 168 830 156 q 848 190 841 180 q 865 208 855 200 q 889 223 875 216 q 892 224 891 223 q 900 228 894 224 q 904 230 901 229 q 907 231 906 231 l 911 233 q 920 228 914 233 q 926 220 926 222 l 926 196 q 929 185 926 195 q 934 173 932 179 q 937 163 937 166 l 937 143 q 935 98 937 123 q 932 58 933 74 q 916 29 928 39 q 889 13 905 18 q 857 6 874 7 q 824 5 840 5 l 765 5 q 754 10 759 9 q 741 11 749 11 q 740 11 741 11 q 731 8 739 10 q 722 5 724 5 q 718 5 720 5 q 705 3 714 3 q 685 1 695 2 q 666 0 675 1 q 654 0 657 0 l 330 0 q 316 1 322 0 q 304 5 310 3 q 291 8 298 6 q 281 11 285 11 q 279 11 280 11 q 271 8 277 10 q 267 7 270 8 q 260 6 264 7 q 254 5 257 5 q 250 5 251 5 q 238 3 247 5 q 218 -1 230 1 q 191 -7 204 -4 q 172 -9 178 -9 l 157 -9 l 63 -12 q 59 -6 62 -12 q 54 6 56 -1 q 49 21 52 14 q 46 32 47 28 l 46 33 z "},"F":{"ha":851,"x_min":65,"x_max":830,"o":"m 65 50 q 68 64 65 57 q 78 77 72 71 q 91 86 83 83 q 106 90 98 90 q 127 87 117 90 q 149 85 136 85 q 159 85 153 85 q 171 87 165 86 q 182 92 177 89 q 190 100 187 95 q 191 106 190 102 q 194 115 193 111 q 197 124 196 120 q 198 129 198 127 l 198 142 l 198 157 q 197 163 198 158 q 196 173 197 168 q 195 183 196 178 q 195 189 195 188 q 196 202 195 193 q 198 214 197 211 l 198 529 q 195 550 195 543 q 195 570 195 558 l 195 581 q 195 588 195 584 q 198 595 195 591 l 198 709 q 207 749 205 727 q 208 791 208 770 l 208 806 q 205 823 208 812 q 196 847 201 835 q 184 868 191 859 q 171 879 178 878 q 157 877 166 878 q 139 876 149 876 q 121 877 130 876 q 109 879 112 878 q 85 888 96 879 q 75 910 75 898 q 76 918 75 916 q 81 926 78 920 q 98 947 88 939 q 124 958 107 956 q 136 959 126 958 q 157 960 145 960 q 180 962 169 961 q 198 963 192 963 l 245 963 q 337 958 292 963 q 429 953 382 953 q 465 954 449 953 q 505 958 481 954 q 512 960 507 958 q 519 963 517 962 l 684 963 q 708 957 693 959 q 730 953 723 954 q 745 953 733 953 q 768 954 758 954 q 778 954 773 954 q 783 953 782 954 q 788 951 784 953 q 796 946 791 949 q 805 939 800 943 q 812 934 810 936 q 814 930 812 932 q 815 928 814 929 q 816 926 816 926 q 818 916 817 922 q 821 904 820 910 q 824 893 823 898 q 825 887 825 888 l 825 857 l 825 845 q 826 837 825 843 q 828 824 827 831 q 829 810 829 817 q 830 802 830 804 l 830 794 l 830 789 q 828 772 829 782 q 825 752 827 762 q 822 735 823 742 q 820 728 821 728 l 796 704 l 788 704 q 775 713 782 709 q 764 720 770 716 q 754 728 758 724 q 747 737 751 731 q 741 746 743 743 q 737 752 740 747 q 731 763 734 757 q 725 773 728 768 q 722 779 723 778 q 699 817 711 798 q 669 850 687 837 q 666 851 669 850 q 660 854 663 852 q 655 857 657 856 q 652 859 652 859 q 641 869 648 862 q 632 879 633 876 q 623 880 629 879 q 608 881 616 880 q 594 882 600 882 q 585 882 587 882 l 458 882 q 449 883 456 882 q 432 885 441 884 q 415 886 423 886 q 406 887 408 887 l 401 887 q 374 879 384 887 q 359 857 364 870 q 352 829 354 844 q 349 802 351 814 q 342 721 346 762 q 338 641 338 680 q 339 596 338 615 q 345 553 340 577 q 360 534 347 538 q 385 529 372 529 q 417 534 402 529 q 450 540 433 540 q 474 537 463 540 q 497 534 486 534 q 516 537 505 534 q 537 548 527 541 q 554 563 547 555 q 562 581 562 571 q 561 585 562 581 q 558 593 559 589 q 556 600 557 597 q 555 604 555 604 q 567 661 555 635 q 599 709 579 687 q 607 715 604 713 q 618 717 610 717 q 633 709 627 717 q 643 689 639 701 q 649 667 647 678 q 652 651 651 656 q 651 633 652 648 q 650 604 650 618 q 650 592 650 597 q 652 585 650 587 q 653 581 652 585 q 656 574 654 578 q 659 566 657 570 q 660 562 660 563 l 660 553 l 660 545 q 657 534 660 542 q 655 524 655 526 l 655 445 q 654 435 655 443 q 651 418 652 427 q 648 402 650 410 q 646 393 646 395 l 646 379 l 646 374 q 643 351 644 359 q 637 331 641 343 q 633 321 635 328 q 629 309 631 315 q 625 298 627 302 q 623 293 623 294 q 611 285 620 286 q 597 284 603 284 q 578 289 585 284 q 568 302 572 294 q 561 319 564 310 q 555 336 558 328 q 554 341 555 337 q 552 348 553 345 q 549 355 551 352 q 547 359 548 359 q 541 384 543 372 q 536 407 539 396 q 526 426 533 417 q 505 440 519 434 l 489 440 q 459 442 473 440 q 432 445 446 444 q 406 449 419 447 q 376 450 392 450 q 370 450 374 450 q 360 449 365 450 q 351 449 355 449 q 345 448 347 448 q 338 434 341 443 q 332 416 334 426 q 327 397 329 407 q 326 381 326 388 q 327 349 326 364 q 330 317 328 334 q 333 308 330 315 q 335 298 335 300 q 334 288 335 296 q 333 270 334 279 q 331 252 332 260 q 330 241 330 243 l 330 216 l 330 189 q 331 175 330 185 q 333 154 332 165 q 334 133 334 142 q 335 119 335 123 q 348 101 338 109 q 368 90 359 93 l 378 90 l 406 90 q 412 89 407 90 q 420 87 418 88 q 425 84 420 85 q 430 82 429 82 q 440 80 433 81 q 456 78 448 79 q 471 77 464 77 q 481 76 478 76 q 493 61 491 73 q 496 37 496 49 l 496 31 q 495 20 496 26 q 490 11 494 15 q 482 5 489 9 q 471 1 475 2 q 467 0 471 1 q 460 -1 464 -1 q 452 -3 456 -2 q 448 -3 448 -3 q 421 -13 434 -8 q 394 -18 408 -18 q 357 -11 376 -18 q 321 -3 338 -5 q 300 -3 315 -3 q 265 -1 284 -2 q 229 0 246 -1 q 203 1 211 1 l 132 1 q 109 4 121 1 q 87 13 97 7 q 71 27 77 18 q 65 50 65 36 z "},"G":{"ha":971,"x_min":69,"x_max":937,"o":"m 69 376 l 69 424 l 69 471 q 70 477 69 472 q 72 487 71 481 q 73 497 73 492 q 74 505 74 503 l 74 556 q 93 627 77 590 q 127 692 109 663 q 132 699 127 693 q 141 712 136 705 q 151 728 146 720 q 159 739 156 735 l 163 744 q 167 750 164 745 q 173 760 170 755 q 178 771 176 766 q 182 777 181 776 q 188 783 184 779 q 198 793 193 788 q 209 803 203 798 q 216 810 214 808 q 220 813 216 810 q 229 820 224 817 q 238 825 234 823 q 244 828 243 828 q 247 831 245 829 q 253 838 250 834 q 259 844 256 841 q 263 847 262 846 q 268 850 264 848 q 276 855 271 852 q 285 860 281 858 q 291 863 290 862 q 321 885 307 871 q 352 909 336 898 q 367 915 361 914 q 385 918 373 915 q 396 921 387 918 q 413 927 404 924 q 431 933 422 930 q 441 937 439 937 l 474 937 q 481 939 475 937 q 488 941 487 941 l 494 941 q 573 935 534 941 q 652 928 612 929 q 671 918 661 922 q 693 912 682 915 q 716 908 705 910 q 739 903 728 906 q 760 892 751 900 q 785 880 768 885 q 827 868 811 871 q 851 857 843 864 q 863 835 860 849 q 866 793 866 821 q 863 759 866 778 q 852 723 860 740 q 832 693 845 705 q 800 682 819 682 q 791 682 796 682 q 785 683 787 682 q 780 685 783 683 q 773 689 777 686 q 766 693 769 691 q 762 697 762 696 q 752 708 759 700 q 738 725 745 716 q 724 742 730 734 q 715 753 717 750 q 711 769 713 760 q 704 786 709 779 q 690 806 697 795 q 673 825 682 817 q 653 840 664 834 q 629 847 642 846 l 606 847 l 597 847 q 592 849 596 847 q 582 854 587 852 q 573 860 577 857 q 568 863 569 862 q 552 866 560 866 q 536 867 545 867 l 514 867 l 479 867 q 462 861 469 865 q 449 852 455 857 q 437 841 443 847 q 422 828 431 834 q 413 824 421 827 q 404 820 405 821 q 401 816 404 819 q 395 810 398 813 q 389 804 392 807 q 385 800 386 801 q 367 786 376 793 q 352 767 357 779 q 351 763 352 766 q 348 755 349 760 q 344 748 346 751 q 342 744 342 745 q 338 739 341 743 q 331 732 335 736 q 323 724 327 728 q 318 720 319 721 q 316 716 318 720 q 312 709 314 713 q 308 701 310 705 q 305 697 306 698 q 301 692 304 696 q 295 685 298 689 q 290 677 292 681 q 287 673 287 674 q 278 653 279 665 q 271 630 277 641 l 268 627 q 259 609 262 618 q 254 589 256 600 q 251 569 252 579 q 248 551 250 559 q 246 546 248 550 q 243 538 245 543 q 241 531 242 534 q 239 528 239 528 q 225 477 230 500 q 221 424 221 454 q 224 377 221 399 q 232 335 227 355 q 247 295 238 315 q 268 254 256 275 q 280 225 274 241 q 295 198 286 209 q 301 191 297 196 q 311 181 306 186 q 322 171 317 176 q 329 164 327 166 q 345 159 334 160 q 361 155 355 158 q 372 151 364 154 q 380 146 379 148 q 391 137 383 144 q 406 121 398 130 q 421 105 414 113 q 432 94 429 97 q 490 81 460 84 q 549 79 519 79 q 578 84 565 79 q 606 98 592 90 q 626 115 617 108 q 640 136 635 122 q 640 144 640 138 q 642 158 641 151 q 643 171 642 165 q 644 178 644 177 q 646 187 644 180 q 649 198 648 195 q 651 205 649 199 q 652 211 652 210 l 652 241 q 656 263 654 252 q 662 284 659 273 q 666 306 664 295 q 668 331 668 317 q 667 356 668 342 q 664 385 667 370 q 657 412 662 399 q 644 433 652 425 q 625 445 635 442 q 604 447 615 447 l 596 447 l 583 447 q 565 452 575 448 q 545 462 555 456 q 528 477 535 469 q 522 494 522 485 l 522 498 q 529 507 523 502 q 535 513 534 513 l 649 513 q 660 518 654 517 q 673 519 667 519 q 689 516 681 519 q 704 511 696 514 q 719 506 711 508 q 734 503 726 503 q 738 504 736 503 q 743 505 740 505 q 748 507 744 505 q 756 511 752 509 q 765 515 761 513 q 770 517 769 517 q 779 518 772 517 q 791 519 787 519 l 803 519 q 817 517 810 519 q 827 511 823 516 l 921 511 q 929 508 926 511 q 933 501 932 505 q 936 493 935 497 q 937 486 937 488 q 927 462 937 470 q 903 451 918 454 q 872 446 889 448 q 841 442 856 445 q 815 432 826 439 q 804 410 805 425 q 802 389 804 404 q 799 359 801 375 q 796 330 798 344 q 793 311 794 316 q 794 295 793 308 q 795 270 795 281 q 795 259 795 264 q 793 254 795 255 q 793 248 793 252 q 792 239 792 244 q 791 231 791 235 q 790 225 790 227 l 790 186 l 790 146 q 792 140 791 144 q 793 136 793 137 q 798 132 795 135 q 804 125 801 129 q 810 117 807 121 q 813 113 812 114 q 815 106 814 111 q 819 97 817 102 q 821 87 820 92 q 823 81 822 82 q 816 68 822 73 q 803 61 810 64 q 788 56 795 58 q 776 52 780 54 q 772 49 774 52 q 766 44 769 47 q 760 40 763 42 q 757 37 758 37 q 753 36 757 37 q 745 33 749 35 q 735 31 740 32 q 729 28 731 29 q 719 26 727 28 q 710 24 711 24 q 706 22 709 24 q 700 19 703 21 q 694 16 697 17 q 691 14 692 14 q 681 13 689 14 q 663 12 672 12 q 645 10 653 11 q 634 8 636 9 q 627 7 632 8 q 615 5 621 6 q 605 2 610 3 q 597 0 600 1 l 418 0 q 387 9 403 0 q 357 24 371 19 q 334 29 343 27 q 315 37 324 31 q 312 39 314 37 q 307 42 309 40 q 302 45 304 44 q 300 47 300 47 q 294 49 298 47 q 286 52 290 50 q 277 55 281 54 q 271 58 273 56 q 252 72 260 62 q 234 89 243 81 q 229 94 232 91 q 221 99 225 96 q 214 105 218 102 q 210 108 211 107 q 206 111 210 109 q 197 115 202 113 q 188 119 193 117 q 182 122 184 121 q 180 126 182 123 q 175 134 178 130 q 171 141 173 138 q 168 146 169 145 l 165 148 q 163 151 163 149 q 146 175 155 162 q 130 202 137 188 q 128 212 130 203 q 127 222 127 220 q 108 257 119 239 q 88 292 96 275 q 82 312 84 302 q 78 334 80 323 q 75 355 77 345 q 69 376 73 366 z "},"H":{"ha":1166,"x_min":58,"x_max":1109,"o":"m 66 42 q 68 50 66 44 q 74 62 71 56 q 81 73 77 68 q 86 79 84 77 q 96 82 87 80 q 109 83 105 83 q 120 85 113 84 q 136 86 127 85 q 151 88 144 87 q 162 89 159 89 q 174 97 167 92 q 186 107 180 102 q 198 119 193 113 q 205 132 203 125 q 203 148 203 136 q 203 174 203 159 q 203 199 203 187 q 205 216 203 212 q 205 239 205 223 q 205 274 205 254 q 206 315 205 294 q 207 356 207 336 q 208 390 208 375 q 210 413 209 406 q 211 423 210 416 q 213 433 213 430 l 213 435 q 211 454 213 445 q 210 474 210 463 q 209 480 210 477 q 208 487 208 484 q 213 498 208 494 l 213 677 q 218 697 217 688 q 218 715 218 706 q 216 740 218 729 q 213 765 213 751 q 215 782 213 774 q 218 799 218 790 l 218 805 q 217 810 218 806 q 214 818 216 814 q 211 827 212 823 q 210 834 210 831 q 196 847 205 846 q 175 852 188 848 q 172 854 175 852 q 166 857 170 855 q 160 861 163 859 q 157 863 157 862 q 151 864 155 863 q 142 867 146 865 q 133 870 137 869 q 128 871 129 871 q 122 872 127 871 q 112 874 117 873 q 102 875 106 875 q 96 876 97 876 q 86 879 92 877 q 73 885 79 882 q 62 892 67 888 q 58 902 58 897 q 61 913 58 907 q 68 926 64 920 q 79 936 73 932 q 90 941 85 941 q 102 940 92 941 q 115 937 113 939 l 117 937 l 119 937 q 183 946 151 945 q 248 947 216 947 l 288 947 q 302 939 297 941 q 316 937 308 937 l 327 937 q 334 939 328 937 q 340 941 340 941 q 371 945 354 944 q 403 947 388 947 q 427 946 416 947 q 448 941 439 945 q 464 930 457 938 q 477 909 471 922 l 477 906 l 477 905 q 456 883 469 891 q 429 871 444 875 q 399 865 414 867 q 369 863 383 863 q 355 842 361 851 q 345 828 349 835 q 340 820 340 821 l 338 677 l 338 664 l 336 545 q 342 536 338 543 q 352 520 347 528 q 360 505 356 511 q 364 498 363 498 l 787 498 q 798 496 791 498 q 808 494 805 494 q 815 496 812 494 q 819 503 818 499 q 821 511 821 507 q 822 517 821 515 q 823 530 822 522 q 825 549 824 539 q 826 568 825 559 q 827 580 827 576 l 827 703 q 827 708 827 703 q 829 719 828 713 q 830 729 829 724 q 831 734 831 734 q 828 743 831 737 q 823 749 826 748 l 823 844 q 821 850 823 845 q 816 858 819 854 q 814 860 815 859 q 813 861 814 861 q 811 863 812 862 q 802 863 808 863 q 788 865 795 864 q 774 866 781 865 q 764 867 767 867 l 761 867 q 742 865 750 867 q 723 863 734 863 q 703 865 714 863 q 681 873 691 868 q 664 886 671 878 q 656 906 656 895 q 662 924 656 916 q 676 936 668 931 q 694 944 685 941 q 711 947 704 947 q 744 946 727 947 q 774 937 761 945 l 911 937 q 916 938 912 937 q 923 939 919 939 q 930 940 927 939 q 935 941 933 941 q 939 947 936 943 q 944 951 943 951 l 952 951 q 971 948 964 951 q 991 945 979 945 q 1011 948 1003 945 q 1031 951 1019 951 l 1044 951 q 1050 949 1044 951 q 1057 947 1055 947 q 1070 945 1061 946 q 1087 942 1079 945 q 1102 935 1096 940 q 1109 921 1109 930 q 1101 899 1109 907 q 1083 886 1094 891 q 1060 879 1072 882 q 1039 876 1048 877 q 1029 875 1037 876 q 1013 874 1021 875 q 996 872 1004 873 q 986 871 988 871 q 982 869 985 871 q 978 867 979 868 q 972 861 976 865 q 965 853 969 857 q 958 845 962 848 q 954 839 955 841 l 954 836 l 954 834 q 957 822 956 827 q 960 813 958 817 q 962 803 961 808 q 962 791 962 798 q 960 730 962 760 q 958 669 958 700 q 960 607 958 638 q 962 545 962 576 q 960 513 962 529 q 958 481 958 498 l 958 463 q 958 452 958 460 q 960 433 959 443 q 962 415 961 424 q 962 405 962 407 l 962 323 l 962 241 q 960 233 962 239 q 958 221 959 227 q 955 210 956 215 q 954 202 954 204 l 954 198 q 956 183 954 191 q 958 170 958 176 q 956 139 958 155 q 954 108 954 123 l 954 98 q 960 92 954 96 q 967 89 963 90 q 977 86 970 88 q 991 82 983 84 q 1005 77 998 79 q 1014 75 1012 75 q 1035 71 1021 73 q 1062 64 1048 68 q 1085 53 1075 60 q 1095 35 1095 46 q 1089 13 1095 22 q 1073 -1 1082 4 q 1051 -8 1063 -6 q 1028 -11 1039 -11 q 1018 -10 1023 -11 q 1009 -6 1014 -9 q 956 -1 981 -3 q 905 0 931 0 l 869 0 l 792 0 q 788 -3 791 -1 q 779 -6 784 -5 q 770 -9 774 -7 q 764 -11 766 -10 q 755 -8 763 -11 q 745 -6 748 -6 q 735 -5 743 -6 q 720 -5 728 -5 q 704 -5 712 -5 q 694 -6 696 -6 q 684 9 688 2 q 680 24 680 16 q 683 41 680 34 q 690 55 686 49 q 697 57 692 56 q 708 61 702 59 q 719 64 713 62 q 726 66 724 65 l 735 66 q 765 63 751 66 q 793 60 779 60 q 815 71 808 60 q 822 96 822 83 l 822 98 q 819 103 821 100 q 816 108 817 106 l 816 134 l 816 143 q 817 159 816 151 q 822 175 817 168 l 822 202 q 824 284 822 243 q 827 366 827 324 q 826 395 827 385 q 822 410 825 405 q 809 416 818 415 q 784 419 800 418 q 774 420 782 419 q 758 421 766 420 q 742 423 749 422 q 732 424 734 424 q 697 426 715 425 q 663 428 680 428 q 633 424 648 428 q 605 419 618 419 q 583 424 594 419 q 562 428 572 428 l 552 428 q 542 427 549 428 q 528 426 535 427 q 513 425 520 425 q 505 424 507 424 q 502 423 505 424 q 496 421 499 422 q 490 420 493 420 q 486 419 487 419 q 477 421 485 419 q 469 424 470 424 l 416 424 q 412 425 415 424 q 404 426 408 425 q 396 427 400 427 q 392 428 393 428 q 382 429 391 428 q 368 429 372 429 q 358 429 364 429 q 350 428 351 428 l 345 424 l 345 378 q 348 311 345 344 q 351 245 351 279 q 351 235 351 241 q 351 222 351 229 q 350 212 351 216 q 350 206 350 207 q 349 202 350 205 q 348 195 349 199 q 346 188 347 191 q 345 183 345 184 l 345 180 q 359 121 345 144 q 406 83 374 98 q 416 79 408 83 q 427 75 423 75 q 445 72 434 73 q 467 67 456 71 q 484 58 477 64 q 492 40 492 52 q 485 19 492 27 q 468 7 478 12 q 447 1 458 3 q 427 0 435 0 l 222 0 q 207 -7 216 -4 q 189 -12 198 -10 q 170 -14 179 -14 q 154 -15 161 -15 q 130 -10 145 -15 q 101 2 115 -5 q 76 20 87 10 q 66 42 66 31 z "},"I":{"ha":572,"x_min":49,"x_max":524,"o":"m 265 5 q 194 2 229 5 q 124 -1 159 -1 l 119 -1 q 99 2 111 0 q 76 8 87 3 q 57 20 64 12 q 49 40 49 27 q 50 47 49 43 q 54 55 50 52 q 60 58 55 57 q 68 60 66 60 q 106 62 87 62 q 143 66 125 63 q 178 78 161 70 q 208 102 195 86 q 210 161 208 132 q 213 218 213 190 q 211 239 213 230 q 208 259 208 249 l 208 271 q 209 278 208 273 q 211 289 210 283 q 212 299 212 294 q 213 305 213 304 l 213 407 q 214 412 213 408 q 215 420 214 416 q 217 427 216 424 q 218 431 218 430 q 218 438 218 432 q 218 451 218 444 q 219 466 218 458 q 219 477 219 473 q 219 487 219 480 q 218 502 218 494 q 218 516 218 509 q 218 524 218 522 q 216 534 218 527 q 213 545 214 542 l 213 550 q 218 570 213 561 q 224 593 224 580 l 224 601 q 222 613 224 607 q 218 624 221 618 l 218 671 q 221 719 218 696 q 224 765 224 742 l 224 774 q 222 778 223 775 q 220 784 221 781 q 218 790 219 787 q 218 793 218 793 q 220 803 218 796 q 224 812 222 810 l 224 817 q 214 840 224 829 q 195 855 205 852 q 173 859 189 856 q 140 864 157 861 q 108 870 123 867 q 87 874 93 873 q 62 887 71 878 q 54 914 54 897 q 65 936 54 928 q 93 948 77 944 q 125 952 109 951 q 150 953 141 953 l 157 953 q 170 951 159 953 q 192 949 180 950 q 214 946 204 947 q 227 945 224 945 q 240 943 231 943 q 260 943 250 943 q 280 943 271 943 q 294 945 290 943 q 311 939 302 940 q 325 939 320 939 q 378 944 353 939 q 435 949 404 949 l 473 949 q 490 940 481 944 q 506 932 498 937 q 519 921 514 928 q 524 902 524 914 q 522 890 524 897 q 516 878 520 884 q 507 867 513 871 q 496 863 502 863 q 466 859 481 861 q 435 858 451 858 q 401 859 418 858 q 368 863 385 861 q 366 860 367 863 q 365 855 365 857 q 366 850 365 854 q 367 843 366 846 q 368 836 367 839 q 368 832 368 832 l 368 821 q 366 808 368 814 q 361 795 363 802 q 356 784 359 789 q 354 771 354 778 l 354 762 q 357 753 355 760 q 360 746 359 747 l 360 719 l 360 709 q 362 703 361 705 q 365 694 365 696 q 367 660 366 676 q 368 624 368 644 q 361 581 368 602 q 354 536 354 559 l 354 535 q 356 530 355 534 q 360 522 358 526 q 363 512 362 517 q 365 507 365 508 l 365 482 q 359 432 365 456 q 354 381 354 407 q 357 316 354 348 q 360 251 360 283 l 360 193 q 357 180 359 189 q 354 169 355 171 q 353 165 354 168 q 352 159 353 162 q 350 153 351 156 q 349 149 349 150 q 350 142 349 148 q 351 129 351 136 q 353 116 352 122 q 354 106 353 109 q 361 92 356 97 q 372 83 366 86 q 385 79 378 80 q 401 75 393 77 q 406 73 401 74 q 415 70 410 71 q 424 66 420 68 q 430 64 429 65 q 443 63 433 64 q 462 62 452 62 q 482 60 473 61 q 496 60 492 60 q 504 52 502 56 q 505 41 505 47 l 505 35 q 499 12 505 20 q 482 -6 494 5 q 477 -8 480 -6 q 473 -11 473 -11 l 470 -11 l 467 -11 q 366 -1 416 -7 q 265 5 316 5 z "},"J":{"ha":559,"x_min":-106,"x_max":515,"o":"m -106 -259 l -106 -239 q -104 -234 -106 -239 q -99 -223 -102 -229 q -93 -211 -96 -217 q -88 -201 -90 -205 q -68 -181 -79 -185 q -37 -177 -57 -177 q -10 -182 -18 -177 q 3 -196 -1 -188 q 13 -213 8 -204 q 29 -230 18 -222 q 37 -232 31 -230 q 45 -235 43 -235 q 49 -237 46 -235 q 53 -239 52 -239 q 94 -255 71 -252 q 140 -258 118 -258 q 155 -253 148 -258 q 168 -239 162 -247 q 178 -221 174 -231 q 185 -206 182 -212 q 191 -195 187 -202 q 197 -181 194 -188 q 202 -170 200 -175 q 204 -164 204 -165 q 204 -160 204 -163 q 205 -153 205 -157 q 207 -144 206 -149 q 209 -136 208 -140 q 210 -129 209 -135 q 211 -117 210 -123 q 212 -105 211 -111 q 212 -98 212 -100 q 214 -93 213 -97 q 216 -84 216 -89 q 218 -76 217 -80 q 218 -71 218 -72 q 217 -63 218 -68 q 215 -51 216 -57 q 213 -39 214 -44 q 212 -33 212 -34 q 211 45 211 6 q 209 123 210 85 q 208 127 209 124 q 207 135 208 131 q 205 142 205 138 q 204 146 204 145 l 204 161 q 207 185 204 173 q 209 210 209 197 q 207 233 209 222 q 204 254 204 244 l 204 259 q 207 273 205 262 q 211 297 209 284 q 216 321 214 310 q 218 336 218 332 l 218 366 l 218 376 q 221 387 218 380 q 223 395 223 394 l 223 404 q 221 419 223 413 q 212 434 220 425 q 214 451 214 439 q 214 476 214 463 q 214 502 214 490 q 212 519 214 513 q 208 560 212 540 q 204 600 204 580 q 207 668 204 634 q 209 736 209 702 l 209 764 q 207 781 208 770 q 204 805 205 793 q 201 826 202 817 q 199 839 200 836 q 197 845 199 841 q 193 853 195 848 q 188 861 191 857 q 185 867 186 865 q 180 870 184 868 q 176 873 177 873 l 87 873 q 77 876 85 873 q 63 881 68 880 q 43 899 47 888 q 39 926 39 909 q 39 936 39 930 q 40 943 39 941 q 47 954 40 946 q 58 962 54 961 l 87 962 l 115 962 q 123 960 117 962 q 136 957 129 959 q 149 954 143 955 q 157 951 155 952 l 176 951 q 242 947 210 950 q 310 943 275 943 q 339 950 325 943 q 368 956 353 956 l 373 956 q 393 956 379 956 q 423 954 408 955 q 453 953 439 954 q 473 951 467 952 q 515 897 515 941 q 515 886 515 890 q 511 876 514 881 q 506 874 509 876 q 500 873 503 873 q 469 866 486 868 q 437 865 453 865 q 414 865 425 865 q 392 867 403 866 q 364 840 375 854 q 353 802 353 825 q 353 799 353 801 q 354 793 353 796 q 355 787 355 791 q 356 779 355 785 q 357 764 357 772 q 358 749 357 756 q 359 741 359 743 l 359 645 q 358 553 359 598 q 355 463 357 509 q 354 453 355 460 q 352 436 353 446 q 351 420 351 427 q 350 410 350 412 l 350 404 q 353 391 350 396 q 355 380 355 386 l 355 376 q 352 370 354 376 q 350 363 351 365 q 351 304 351 333 q 351 244 351 275 q 351 162 351 203 q 350 81 351 121 q 349 70 350 77 q 348 55 349 63 q 346 39 347 47 q 345 29 345 32 l 345 22 q 348 -4 345 9 q 351 -31 351 -17 q 350 -34 351 -32 q 350 -37 350 -36 l 350 -41 q 345 -52 350 -44 q 340 -60 340 -59 q 338 -70 340 -62 q 336 -89 337 -79 q 333 -107 334 -98 q 332 -117 332 -115 q 329 -128 331 -121 q 326 -142 328 -135 q 323 -154 324 -149 q 321 -159 322 -159 q 316 -172 321 -161 q 306 -195 312 -182 q 293 -220 300 -208 q 283 -239 287 -233 q 275 -253 279 -248 q 265 -261 271 -258 q 254 -269 260 -265 q 241 -277 248 -272 q 235 -285 241 -279 q 228 -291 229 -291 q 218 -296 227 -292 q 209 -300 210 -299 q 196 -308 201 -304 q 187 -313 191 -311 q 178 -318 183 -316 q 165 -323 174 -321 q 159 -327 164 -326 q 153 -328 154 -328 q 69 -342 109 -338 q -14 -347 28 -347 q -82 -327 -58 -347 q -106 -259 -106 -306 z "},"K":{"ha":976,"x_min":58,"x_max":972,"o":"m 389 0 l 111 0 q 95 2 104 0 q 78 9 86 5 q 63 19 69 13 q 58 32 58 24 q 62 45 58 40 q 73 55 66 51 q 87 61 80 59 q 101 66 95 64 q 110 68 103 66 q 124 71 117 69 q 139 74 132 73 q 148 76 146 76 q 165 84 156 78 q 181 97 174 90 q 194 114 189 104 q 199 132 199 123 l 199 142 l 199 170 q 200 178 199 172 q 202 191 201 184 q 204 204 203 198 q 205 212 205 210 l 205 269 l 214 288 l 214 494 q 214 504 214 496 q 216 523 215 513 q 218 541 217 532 q 218 551 218 549 l 218 616 q 216 719 218 668 q 205 820 214 769 q 194 853 201 839 q 172 881 187 867 q 153 887 163 887 q 140 886 145 887 q 129 886 135 886 q 88 903 107 888 q 59 937 69 918 l 59 941 q 62 950 59 945 q 71 959 66 955 q 81 966 76 963 q 90 970 87 969 q 100 972 94 971 q 112 974 106 973 q 123 975 118 975 q 129 975 127 975 q 134 974 130 975 q 143 971 138 972 q 152 967 148 969 q 157 964 156 965 q 193 962 173 963 q 231 961 214 961 q 257 966 246 961 q 281 970 268 970 l 294 970 q 303 967 296 969 q 312 964 311 964 l 401 964 q 414 944 412 958 q 416 921 416 930 l 416 914 q 411 908 414 912 q 402 899 407 904 q 394 890 398 895 q 389 886 391 886 q 384 883 387 884 q 378 881 380 881 q 353 862 362 871 q 338 841 343 852 q 332 817 334 830 q 331 789 331 804 l 331 755 l 331 711 q 335 689 332 699 q 340 668 337 678 q 344 647 342 658 q 346 623 346 636 l 346 622 q 344 614 346 621 q 342 606 342 608 q 341 595 341 600 q 340 584 340 589 q 340 576 340 579 l 340 561 q 343 537 340 549 q 359 517 347 526 l 363 517 q 378 521 371 517 q 391 528 385 524 q 403 536 397 532 q 416 541 410 540 q 425 550 418 544 q 437 563 431 556 q 450 575 444 569 q 459 583 456 581 q 463 588 459 585 q 470 594 466 591 q 478 600 474 597 q 482 603 481 602 q 494 615 489 610 q 504 625 499 620 q 513 636 508 630 q 524 650 517 642 q 526 652 524 651 l 529 654 q 567 690 551 671 q 600 730 583 709 q 605 735 601 731 q 612 744 608 739 q 620 753 616 749 q 623 758 623 757 q 626 765 624 759 q 628 773 628 772 q 634 781 630 775 q 644 794 639 787 q 655 806 650 800 q 662 815 660 812 l 662 832 q 658 860 662 848 q 638 881 654 871 q 634 882 637 881 q 628 883 631 882 q 622 884 625 884 q 618 886 619 885 q 610 890 617 886 q 600 894 602 894 q 595 896 599 895 q 586 897 591 897 q 577 898 581 898 q 572 899 573 899 q 558 910 560 902 q 553 928 556 918 l 550 932 q 548 937 548 935 l 548 940 q 555 956 548 949 q 572 967 562 962 q 593 973 583 971 q 610 975 604 975 l 615 975 q 627 974 621 975 q 638 964 633 972 q 653 964 642 964 q 677 963 665 964 q 702 962 690 962 q 717 961 713 962 q 724 959 718 961 q 732 956 730 956 l 751 956 q 804 960 777 956 q 858 964 830 964 q 885 959 871 964 q 898 937 898 953 q 888 913 898 926 q 864 888 878 901 q 836 865 850 876 q 812 847 821 854 q 808 845 811 847 q 802 844 804 844 q 795 840 800 841 q 789 839 792 840 q 785 836 787 838 q 779 829 782 833 q 773 823 776 826 q 770 820 770 821 q 760 814 768 819 q 751 810 752 810 q 748 808 749 808 q 746 805 746 806 q 744 802 746 804 q 739 795 742 799 q 734 789 736 792 q 732 786 732 787 q 724 778 730 784 q 711 765 718 772 q 697 751 703 758 q 689 744 691 745 q 685 738 688 744 q 680 730 682 732 q 649 700 665 712 q 615 673 633 688 q 596 653 604 665 q 576 630 588 641 q 567 624 575 629 q 557 617 559 618 q 550 610 555 615 q 538 598 544 604 q 527 587 532 592 q 521 580 522 582 q 514 556 517 568 q 511 532 511 544 q 514 510 511 517 q 524 489 517 502 q 531 479 526 487 q 541 461 536 471 q 551 444 547 452 q 557 434 556 436 q 581 412 566 420 q 604 392 595 403 q 640 349 623 370 q 676 307 657 328 q 692 288 684 296 q 712 272 701 280 q 726 260 720 267 q 736 244 731 252 q 745 228 741 236 q 755 212 750 219 l 770 198 q 814 149 791 172 q 868 108 838 125 q 881 101 871 106 q 904 90 892 96 q 926 78 916 83 q 939 71 937 73 q 943 66 939 70 q 952 59 947 63 q 961 50 957 54 q 968 42 966 45 q 971 36 970 39 q 972 28 972 33 l 972 24 q 947 7 963 11 q 915 3 932 3 q 895 4 905 3 q 876 5 886 5 l 868 5 q 865 4 868 5 q 860 2 863 3 q 853 1 857 1 q 850 0 850 0 l 847 0 q 811 3 829 0 q 776 6 793 6 l 765 6 q 748 5 757 6 q 732 0 740 3 l 638 0 q 624 7 631 4 q 610 14 616 10 q 599 24 604 18 q 595 40 595 31 q 602 60 595 54 q 618 68 608 66 q 640 72 628 71 q 662 77 652 73 q 678 90 671 81 q 685 117 685 99 l 685 123 q 680 127 683 124 q 672 134 676 130 q 666 141 669 138 q 662 146 663 144 q 659 151 660 146 l 657 155 q 649 162 655 157 q 637 174 644 168 q 625 186 631 180 q 618 193 620 192 q 610 204 617 195 q 595 224 604 214 q 581 243 587 235 q 572 254 574 252 q 563 264 570 258 q 553 272 555 271 q 543 278 551 274 q 534 283 535 281 q 529 290 532 284 q 524 296 526 296 q 499 324 511 311 q 477 353 488 336 q 475 355 476 353 l 474 358 q 466 363 473 359 q 459 368 460 367 q 452 374 457 369 q 440 384 446 378 q 428 394 433 390 q 421 400 422 399 q 410 409 418 404 q 401 415 403 415 l 355 415 q 348 408 352 415 q 341 392 345 401 q 334 375 337 383 q 331 363 332 366 l 331 311 l 331 259 q 332 250 331 257 q 333 235 332 243 q 335 218 334 227 q 336 206 336 210 q 337 203 336 206 q 339 196 338 199 q 341 188 340 192 q 342 183 342 184 l 342 149 l 342 136 q 349 119 342 125 q 365 104 356 112 q 372 97 368 101 q 382 88 377 92 q 392 80 388 83 q 398 76 397 77 q 414 68 404 72 q 434 59 424 64 q 452 47 444 54 q 459 31 459 41 l 459 28 q 443 3 452 12 q 413 -5 433 -5 q 401 -4 407 -5 q 389 0 396 -3 z "},"L":{"ha":1001,"x_min":45,"x_max":978,"o":"m 45 18 q 50 40 45 31 q 63 56 55 50 q 83 64 72 62 q 105 67 94 67 q 128 64 117 67 q 151 61 139 61 l 157 61 q 193 101 180 77 q 209 151 206 125 q 213 226 214 190 q 215 302 212 262 q 216 310 215 304 q 217 323 216 316 q 219 337 218 331 q 220 345 220 343 l 220 363 l 220 382 q 213 470 216 427 q 209 558 209 513 l 209 636 q 214 646 212 640 q 215 659 215 652 q 214 669 215 664 q 214 678 214 673 q 215 688 214 685 q 216 695 215 690 q 219 707 218 701 q 222 719 220 713 q 223 726 223 724 l 223 730 l 223 734 q 222 747 223 737 q 221 767 222 756 q 220 788 221 779 q 220 800 220 798 l 220 844 q 214 851 219 846 q 204 863 210 857 q 193 874 199 869 q 186 879 188 879 l 92 879 q 86 884 89 881 q 81 887 83 886 q 77 890 78 889 q 66 906 68 899 q 64 924 64 912 q 78 950 64 943 q 111 956 93 956 q 127 954 119 956 q 144 951 136 951 q 170 956 157 951 q 196 961 182 961 q 199 962 196 962 q 208 962 203 962 q 218 962 213 962 q 227 962 223 962 q 235 962 230 962 q 246 962 241 962 q 256 962 252 962 q 262 961 260 962 q 275 960 264 961 q 299 959 286 960 q 323 957 312 958 q 337 956 334 956 l 487 956 q 500 949 493 954 q 512 937 507 944 q 522 924 518 930 q 526 911 526 917 q 524 904 526 907 q 517 900 521 901 q 508 898 513 899 q 501 897 504 897 q 492 888 496 892 q 484 880 488 884 q 475 873 480 876 q 463 871 471 871 q 451 871 457 871 q 440 876 445 872 l 379 876 q 359 867 370 876 q 347 847 349 858 q 346 839 346 845 q 345 827 345 833 q 345 816 345 821 q 345 808 345 810 q 351 730 345 768 q 356 651 356 691 l 356 641 q 355 622 356 637 q 354 589 355 606 q 352 556 353 571 q 351 536 351 541 q 352 527 351 535 q 354 509 353 519 q 355 491 355 500 q 356 481 356 483 q 355 461 356 477 q 354 427 355 445 q 352 392 353 408 q 351 372 351 376 l 351 298 q 350 280 351 292 q 349 256 349 269 q 347 232 348 243 q 347 217 347 221 q 343 210 345 216 q 340 202 340 203 l 340 196 q 343 159 340 178 q 351 122 345 140 q 368 88 357 104 q 393 61 378 72 l 399 61 q 412 62 407 61 q 427 66 417 64 l 562 66 q 576 67 566 66 q 597 69 586 68 q 618 71 608 70 q 633 72 629 71 q 643 74 635 72 q 652 76 650 76 l 657 76 q 668 73 662 76 q 675 66 673 71 q 719 60 699 62 q 762 58 740 58 q 782 61 773 58 q 797 70 790 64 q 809 84 804 76 q 822 100 815 92 q 830 110 823 102 q 846 127 838 118 q 861 144 854 136 q 869 155 867 153 q 873 163 872 159 q 874 171 874 167 q 876 179 875 175 q 878 189 876 184 q 883 194 879 190 q 888 198 887 198 q 893 205 890 200 q 897 212 897 211 q 899 218 897 214 q 902 229 900 223 q 905 239 904 234 q 907 245 907 244 q 921 267 911 257 q 939 283 932 277 l 943 283 l 943 283 q 962 271 956 279 q 970 254 968 264 q 972 234 972 245 q 973 212 972 223 q 974 208 973 212 q 976 200 975 204 q 977 193 977 196 q 978 189 978 189 l 978 182 q 973 150 978 165 q 967 119 968 134 l 967 34 q 959 14 966 22 q 939 6 951 7 q 926 5 936 5 q 904 3 916 4 q 883 1 893 2 q 869 0 873 1 l 742 0 q 735 -2 740 0 q 728 -5 730 -5 q 719 -5 726 -5 q 701 -6 711 -5 q 682 -8 692 -7 q 667 -9 672 -9 l 661 -9 l 656 -9 q 653 -9 656 -9 q 646 -7 650 -8 q 638 -5 642 -6 q 633 -5 634 -5 q 614 -4 629 -4 q 584 -3 600 -3 q 552 -2 568 -2 q 530 -1 537 -1 l 515 -1 q 482 -1 505 -1 q 430 -1 458 -1 q 371 0 401 -1 q 319 0 342 0 l 286 0 q 196 -5 241 0 q 106 -9 152 -9 l 68 -9 q 51 0 56 -6 q 45 18 45 5 z "},"M":{"ha":1270,"x_min":41,"x_max":1214,"o":"m 187 5 l 59 5 q 53 9 56 5 q 47 19 50 14 q 43 30 45 25 q 41 35 41 35 q 51 60 41 49 q 72 71 60 71 q 85 71 75 71 q 106 72 96 72 q 126 71 117 72 q 139 71 136 71 q 144 74 141 72 q 149 76 147 75 q 154 81 151 77 q 162 90 158 85 q 171 98 167 94 q 176 104 175 102 q 177 117 176 108 q 179 137 178 126 q 180 157 180 147 q 181 170 181 166 q 184 181 182 172 q 187 193 186 191 l 187 224 l 187 236 q 189 242 187 237 q 191 252 190 247 q 194 262 193 258 q 195 269 195 267 q 205 318 200 292 q 211 368 211 345 q 208 377 211 370 q 205 387 205 385 l 205 431 q 207 492 205 461 q 216 551 209 522 q 217 556 216 552 q 220 565 218 560 q 222 574 221 570 q 224 580 224 578 q 225 597 224 583 q 229 626 227 610 q 232 656 231 642 q 234 675 234 671 q 235 680 234 675 q 236 690 235 685 q 238 701 237 696 q 239 706 239 705 q 237 711 239 707 q 234 719 236 715 q 230 726 232 722 q 229 730 229 729 q 231 738 229 732 q 234 745 233 744 q 235 752 235 747 q 237 761 236 756 q 238 769 237 765 q 239 773 239 772 q 238 782 239 776 q 237 796 237 789 q 235 810 236 804 q 234 820 235 817 q 209 832 224 831 q 181 834 194 833 q 176 836 180 834 q 167 839 172 837 q 159 842 163 841 q 153 844 155 844 q 127 850 138 848 q 106 855 115 852 q 90 866 97 859 q 78 890 83 874 q 82 896 78 892 q 87 900 86 899 l 102 900 q 110 901 104 900 q 123 905 116 903 q 137 908 131 907 q 145 909 143 909 l 181 909 l 224 909 q 229 909 225 909 q 236 907 233 908 q 243 905 240 906 q 247 905 247 905 l 347 905 q 384 879 370 895 q 412 844 399 863 q 415 840 413 842 q 420 834 418 837 q 425 828 423 831 q 427 823 427 825 q 429 815 428 823 q 433 805 431 808 q 447 778 438 791 q 459 749 456 766 q 460 742 459 748 q 461 728 460 735 q 463 714 463 721 q 464 706 464 708 q 474 684 467 696 q 483 664 480 672 q 485 654 483 663 q 488 645 488 646 q 491 640 488 644 q 497 633 494 637 q 503 626 500 629 q 507 622 506 623 q 508 616 507 621 q 510 606 509 611 q 511 595 511 600 q 511 589 511 590 q 529 549 518 566 q 550 509 541 532 q 551 503 550 508 q 552 493 551 498 q 553 483 553 488 q 553 476 553 477 q 556 467 553 475 q 558 458 558 459 q 567 446 561 450 q 580 438 573 442 q 592 430 587 435 q 597 416 597 425 l 597 405 q 594 396 597 404 q 592 387 592 389 q 593 383 592 387 q 595 375 594 379 q 598 366 597 370 q 600 358 600 361 q 606 347 602 353 q 613 334 609 340 q 623 324 618 328 q 634 319 629 319 q 641 322 638 319 q 645 329 644 325 q 649 337 647 333 q 653 345 650 342 q 672 364 661 354 q 690 387 684 374 q 692 394 691 391 q 693 400 692 397 q 694 405 694 403 q 701 427 697 418 q 710 445 705 436 q 721 461 715 453 q 732 481 726 470 q 745 507 741 494 q 756 532 749 520 q 760 537 757 533 q 766 545 762 541 q 772 552 769 549 q 775 556 774 555 q 779 564 777 559 q 781 575 780 570 q 783 586 782 581 q 785 593 783 591 q 810 648 795 623 q 837 703 825 673 q 844 728 842 714 q 850 753 846 742 q 857 767 852 756 q 867 791 862 779 q 878 815 873 804 q 884 829 883 826 q 886 837 885 831 q 888 844 888 842 l 888 846 l 888 847 q 886 853 888 849 q 884 858 884 857 l 884 859 l 884 863 q 895 882 889 872 q 907 899 900 891 q 923 912 913 907 q 945 920 932 918 q 962 919 948 920 q 989 919 976 919 q 1005 920 1002 919 q 1011 921 1006 920 q 1020 923 1015 922 q 1029 926 1025 925 q 1034 928 1034 928 q 1076 936 1056 933 q 1120 939 1095 939 q 1131 938 1124 939 q 1144 938 1137 938 q 1155 938 1150 938 q 1161 937 1160 937 q 1178 934 1168 937 q 1195 924 1187 930 q 1208 910 1203 918 q 1214 894 1214 903 q 1210 882 1214 888 q 1199 871 1205 876 q 1187 862 1193 865 q 1177 858 1181 858 q 1156 860 1166 858 q 1134 863 1145 863 q 1111 861 1122 863 q 1086 853 1099 859 q 1073 841 1078 849 q 1066 823 1068 833 q 1063 802 1063 813 q 1063 783 1063 791 l 1063 771 q 1063 758 1063 763 q 1065 748 1064 753 q 1068 739 1067 743 q 1072 726 1070 734 q 1072 715 1072 723 q 1072 698 1072 707 q 1073 682 1072 690 q 1073 671 1073 674 q 1069 548 1073 609 q 1067 424 1066 486 q 1065 417 1067 422 q 1063 410 1063 412 l 1063 407 l 1063 405 q 1069 368 1066 387 q 1073 330 1073 348 q 1068 297 1073 312 q 1063 264 1063 281 l 1063 256 q 1063 246 1063 250 q 1067 236 1064 241 q 1067 228 1067 234 q 1068 216 1067 222 q 1068 204 1068 210 q 1068 196 1068 198 q 1068 185 1068 192 q 1068 172 1068 178 q 1067 160 1067 165 q 1067 155 1067 155 q 1065 146 1067 154 q 1063 136 1063 139 l 1063 125 l 1063 119 q 1066 109 1063 117 q 1072 100 1070 102 q 1075 95 1072 98 q 1081 87 1078 91 q 1087 80 1084 83 q 1090 76 1090 77 q 1094 71 1092 75 q 1095 66 1095 67 q 1098 63 1097 64 q 1101 61 1099 61 l 1120 61 q 1125 60 1120 61 q 1134 57 1129 58 q 1143 54 1139 56 q 1148 53 1147 53 q 1153 52 1149 52 q 1161 50 1157 51 q 1170 48 1166 49 q 1175 47 1174 47 q 1181 44 1177 46 q 1190 41 1185 43 q 1199 37 1195 39 q 1203 34 1202 35 q 1204 28 1203 33 q 1204 24 1204 24 q 1196 7 1204 14 q 1175 0 1187 0 l 950 0 q 940 -2 947 0 q 931 -5 932 -5 l 926 -5 l 922 -5 q 917 -6 921 -5 q 909 -9 913 -7 q 902 -12 905 -10 q 898 -13 899 -13 l 861 -13 l 850 -13 q 831 -4 841 -13 q 822 14 822 5 l 822 19 q 839 21 827 19 q 856 24 851 24 q 862 26 857 24 q 869 28 867 28 q 874 29 870 28 q 882 31 878 30 q 889 32 886 31 q 892 34 892 33 q 905 45 901 37 q 912 63 909 54 q 915 83 914 73 q 916 100 916 93 q 926 186 923 143 q 935 275 929 230 q 935 299 935 281 q 936 337 935 317 q 937 375 937 357 q 937 400 937 393 q 937 434 937 413 q 936 475 937 454 q 935 511 935 495 q 935 528 935 526 q 934 546 935 532 q 933 574 934 559 q 932 602 932 589 q 931 622 932 616 q 930 630 931 624 q 926 643 928 636 q 921 654 924 649 q 915 659 918 659 q 905 656 909 659 q 899 649 901 653 q 893 640 896 645 q 888 632 891 635 q 884 627 887 631 q 877 620 881 624 q 869 613 873 616 q 864 609 865 610 q 862 604 864 607 q 861 598 861 600 q 841 563 852 580 q 822 528 830 547 q 812 491 816 510 q 803 453 808 471 q 797 441 802 445 q 790 429 792 437 q 788 425 789 429 q 787 417 787 421 q 785 409 786 413 q 785 405 785 406 q 779 399 783 404 q 770 391 775 395 q 761 382 766 387 q 756 376 757 378 q 750 362 751 372 q 747 349 749 353 q 745 341 746 347 q 743 334 743 336 q 738 328 742 333 q 732 321 734 323 q 723 285 726 304 q 714 249 720 267 q 709 238 712 245 q 703 223 706 231 q 697 210 700 216 q 694 202 694 203 q 690 194 694 201 q 683 179 687 187 q 676 164 680 171 q 671 155 672 157 q 670 149 671 154 q 669 139 670 144 q 668 129 669 134 q 667 123 667 124 q 665 113 667 120 q 663 104 663 106 q 657 93 661 101 q 648 75 653 84 q 640 58 644 66 q 634 47 636 50 q 619 37 627 43 q 602 32 612 32 q 585 40 593 32 q 569 60 576 49 q 556 84 562 72 q 550 104 551 96 q 544 127 547 117 q 540 147 542 137 q 535 167 538 157 q 526 189 532 177 q 522 197 526 191 q 514 211 518 203 q 507 224 510 218 q 503 231 503 230 q 484 275 490 253 q 469 321 478 297 q 440 389 456 355 q 412 458 424 422 q 411 463 412 458 q 410 471 410 467 q 409 480 410 476 q 409 486 409 484 q 404 493 408 487 q 398 500 399 498 q 396 506 398 501 q 394 513 394 511 q 392 518 393 514 q 389 526 391 522 q 386 533 387 530 q 383 536 384 536 q 383 544 383 538 q 382 554 382 549 q 380 564 381 559 q 380 570 380 569 q 377 576 378 572 q 373 584 375 580 q 369 592 371 589 q 366 598 367 596 l 351 612 q 341 632 345 621 q 332 654 337 643 q 319 672 327 665 q 298 680 311 680 l 294 680 q 289 657 290 667 q 288 637 288 647 q 287 617 287 627 q 286 593 286 606 q 285 590 286 593 q 283 584 284 587 q 281 578 282 581 q 281 575 281 575 l 281 568 q 283 553 281 560 q 286 536 286 545 l 286 532 q 279 500 282 516 q 275 466 275 484 q 280 421 275 443 q 286 376 286 399 q 285 374 286 376 q 283 368 284 371 q 281 362 282 365 q 281 358 281 359 l 281 288 q 279 281 281 286 q 276 271 278 277 q 273 261 275 266 q 271 254 271 256 l 271 248 q 272 237 271 241 q 277 225 273 233 l 277 123 q 282 110 280 117 q 286 95 284 102 q 291 81 288 87 q 300 71 294 75 q 335 66 314 69 q 370 58 355 64 q 377 52 372 56 q 383 47 382 48 q 394 43 389 44 q 404 39 399 41 q 410 33 408 37 q 412 22 412 29 q 408 7 412 13 q 398 -1 404 2 q 385 -4 392 -3 q 370 -5 377 -5 q 313 -2 342 -5 q 256 0 285 0 l 239 0 q 235 -1 238 0 q 229 -2 232 -1 q 223 -4 226 -3 q 219 -5 220 -5 q 213 -4 218 -5 q 204 -1 209 -3 q 194 2 199 1 q 187 5 189 3 z "},"N":{"ha":1140,"x_min":47,"x_max":1093,"o":"m 104 1 q 91 4 97 3 q 81 6 85 5 q 74 12 76 8 q 71 24 71 16 q 73 36 71 31 q 79 50 74 40 q 106 68 90 64 q 139 75 123 73 q 171 81 156 77 q 195 96 186 84 q 197 102 195 98 q 202 110 199 106 q 206 116 204 113 q 208 119 208 119 l 208 257 q 211 263 209 258 q 212 270 212 269 l 212 284 l 212 318 q 213 323 212 319 q 215 332 214 328 q 217 340 216 336 q 218 346 218 345 l 218 370 q 217 382 218 377 q 215 392 216 387 q 213 401 214 397 q 212 413 212 406 l 212 425 q 214 430 213 426 q 215 437 214 433 q 217 445 216 441 q 218 448 218 448 q 218 464 218 452 q 219 490 218 476 q 221 515 220 503 q 222 529 222 526 q 224 536 222 530 q 227 545 227 543 l 227 591 q 229 613 227 597 q 231 647 230 629 q 234 681 233 665 q 235 704 235 697 q 239 713 237 705 q 241 723 241 721 q 237 751 241 736 q 224 779 233 766 q 205 802 216 791 q 179 817 193 812 q 172 818 178 817 q 161 821 167 819 q 149 823 155 822 q 142 826 144 825 q 138 829 141 827 q 133 833 136 831 q 126 838 130 836 q 123 840 123 840 q 119 841 122 840 q 111 843 115 842 q 104 844 107 844 q 100 845 100 845 q 85 855 94 847 q 67 873 76 863 q 53 892 59 883 q 47 906 47 901 q 47 911 47 909 q 48 915 47 913 q 52 921 49 917 q 59 930 55 926 q 66 939 62 935 q 71 945 69 943 q 81 947 73 945 q 95 949 90 949 l 199 949 q 214 952 208 952 q 227 953 219 953 q 256 946 243 953 q 279 928 269 939 q 298 905 289 918 q 317 882 307 892 q 322 877 317 881 q 332 866 327 872 q 342 856 338 861 q 349 850 347 851 q 363 826 358 839 q 378 802 368 813 q 405 776 390 787 q 434 751 420 765 q 461 716 446 737 q 492 674 476 695 q 525 635 509 652 q 557 610 541 617 q 603 544 576 574 q 659 487 629 513 q 670 467 664 478 q 683 448 676 456 q 698 438 690 442 q 715 429 707 434 q 729 418 723 425 q 735 401 734 412 q 747 391 739 399 q 764 374 755 383 q 780 357 772 365 q 791 346 788 349 q 801 333 798 339 q 808 322 804 327 q 818 315 812 317 q 834 312 824 312 q 846 313 840 312 q 852 323 851 315 q 867 377 862 349 q 871 433 871 404 l 871 454 q 870 464 871 456 q 868 474 868 471 q 867 484 867 475 q 867 504 867 494 q 868 515 868 513 q 866 536 867 522 q 865 568 865 551 q 863 599 864 585 q 862 618 863 613 q 861 630 862 623 q 860 646 861 637 q 859 661 859 654 q 857 670 858 668 q 856 678 857 673 q 852 685 854 684 l 852 802 q 851 807 852 804 q 848 812 850 810 q 823 850 838 831 q 787 874 808 869 q 782 875 786 874 q 773 877 777 876 q 764 879 768 878 q 759 881 760 880 q 755 883 758 881 q 749 886 752 884 q 743 890 746 888 q 740 892 741 892 q 718 910 726 901 q 711 937 709 919 q 715 950 711 945 q 725 959 720 956 q 734 965 730 963 q 741 967 739 966 q 747 967 743 967 q 756 968 751 968 l 768 968 l 918 958 q 982 963 948 958 q 1046 968 1015 968 q 1053 966 1046 967 q 1061 964 1059 966 q 1075 961 1069 962 q 1085 959 1081 961 q 1091 952 1089 958 q 1093 934 1093 947 q 1087 916 1093 923 q 1073 903 1082 908 q 1054 895 1064 898 q 1036 888 1044 891 q 1026 885 1035 888 q 1015 881 1017 882 q 1001 873 1009 878 q 984 863 992 869 q 974 851 979 857 q 965 842 968 846 q 956 824 959 836 q 951 802 953 812 q 951 784 951 797 q 949 758 950 772 q 948 730 949 743 q 947 712 947 718 l 947 669 l 947 652 q 944 645 947 651 q 942 638 942 640 l 942 616 q 945 587 942 600 q 948 557 948 574 l 948 545 q 947 532 948 538 q 942 521 945 526 l 942 440 q 941 435 942 439 q 940 428 941 432 q 939 420 940 424 q 939 416 939 417 l 939 351 q 936 341 939 349 q 934 331 934 334 q 932 322 933 328 q 931 309 932 316 q 929 297 930 302 q 928 289 928 291 l 928 258 q 933 201 928 229 q 939 143 939 172 l 939 140 q 936 129 939 137 q 934 119 934 121 q 932 107 932 116 q 932 89 932 99 q 932 71 932 79 q 934 58 932 62 q 915 39 924 49 q 892 29 906 29 q 889 30 890 29 q 887 31 888 30 q 853 48 868 37 q 826 74 838 60 q 802 104 813 88 q 778 134 790 119 q 767 145 776 136 q 749 165 759 155 q 732 184 740 175 q 722 195 724 193 q 675 253 696 222 q 631 312 654 283 q 627 318 631 315 q 620 324 625 319 q 607 334 614 329 q 595 345 601 340 q 589 351 590 349 q 585 356 588 351 q 579 367 583 361 q 573 377 576 372 q 570 384 570 382 q 568 386 568 385 q 566 389 566 388 q 562 391 565 389 q 555 397 559 394 q 547 403 551 400 q 542 407 543 406 q 533 417 536 412 q 527 430 530 423 q 521 443 524 436 q 513 454 518 449 q 507 461 513 456 q 496 473 502 467 q 484 485 490 479 q 476 492 478 490 q 471 499 475 493 q 467 506 467 505 q 458 514 463 511 q 448 520 453 517 q 438 527 443 524 q 429 534 433 530 q 427 538 429 534 q 422 546 425 542 q 417 553 420 550 q 414 557 415 557 q 410 562 414 558 q 406 568 407 566 q 400 571 404 568 q 393 576 397 573 q 386 582 389 579 q 382 587 382 585 q 375 593 380 587 q 363 605 370 598 q 351 616 357 611 q 344 623 346 622 q 333 634 338 630 q 320 638 328 638 q 307 631 313 638 q 297 614 301 624 q 291 595 293 605 q 288 581 288 586 q 288 576 288 581 q 288 565 288 571 q 288 553 288 559 q 288 545 288 547 q 288 535 288 541 q 288 524 288 530 q 288 515 288 519 q 288 511 288 511 q 290 502 288 509 q 292 489 291 496 q 295 475 294 481 q 296 468 296 469 q 298 457 298 465 q 298 437 298 448 q 297 411 298 425 q 297 387 297 398 q 297 366 297 375 q 296 354 296 357 q 297 351 296 354 q 299 343 298 347 q 300 336 300 340 q 301 331 301 332 q 302 319 301 330 q 302 300 302 308 q 299 269 302 283 q 296 237 296 254 q 299 215 296 227 q 301 193 301 204 q 299 177 301 184 q 296 161 296 170 q 308 116 296 130 q 338 96 319 102 q 378 88 356 90 q 420 77 399 85 q 439 64 432 72 q 457 43 447 56 q 463 34 462 39 q 463 24 463 30 l 463 12 q 457 9 461 9 q 448 8 453 9 q 439 8 444 8 q 434 6 435 7 q 420 1 426 3 q 409 -2 414 -1 q 399 -3 404 -3 q 388 -3 395 -3 l 373 -3 q 327 0 350 -3 q 281 3 304 3 q 231 0 256 3 q 182 -3 206 -3 l 170 -3 q 157 -2 167 -3 q 137 -1 147 -1 q 117 0 126 -1 q 104 1 107 1 z "},"O":{"ha":984,"x_min":67,"x_max":916,"o":"m 233 300 q 251 276 242 291 q 267 249 260 261 q 268 239 267 248 q 271 230 269 231 q 281 210 275 221 q 294 189 287 199 q 309 168 301 178 q 322 151 316 158 q 325 148 323 151 q 329 143 327 146 q 334 138 332 140 q 337 136 336 136 q 342 127 338 135 q 346 117 346 119 l 361 102 q 366 100 361 102 q 376 96 371 98 q 387 92 382 94 q 393 89 391 90 q 396 88 394 88 q 399 87 397 87 q 403 85 401 86 q 451 58 425 68 q 505 47 477 47 q 524 53 516 47 q 544 61 532 58 q 548 62 545 61 q 556 63 552 62 q 564 64 560 64 q 567 66 567 65 q 577 72 572 68 q 588 81 583 76 q 597 90 593 85 q 605 98 602 95 q 612 102 606 99 q 624 110 617 106 q 636 117 630 114 q 644 122 642 121 q 656 135 649 126 q 672 155 664 144 q 686 176 680 165 q 695 193 692 186 q 697 199 695 193 q 699 206 699 205 q 708 220 703 214 q 719 232 713 227 q 729 244 724 237 q 737 258 734 250 q 746 296 745 278 q 750 334 746 313 q 754 341 751 336 q 756 347 756 346 l 756 378 l 756 389 q 763 418 758 405 q 769 447 769 432 l 769 452 q 767 475 768 460 q 764 505 766 490 q 762 529 763 519 q 761 541 761 540 q 758 548 760 543 q 753 561 756 554 q 748 572 751 567 q 745 580 746 578 q 734 621 739 600 q 722 663 730 643 q 687 733 711 702 q 637 794 664 765 q 633 800 637 797 q 628 805 630 804 q 602 821 614 814 q 578 838 589 829 q 569 843 574 840 q 563 847 564 846 q 537 853 550 853 q 511 857 524 854 q 506 859 510 857 q 502 861 503 861 q 498 862 500 861 q 495 862 497 862 q 492 863 494 863 q 487 862 490 863 q 481 861 484 861 q 478 859 480 860 q 473 857 475 857 l 450 857 q 438 853 447 857 q 427 847 430 849 q 419 842 425 846 q 406 833 413 838 q 393 824 399 829 q 385 818 387 820 q 378 814 382 818 q 375 810 376 812 q 366 806 373 808 q 351 800 359 803 q 336 794 343 797 q 328 791 330 791 q 323 784 327 790 q 313 771 319 779 q 302 756 308 764 q 294 744 297 749 q 274 709 283 727 q 256 673 265 691 q 252 660 253 667 q 250 645 250 652 q 248 630 250 637 q 243 616 247 623 q 238 610 242 615 q 233 603 234 604 q 232 599 233 602 q 231 593 231 596 q 229 587 230 590 q 229 583 229 584 q 217 552 224 568 q 210 521 210 536 l 210 513 q 210 509 210 512 q 212 501 211 505 q 214 493 213 497 q 215 489 215 490 q 214 482 215 488 q 212 471 213 477 q 210 459 211 465 q 210 452 210 454 l 210 435 l 210 424 q 215 414 211 422 q 220 405 218 406 q 220 396 220 403 q 221 381 220 389 q 222 367 222 374 q 224 358 223 360 q 226 347 224 355 q 229 329 227 338 q 231 312 230 320 q 233 300 233 304 m 411 -11 q 403 -4 410 -7 q 393 0 396 -1 q 385 2 391 1 q 370 6 378 4 q 354 11 362 9 q 341 13 345 12 q 337 14 340 14 q 330 16 334 15 q 322 18 326 17 q 317 19 319 18 q 313 22 317 19 q 304 30 309 26 q 295 38 300 34 q 290 42 291 41 q 259 66 275 54 q 226 91 242 78 q 195 118 210 104 q 168 146 180 132 q 164 150 166 146 q 160 157 162 153 q 156 165 158 161 q 153 169 154 168 q 133 198 144 183 q 115 230 122 213 q 113 239 115 231 q 111 249 111 248 q 99 282 106 267 q 87 315 92 298 q 78 355 82 335 q 68 394 74 374 q 68 409 68 399 q 68 430 68 419 q 67 452 68 441 q 67 466 67 462 q 67 484 67 473 q 68 507 68 496 q 68 527 68 518 q 68 536 68 535 q 84 606 71 572 q 111 673 98 640 q 113 678 111 674 q 115 687 114 682 q 118 695 117 691 q 120 701 119 699 q 125 706 121 702 q 135 715 130 710 q 144 724 140 720 q 150 728 149 728 q 180 772 167 749 q 215 814 193 795 q 228 824 222 821 q 240 829 234 827 q 253 834 246 831 q 267 841 259 836 q 270 845 267 842 q 275 851 272 848 q 281 857 278 854 q 286 861 284 860 q 294 867 288 863 q 307 876 300 871 q 319 884 313 880 q 328 890 326 888 q 334 892 332 891 q 338 893 336 892 q 341 894 340 893 q 360 904 351 898 q 380 917 370 911 q 400 928 390 924 q 420 932 410 932 q 439 930 430 932 q 457 927 448 927 l 464 927 q 473 929 466 927 q 481 932 480 932 q 486 932 482 932 q 495 932 490 932 q 505 932 500 932 q 513 932 510 932 q 535 931 523 932 q 560 929 547 930 q 584 924 572 927 q 605 918 596 922 q 612 914 607 917 q 624 908 618 911 q 636 902 631 905 q 644 899 642 899 q 652 896 645 897 q 661 894 660 894 q 687 879 675 890 q 709 861 699 869 q 731 849 719 854 q 756 838 744 845 l 761 833 q 763 828 762 831 q 765 820 764 824 q 767 813 766 817 q 769 810 768 810 q 782 798 775 800 q 798 791 789 796 q 815 775 806 785 q 833 753 825 765 q 849 728 842 741 q 859 705 856 715 q 862 696 861 704 q 863 686 863 688 q 866 679 865 684 q 869 673 867 673 q 874 667 870 671 q 882 659 878 663 q 891 650 887 654 q 897 645 895 646 l 897 642 l 897 640 l 895 635 q 892 630 892 632 l 892 628 q 898 598 892 612 q 906 569 903 584 q 913 514 911 541 q 916 458 916 486 l 916 419 q 914 409 916 417 q 912 400 912 401 q 911 396 911 399 q 911 389 911 393 q 911 370 911 379 q 912 358 912 361 q 910 353 911 357 q 906 345 908 349 q 903 338 905 341 q 902 334 902 335 q 901 326 902 332 q 900 313 901 320 q 898 300 899 306 q 897 292 897 294 q 896 287 897 290 q 892 281 894 283 q 889 276 892 280 q 883 268 886 272 q 877 259 880 263 q 873 254 874 255 q 871 248 873 252 q 868 239 870 244 q 865 231 867 235 q 863 225 863 227 q 856 210 860 218 q 847 192 852 201 q 836 174 842 182 q 827 159 831 165 q 822 156 825 159 q 816 151 819 153 q 786 123 800 138 q 756 95 771 109 q 727 67 742 81 q 695 42 712 54 q 671 35 680 41 q 648 24 663 30 q 641 21 646 22 q 633 19 636 19 q 579 4 606 11 q 525 -11 553 -3 q 511 -15 517 -12 q 497 -19 505 -19 l 492 -19 q 485 -17 491 -19 q 478 -15 479 -15 q 465 -14 475 -14 q 445 -12 456 -13 q 425 -11 434 -12 q 411 -11 415 -11 z "},"P":{"ha":806,"x_min":68,"x_max":772,"o":"m 364 447 q 399 442 381 446 q 434 439 417 439 l 441 439 q 447 446 443 441 q 457 455 452 450 q 467 465 463 460 q 473 471 471 469 q 484 477 475 471 q 497 486 492 483 q 514 494 503 488 q 531 505 525 499 q 544 518 535 509 q 562 536 553 527 q 577 554 570 546 q 586 566 585 563 q 604 598 597 580 q 614 635 611 616 q 619 673 618 654 q 621 709 621 692 q 614 729 621 720 q 602 749 607 738 q 598 754 600 750 q 594 764 597 759 q 590 772 592 768 q 586 777 587 777 q 580 785 586 779 q 573 792 574 791 q 571 797 573 793 q 567 806 569 801 q 562 815 564 811 q 558 820 559 819 q 555 823 558 821 q 547 828 551 825 q 538 834 543 831 q 531 839 534 837 q 526 842 530 840 q 521 844 522 844 q 518 847 520 844 q 514 853 516 850 q 510 859 512 857 q 508 863 508 862 q 505 865 507 863 q 503 867 504 865 q 496 869 501 867 q 486 872 492 870 q 476 875 481 873 q 469 876 471 876 q 464 877 468 876 q 455 879 460 878 q 446 880 450 880 q 441 881 442 881 q 435 883 439 882 q 425 886 430 884 q 414 890 419 888 q 408 892 409 891 l 402 892 l 394 892 q 389 884 393 890 q 380 872 385 878 q 371 861 375 866 q 364 853 366 855 q 361 847 363 850 q 357 839 359 843 q 351 829 354 834 l 351 745 q 342 718 345 732 q 340 688 340 703 q 340 675 340 682 q 341 664 340 669 q 337 657 340 663 q 333 651 334 652 l 333 646 l 333 641 q 334 621 333 633 q 336 596 335 608 q 337 575 336 585 q 338 566 338 566 q 339 561 338 564 q 342 552 340 557 q 345 543 344 547 q 347 538 347 539 l 347 519 l 347 500 q 345 495 347 498 q 341 489 342 492 q 337 483 341 488 q 333 476 333 477 l 333 474 l 333 471 q 335 469 333 471 l 338 466 q 345 469 338 466 q 351 471 351 471 q 361 463 361 471 q 360 459 361 460 q 360 454 360 457 q 364 447 360 448 m 73 53 q 78 62 73 56 q 90 74 83 68 q 105 84 98 79 q 116 89 113 89 q 125 90 118 90 q 139 92 132 91 q 154 93 147 92 q 163 94 161 94 q 171 100 164 95 q 182 108 178 105 q 186 113 182 110 q 192 119 191 117 q 192 129 192 121 q 193 144 193 136 q 195 160 194 153 q 197 170 196 168 q 198 176 197 171 q 201 188 199 182 q 203 200 202 195 q 205 208 205 206 l 205 210 q 201 231 205 220 q 197 252 197 241 q 201 281 197 267 q 205 311 205 295 l 205 317 q 204 334 205 319 q 202 365 203 349 q 201 396 201 382 q 200 415 200 411 l 200 424 q 203 436 200 430 q 210 448 206 442 q 217 460 214 454 q 220 474 220 467 q 217 487 220 480 q 214 500 214 494 q 219 516 214 509 q 224 532 224 524 q 220 567 224 547 q 216 604 216 587 q 214 625 214 610 q 214 657 214 640 q 214 689 214 674 q 216 711 214 705 q 208 729 210 719 q 205 747 205 739 l 205 749 q 207 754 205 750 q 210 762 208 758 q 214 769 212 766 q 216 773 215 772 l 216 798 q 211 831 216 814 q 192 858 206 848 q 181 859 189 858 q 165 862 173 861 q 149 865 157 863 q 139 867 142 866 q 133 870 138 868 q 126 873 127 873 q 118 872 125 873 q 105 871 111 871 q 97 873 98 871 q 86 878 92 873 q 77 887 81 882 q 71 899 73 892 q 68 909 68 905 q 73 925 68 918 q 83 938 77 932 q 96 947 89 944 q 111 951 104 951 q 122 953 113 952 q 143 955 132 954 q 165 956 155 956 q 182 958 176 957 l 193 958 l 205 958 q 215 956 207 957 q 231 954 222 955 q 248 952 240 953 q 258 951 256 951 l 414 951 q 422 949 415 951 q 431 947 429 947 l 434 947 q 456 950 446 947 q 481 953 465 953 q 496 952 486 953 q 508 951 506 951 q 516 949 509 951 q 526 947 524 947 q 554 944 538 945 q 582 939 570 943 q 629 916 608 929 q 672 886 650 903 q 701 855 686 876 q 731 810 717 834 q 755 761 745 785 q 767 717 765 736 l 767 696 l 767 688 q 769 679 767 686 q 772 670 772 671 l 772 667 l 772 664 q 761 614 767 639 q 747 567 755 590 q 726 522 739 543 q 695 481 713 500 q 693 479 695 481 q 689 476 692 477 q 685 473 687 474 q 682 471 682 471 q 675 465 680 471 q 665 451 671 458 q 652 436 659 444 q 644 424 646 428 q 638 417 642 422 q 634 410 634 412 q 610 409 619 410 q 592 400 602 408 q 572 392 584 396 q 548 384 561 387 q 524 378 536 380 q 502 376 511 376 q 469 383 484 376 q 437 392 453 389 l 417 392 q 393 400 404 393 q 369 406 383 406 l 363 406 q 352 405 358 406 q 341 400 346 404 q 340 393 341 398 q 337 384 339 389 q 334 374 336 378 q 333 368 333 370 q 331 363 332 367 q 328 356 330 359 q 325 349 326 352 q 323 345 323 345 q 322 342 322 345 l 322 340 q 322 337 322 339 q 323 334 322 336 q 328 326 323 333 q 333 317 333 318 q 334 311 333 315 q 336 301 335 307 q 337 292 336 296 q 338 288 338 288 l 341 278 l 343 275 q 339 255 343 266 q 333 236 334 243 q 331 231 332 235 q 328 222 330 227 q 325 213 326 217 q 323 208 323 209 q 325 199 323 205 q 328 184 326 192 q 331 169 330 176 q 333 159 332 161 q 336 140 335 150 q 339 119 336 130 q 346 100 341 109 q 361 85 351 92 q 371 79 363 83 q 380 76 378 76 l 441 76 q 452 71 444 76 q 466 59 459 66 q 479 47 473 53 q 484 41 484 42 l 484 37 q 474 22 479 28 q 465 11 470 16 q 453 4 460 7 q 437 0 447 2 q 417 1 431 0 q 387 1 402 1 q 357 1 371 1 q 338 0 343 0 q 325 -2 334 0 q 314 -5 316 -3 l 153 -5 q 137 1 144 1 q 130 1 134 1 q 121 0 127 0 l 116 0 q 85 18 96 3 q 73 53 75 33 z "},"Q":{"ha":1030,"x_min":71,"x_max":1640,"o":"m 269 269 q 277 259 271 265 q 288 245 282 252 q 299 231 294 237 q 307 222 304 224 q 312 213 308 219 q 316 206 316 208 q 319 198 317 205 q 325 183 321 191 q 331 168 328 175 q 335 159 334 161 q 342 153 336 159 q 349 146 348 146 q 355 138 353 141 q 357 133 356 136 q 360 128 358 130 q 366 122 362 125 q 371 118 368 121 q 380 113 375 116 q 389 107 385 110 q 396 102 393 104 q 400 100 397 102 q 408 96 404 98 q 415 92 412 94 q 419 89 418 90 q 423 86 420 89 q 429 80 426 83 q 435 74 432 77 q 439 71 438 71 q 444 68 440 70 q 451 65 447 67 q 460 62 456 64 q 467 61 465 61 q 480 59 468 60 q 508 57 492 58 q 539 54 524 56 q 565 52 555 52 l 570 52 q 581 54 576 52 q 590 59 586 56 q 598 65 594 62 q 607 71 602 68 q 612 72 608 71 q 620 73 616 73 q 627 75 624 74 q 631 75 630 75 q 646 86 638 78 q 660 98 654 94 q 685 125 672 111 q 709 154 697 139 q 730 184 720 168 q 745 217 739 199 q 747 226 745 218 q 750 235 749 233 q 764 262 756 250 q 777 292 772 275 q 788 348 785 319 q 797 405 790 377 q 798 410 797 406 q 801 418 800 414 q 804 427 802 423 q 805 433 805 431 l 805 456 q 806 464 805 458 q 807 476 806 469 q 809 488 808 482 q 810 494 810 493 q 810 498 810 495 q 811 505 811 502 q 810 523 811 512 q 806 547 808 534 q 802 570 804 559 q 797 588 799 581 q 786 622 791 606 q 777 654 781 637 q 775 665 776 657 q 774 673 774 672 q 768 685 772 676 q 758 704 764 694 q 748 725 753 715 q 740 739 743 734 q 735 746 739 741 q 730 753 732 752 q 727 757 730 754 q 721 763 724 760 q 715 769 718 766 q 711 773 712 772 q 706 782 709 776 q 699 794 703 787 q 692 807 696 801 q 684 815 688 812 q 674 817 682 815 q 665 820 666 819 q 657 824 663 820 q 650 828 652 828 q 630 839 640 834 q 612 846 621 843 q 593 850 604 848 q 570 852 583 851 q 565 857 570 855 q 557 858 561 858 l 554 858 l 541 858 q 535 854 540 857 q 528 852 530 852 q 480 850 502 850 q 433 844 458 850 q 429 842 433 842 q 422 840 426 841 q 414 839 418 840 q 410 839 410 839 q 397 825 402 834 q 387 810 392 816 q 382 804 385 808 q 375 795 378 800 q 367 787 371 791 q 363 781 363 783 q 353 766 357 774 q 345 749 349 758 q 336 734 341 741 q 324 720 331 726 q 315 713 323 719 q 307 706 308 708 q 300 696 305 705 q 292 683 294 688 q 282 660 286 672 q 273 636 279 648 q 256 598 265 617 q 245 559 248 580 q 239 511 242 535 q 231 463 236 486 l 231 458 l 231 456 q 231 453 231 456 q 233 447 232 450 q 235 442 234 444 q 235 439 235 439 l 235 431 l 235 410 q 237 401 235 408 q 242 388 239 395 q 247 374 245 380 q 249 366 249 368 l 249 342 q 253 336 250 342 q 259 325 256 331 q 265 313 262 319 q 269 307 268 308 q 270 298 269 303 q 271 288 271 294 q 270 276 271 281 q 269 269 269 271 m 71 395 l 71 545 q 74 558 72 549 q 75 570 75 567 q 77 578 76 572 q 78 591 77 584 q 79 604 79 598 q 79 611 79 610 q 84 622 81 614 q 90 630 88 629 q 92 638 90 632 q 96 650 94 644 q 100 662 98 656 q 102 669 102 667 q 113 682 104 671 q 130 706 121 693 q 146 729 139 718 q 155 744 154 741 q 159 751 156 745 q 165 763 162 757 q 171 775 168 770 q 175 781 174 781 q 176 783 176 782 q 179 786 178 786 q 183 790 180 787 q 191 796 186 793 q 198 802 195 799 q 202 805 201 804 q 206 808 203 806 q 212 814 209 811 q 218 821 215 818 q 222 823 221 823 q 224 826 222 825 q 229 829 227 827 q 235 833 232 831 q 238 837 236 833 q 242 843 240 840 q 247 848 245 846 q 249 852 249 851 q 255 854 250 852 q 264 857 259 855 q 273 861 269 859 q 277 863 277 862 q 294 873 286 866 q 311 886 302 881 q 316 887 312 886 q 325 890 320 888 q 334 892 330 891 q 340 894 338 894 q 345 896 340 895 q 355 900 350 898 q 366 903 361 901 q 372 905 371 904 q 382 909 378 907 q 389 912 386 911 q 396 915 392 913 q 406 918 399 916 q 413 919 407 918 q 425 921 418 920 q 436 922 431 922 q 443 922 441 922 q 452 928 444 924 q 463 932 460 932 q 466 933 464 933 q 470 935 468 934 q 475 937 473 936 l 570 937 q 585 942 580 940 q 599 943 590 943 q 616 940 608 943 q 632 932 625 937 q 648 922 640 927 q 665 914 656 917 q 705 897 685 905 q 745 881 724 889 q 749 878 746 880 q 753 876 753 876 q 759 871 755 875 q 768 862 764 867 q 777 853 773 857 q 782 847 781 848 q 793 840 787 843 q 805 833 800 837 q 814 826 810 830 q 821 815 819 822 q 822 805 821 812 q 824 797 823 798 q 834 788 826 793 q 844 781 842 783 q 858 767 848 777 q 879 746 867 758 q 900 725 890 735 q 914 711 910 715 q 922 677 916 692 q 933 645 928 663 q 935 638 934 644 q 937 626 936 632 q 940 614 939 619 q 941 606 941 608 q 944 601 942 606 q 949 591 947 596 q 954 581 952 585 q 957 575 956 576 q 960 563 958 572 q 962 551 962 553 l 962 489 l 962 428 q 953 364 960 398 q 938 300 947 330 q 933 294 938 299 q 928 288 928 289 q 921 268 922 276 q 918 245 920 259 q 907 226 916 239 q 889 197 899 212 q 870 169 879 182 q 858 151 861 156 q 852 144 857 149 q 839 132 846 138 q 825 118 832 125 q 816 108 819 111 q 808 103 814 106 q 801 98 802 100 q 795 92 800 97 q 785 82 790 87 q 774 72 779 77 q 768 66 769 67 q 753 57 762 61 q 736 47 745 52 q 722 35 728 41 q 716 19 716 28 l 716 13 q 719 -1 718 8 q 721 -11 721 -9 q 729 -17 722 -12 q 740 -24 736 -22 q 749 -28 742 -25 q 763 -36 755 -32 q 778 -43 771 -40 q 787 -47 785 -46 q 791 -50 787 -47 q 800 -56 795 -53 q 809 -62 805 -60 q 816 -66 814 -65 q 827 -69 817 -67 q 840 -71 836 -71 q 846 -76 840 -72 q 852 -81 851 -80 q 861 -83 854 -81 q 874 -87 867 -85 q 887 -92 881 -90 q 895 -94 893 -94 q 899 -96 896 -94 q 905 -100 902 -98 q 911 -103 908 -102 q 914 -104 913 -104 q 921 -105 916 -104 q 933 -107 926 -106 q 945 -109 939 -108 q 952 -109 950 -109 q 978 -118 966 -111 q 1004 -128 990 -125 q 1009 -129 1004 -128 q 1020 -130 1014 -130 q 1030 -132 1025 -131 q 1038 -132 1036 -132 q 1048 -137 1039 -134 q 1061 -142 1058 -141 q 1073 -145 1065 -143 q 1092 -149 1082 -147 q 1110 -153 1101 -151 q 1121 -156 1118 -155 q 1135 -158 1124 -157 q 1159 -161 1146 -159 q 1183 -163 1172 -162 q 1197 -165 1194 -165 q 1204 -168 1198 -165 q 1210 -170 1209 -170 l 1225 -170 q 1233 -173 1227 -171 q 1246 -177 1239 -175 q 1259 -181 1253 -180 q 1267 -183 1265 -183 q 1284 -184 1270 -184 q 1296 -184 1290 -184 q 1309 -184 1303 -184 q 1319 -183 1315 -184 q 1325 -183 1324 -183 q 1340 -189 1331 -184 q 1352 -198 1349 -193 q 1364 -198 1358 -198 q 1377 -197 1371 -197 q 1402 -199 1390 -197 q 1427 -203 1413 -200 q 1433 -205 1428 -203 q 1442 -208 1437 -206 q 1451 -210 1447 -209 q 1455 -212 1455 -212 q 1495 -216 1475 -216 q 1534 -217 1515 -217 l 1560 -217 q 1567 -215 1561 -217 q 1574 -212 1573 -212 l 1575 -212 l 1579 -212 q 1588 -215 1579 -212 q 1597 -217 1596 -217 l 1630 -217 q 1639 -224 1638 -220 q 1640 -233 1640 -228 q 1635 -249 1640 -243 q 1621 -259 1630 -255 q 1605 -265 1615 -261 q 1587 -273 1596 -269 q 1571 -280 1578 -277 q 1563 -283 1564 -283 q 1551 -285 1561 -283 q 1529 -288 1541 -287 q 1506 -291 1517 -290 q 1493 -292 1495 -292 q 1489 -294 1493 -293 q 1482 -295 1486 -294 q 1475 -297 1478 -296 q 1470 -298 1471 -298 l 1452 -298 q 1415 -295 1433 -298 q 1378 -292 1396 -292 q 1354 -297 1364 -292 q 1332 -302 1344 -302 q 1312 -300 1322 -302 q 1292 -297 1301 -297 q 1281 -302 1286 -297 q 1270 -307 1277 -307 l 1267 -307 q 1263 -304 1266 -306 q 1255 -302 1259 -303 q 1248 -299 1251 -300 q 1244 -298 1244 -298 l 1229 -298 l 1192 -298 q 1161 -292 1176 -297 q 1131 -283 1147 -286 q 1125 -282 1130 -283 q 1116 -281 1121 -281 q 1105 -280 1110 -281 q 1097 -279 1100 -279 q 1015 -266 1057 -273 q 933 -245 973 -258 q 907 -237 920 -242 q 882 -227 894 -231 q 877 -226 880 -227 q 869 -224 873 -225 q 862 -223 865 -224 q 858 -222 859 -222 q 810 -207 834 -216 q 763 -189 786 -198 q 737 -175 749 -184 q 711 -159 725 -167 q 704 -158 710 -159 q 697 -156 699 -157 q 692 -153 696 -155 q 683 -148 688 -151 q 674 -144 678 -146 q 669 -142 670 -142 q 663 -140 668 -142 q 653 -137 659 -139 q 643 -134 648 -136 q 636 -132 637 -133 q 628 -127 631 -131 q 623 -119 625 -123 q 618 -111 621 -115 q 612 -104 616 -107 q 597 -98 605 -100 q 582 -93 590 -95 q 566 -88 574 -91 q 552 -81 559 -85 q 538 -70 545 -77 q 523 -62 532 -64 q 514 -60 522 -62 q 505 -58 506 -58 q 457 -30 479 -46 q 410 -5 435 -14 q 400 -3 408 -5 q 390 0 393 -1 q 370 13 380 5 q 349 24 359 20 q 333 27 338 27 q 319 32 328 26 q 298 47 311 37 q 271 65 285 56 q 248 81 258 75 q 235 89 237 88 q 227 98 233 91 q 212 113 220 104 q 197 127 204 121 q 188 136 190 134 l 179 141 q 176 144 178 141 q 175 146 176 145 q 155 178 165 161 q 136 211 146 195 q 133 215 136 212 q 127 223 130 219 q 121 231 124 227 q 118 235 118 234 q 113 244 117 236 q 109 254 110 252 q 106 264 107 256 q 102 272 104 271 q 98 283 101 277 q 91 297 94 290 q 84 312 87 304 q 79 323 81 319 q 77 361 76 344 q 71 395 77 378 z "},"R":{"ha":924,"x_min":55,"x_max":903,"o":"m 361 476 q 383 475 368 476 q 415 473 398 474 q 447 472 432 473 q 468 471 463 471 l 474 471 l 479 471 q 492 473 484 471 q 503 476 501 475 q 541 497 526 485 q 567 525 555 510 q 588 558 578 541 q 612 593 598 575 q 616 602 613 597 q 620 609 620 607 q 621 615 620 610 q 623 627 622 621 q 624 638 623 633 q 625 645 625 644 q 627 654 625 646 q 630 664 629 663 l 630 675 q 629 705 630 690 q 620 734 627 721 q 604 768 610 751 q 588 800 597 785 q 584 804 587 801 q 579 810 582 807 q 575 816 577 813 q 572 820 573 819 q 570 825 572 821 q 564 834 567 829 q 558 842 561 838 q 554 847 555 846 q 552 850 554 849 q 549 852 551 852 q 538 856 544 855 q 526 857 532 857 q 514 857 519 857 q 503 863 508 858 q 487 872 494 867 q 472 879 479 876 q 457 884 465 882 q 437 886 448 886 l 427 886 q 417 885 424 886 q 401 883 410 884 q 386 882 393 882 q 374 881 378 881 q 370 877 374 880 q 363 870 367 873 q 356 863 359 866 q 351 858 352 859 q 350 851 351 857 q 347 844 349 846 q 345 834 347 841 q 342 823 342 827 q 339 807 340 817 q 332 792 338 798 l 332 762 l 332 730 q 334 708 333 726 q 335 671 334 691 q 337 634 336 651 q 338 612 338 616 q 337 596 338 609 q 335 568 336 583 q 334 540 334 553 q 332 524 333 527 l 332 511 q 341 490 332 501 q 361 476 349 479 m 785 6 q 757 3 771 6 q 729 0 743 0 q 717 4 726 0 q 699 14 708 8 q 682 25 690 20 q 672 34 674 31 q 657 62 663 47 q 643 89 651 76 q 636 99 642 92 q 630 108 630 106 q 626 115 629 110 q 620 127 623 121 q 614 139 616 134 q 612 146 612 144 q 606 153 610 148 q 601 161 602 158 q 567 209 584 185 q 535 259 551 233 q 533 264 535 260 q 530 269 532 267 q 511 309 522 290 q 488 349 500 328 q 487 352 488 349 q 484 358 486 355 q 481 365 482 361 q 479 368 479 368 q 470 373 477 368 q 460 381 463 378 q 454 385 458 382 q 446 391 450 388 q 437 397 441 394 q 432 400 433 399 q 425 408 431 401 q 418 415 419 414 q 413 418 416 416 q 405 422 409 420 q 396 427 400 425 q 390 429 392 429 q 380 431 389 429 q 371 434 372 433 q 361 438 369 434 q 351 442 354 442 l 350 442 q 340 435 346 442 q 328 419 334 428 q 317 401 321 410 q 313 389 313 392 q 316 365 313 376 q 319 341 319 354 q 316 319 319 329 q 313 298 313 309 q 318 274 313 286 q 324 251 322 262 l 324 208 l 324 165 q 322 156 324 163 q 319 146 319 148 l 319 142 q 329 109 319 122 q 351 86 338 96 q 381 71 365 77 q 410 57 397 64 q 433 43 424 51 q 442 26 442 36 q 436 12 442 18 q 422 2 431 6 q 405 -3 414 -1 q 390 -5 396 -5 q 374 -4 385 -5 q 352 -4 363 -4 q 329 -3 340 -3 q 315 -1 319 -2 l 154 0 q 140 -4 149 -3 q 125 -5 132 -5 l 107 -5 l 74 -5 q 62 1 70 -3 q 55 12 55 6 q 59 22 55 16 q 67 32 62 27 q 78 39 73 36 q 87 42 83 42 l 163 42 q 167 44 165 42 q 172 50 170 47 q 175 57 174 54 q 177 61 177 60 l 177 74 l 177 108 q 179 118 178 110 q 181 134 180 125 q 182 151 182 143 q 183 161 183 159 q 182 174 183 163 q 182 193 182 184 q 182 202 182 198 q 183 208 182 206 q 183 212 183 208 q 184 230 184 216 q 186 273 185 244 q 186 353 186 302 q 196 375 195 366 q 197 397 197 385 q 197 410 197 402 q 196 419 196 418 q 194 424 196 420 q 191 429 191 428 l 191 431 q 194 467 191 448 q 197 503 197 486 q 194 524 197 517 q 191 540 191 530 l 191 542 q 194 551 191 544 q 196 559 196 558 q 197 568 197 562 q 199 580 198 574 q 201 591 200 586 q 202 598 201 596 l 202 640 l 202 656 q 204 672 202 659 q 208 700 205 685 q 212 729 210 715 q 215 745 214 742 l 215 781 q 216 787 215 783 q 217 797 216 791 q 219 806 218 802 q 220 810 220 810 l 220 815 l 220 820 q 216 827 220 821 q 210 834 212 833 q 206 839 209 836 q 200 845 203 842 q 194 850 197 848 q 191 852 192 852 q 180 855 190 853 q 168 858 171 857 q 157 860 165 858 q 140 864 149 862 q 123 868 131 866 q 113 871 115 870 q 86 885 99 874 q 74 909 74 895 q 78 919 74 915 q 86 926 81 923 q 98 931 92 929 q 108 932 104 932 q 122 932 116 932 q 136 928 128 931 q 185 924 161 926 q 233 922 210 922 q 277 924 256 922 q 319 928 299 926 q 330 932 326 931 q 339 932 334 932 q 354 927 348 932 q 368 922 359 922 q 402 925 385 922 q 435 930 418 927 q 467 935 451 932 q 500 937 483 937 l 526 937 q 536 932 530 934 q 548 930 542 931 q 559 929 554 930 q 568 928 565 929 q 576 921 571 927 q 583 914 582 916 l 659 890 q 663 887 659 890 q 672 878 667 883 q 682 867 677 872 q 690 858 687 861 q 695 851 691 857 q 701 844 699 845 q 723 825 709 832 q 743 810 737 819 q 758 773 752 792 q 771 734 763 755 q 772 731 771 734 q 775 725 774 728 q 778 719 777 722 q 779 715 779 716 l 779 715 l 779 711 q 778 707 779 710 q 775 700 777 703 q 772 692 774 696 q 771 688 771 689 l 771 673 l 771 636 q 770 632 771 635 q 766 626 768 629 q 763 621 764 623 q 760 617 761 618 q 760 613 760 616 q 759 605 760 609 q 757 597 758 601 q 755 593 756 594 q 739 551 751 573 q 711 508 727 528 q 675 472 694 488 q 635 447 655 456 q 625 446 633 447 q 615 442 616 444 q 596 421 604 436 q 583 395 589 406 q 585 393 584 394 q 588 392 586 392 q 633 350 612 372 q 672 302 654 328 q 674 295 672 300 q 677 288 676 289 q 679 283 677 286 q 682 278 680 279 q 691 259 687 269 q 701 241 695 250 q 709 225 705 231 q 718 214 713 219 q 726 203 722 208 q 737 189 731 197 q 770 143 753 168 q 808 104 787 119 q 838 89 821 95 q 869 76 854 83 q 893 57 883 69 q 903 24 903 45 l 903 13 q 902 5 903 9 q 899 0 902 1 q 890 -2 897 0 q 879 -5 882 -3 q 871 -5 878 -5 q 857 -6 865 -5 q 840 -8 848 -7 q 826 -9 831 -9 l 825 -9 q 817 -7 821 -9 q 808 -2 812 -5 q 798 4 804 1 q 785 6 793 6 z "},"S":{"ha":728,"x_min":67,"x_max":661,"o":"m 72 101 q 68 116 68 110 q 67 132 67 122 q 70 159 67 146 q 76 186 73 173 q 84 211 80 199 q 90 237 87 224 q 97 269 94 253 q 114 294 100 285 q 121 296 116 295 q 133 297 127 296 q 144 298 139 298 q 151 299 149 299 q 159 296 154 299 q 165 290 164 292 q 182 254 176 270 q 198 214 189 237 l 203 205 l 203 177 q 209 163 205 169 q 217 153 212 157 q 227 144 222 149 q 237 135 232 140 q 246 121 242 128 q 254 108 250 114 q 266 97 259 102 q 284 93 273 93 q 303 90 289 92 q 335 87 318 89 q 366 84 351 85 q 386 82 380 83 l 392 82 q 421 89 407 82 q 448 101 435 96 q 458 104 450 102 q 467 106 466 106 q 474 112 468 106 q 482 119 479 117 q 487 125 484 121 q 493 133 490 130 q 498 140 496 137 q 501 143 500 142 q 502 148 501 144 q 503 155 502 151 q 504 163 503 159 q 506 167 505 166 q 507 171 506 168 q 510 177 509 174 q 513 183 511 180 q 514 186 514 186 q 515 192 515 188 q 517 200 516 196 q 518 209 517 205 q 519 214 519 212 q 516 224 519 216 q 514 233 514 232 q 513 245 513 236 q 511 264 512 254 q 510 282 511 274 q 509 294 509 291 q 505 303 509 298 q 495 316 500 309 q 485 328 490 322 q 476 337 479 334 q 458 356 469 347 q 435 370 447 365 q 427 373 433 371 q 420 374 421 374 q 416 378 419 375 q 409 384 412 381 q 401 390 405 387 q 397 393 398 393 q 392 396 395 394 q 386 397 389 397 q 380 400 385 398 q 370 405 376 402 q 360 409 365 407 q 355 412 355 411 q 349 414 351 413 q 345 416 347 415 q 341 420 344 417 q 335 426 338 422 q 330 432 332 429 q 326 435 327 435 q 322 438 326 436 q 316 442 319 439 q 308 447 312 444 q 302 450 304 449 q 263 475 282 461 q 227 504 245 490 q 190 533 208 519 q 151 558 171 547 q 142 571 149 562 q 130 591 136 581 q 117 611 123 602 q 109 624 111 621 q 106 629 108 625 q 101 638 104 633 q 97 646 99 642 q 95 652 96 650 l 95 688 q 97 739 95 713 q 104 789 98 765 q 124 830 110 808 q 156 872 138 852 q 194 909 174 893 q 231 932 214 925 q 236 932 232 932 q 245 933 240 932 q 255 934 250 933 q 260 935 259 935 q 269 937 262 935 q 281 940 275 938 q 294 943 288 942 q 302 945 300 945 q 309 945 303 945 q 322 945 315 945 q 338 945 330 945 q 351 945 347 945 q 361 945 353 945 q 376 945 368 945 q 392 945 385 945 q 401 945 399 945 q 414 941 408 942 q 428 939 421 940 q 440 937 434 938 q 453 932 447 935 q 458 926 454 930 q 463 921 461 922 q 492 893 476 904 q 532 882 509 882 q 556 887 548 882 q 570 897 564 891 q 581 907 575 903 q 597 911 586 911 q 606 910 604 911 q 614 902 609 909 q 618 895 615 900 q 624 883 621 889 q 629 872 627 877 q 633 865 631 867 l 633 861 l 633 855 q 631 851 632 854 q 629 844 630 848 q 627 836 628 840 q 627 832 627 833 l 627 776 q 615 752 618 763 q 608 728 613 741 q 604 719 608 726 q 600 710 601 711 q 594 695 596 701 q 588 684 591 688 q 577 677 584 680 q 559 675 571 675 q 534 682 544 675 q 517 697 524 688 q 508 719 511 707 q 500 744 504 731 q 493 768 497 756 q 482 789 489 780 q 476 795 481 790 q 467 807 472 801 q 456 819 461 813 q 448 827 451 825 q 437 838 445 831 q 422 852 430 845 q 406 864 414 859 q 392 869 397 869 l 331 869 q 322 873 326 873 q 315 874 319 874 l 307 874 q 267 844 286 861 q 231 808 248 827 l 231 799 q 229 779 231 787 q 227 758 227 770 l 227 751 q 229 742 227 749 q 231 733 231 734 q 232 713 232 722 q 233 696 232 704 q 237 680 234 688 q 245 662 239 671 q 250 659 248 661 l 256 652 q 265 644 258 650 q 281 629 273 637 q 297 614 290 621 q 307 606 305 608 q 311 602 308 605 q 316 596 313 600 q 322 590 319 593 q 326 587 326 587 q 333 583 328 586 q 347 577 339 581 q 361 569 354 573 q 373 563 369 565 q 409 545 391 555 q 448 535 428 535 q 517 490 481 513 q 585 440 554 466 q 590 435 587 439 q 595 431 593 432 q 597 426 595 429 q 601 417 599 422 q 605 408 604 412 q 608 404 607 404 q 631 371 619 386 q 650 337 644 357 q 651 331 650 336 q 653 320 652 326 q 654 310 654 315 q 656 304 655 304 q 658 297 656 302 q 661 290 661 292 l 661 280 q 656 261 661 269 q 650 241 652 254 q 650 228 650 239 q 651 205 651 216 q 650 190 651 193 q 648 186 650 189 q 644 179 646 182 q 640 172 642 175 q 637 167 637 168 q 631 155 635 165 q 620 134 626 145 q 610 113 614 123 q 603 101 605 103 q 598 95 603 100 q 588 84 594 90 q 576 72 582 78 q 567 63 570 66 q 522 29 545 43 q 472 7 499 14 q 456 3 469 6 q 430 -2 444 1 q 402 -8 416 -5 q 382 -12 389 -11 l 378 -12 q 302 -9 341 -12 q 227 2 263 -7 q 214 8 220 4 q 203 16 209 12 q 192 24 197 20 q 180 31 186 28 q 164 36 175 33 q 142 44 153 40 q 121 52 131 48 q 109 58 112 56 q 102 67 107 61 q 90 80 96 73 q 79 93 84 87 q 72 101 74 99 z "}}}
